<?xml version="1.0" encoding="utf-8"?>
<!-- Generator: Adobe Illustrator 16.0.0, SVG Export Plug-In . SVG Version: 6.00 Build 0)  -->
<!DOCTYPE svg PUBLIC "-//W3C//DTD SVG 1.1//EN" "http://www.w3.org/Graphics/SVG/1.1/DTD/svg11.dtd">
<svg version="1.1" id="Layer_1" xmlns="http://www.w3.org/2000/svg" xmlns:xlink="http://www.w3.org/1999/xlink" x="0px" y="0px"
	 width="128.181px" height="51.316px" viewBox="8.357 276.842 128.181 51.316"
	 enable-background="new 8.357 276.842 128.181 51.316" xml:space="preserve">
<path fill="#201C1D" d="M52.51,295.665c-2.676,0-5.661,1.03-6.287,4.423c-0.066,0.361,0.172,0.532,0.402,0.583l2.742,0.33
	c0.253-0.014,0.426-0.288,0.475-0.549c0.235-1.167,1.194-1.718,2.266-1.718c0.58,0,1.228,0.199,1.572,0.731
	c0.392,0.593,0.364,1.399,0.364,2.084v0.402c-1.629,0.188-3.774,0.301-5.299,0.986c-1.759,0.783-2.998,2.375-2.998,4.715
	c0,2.999,1.838,4.495,4.204,4.495c1.998,0,3.103-0.47,4.643-2.082c0.512,0.759,0.675,1.104,1.608,1.9
	c0.208,0.111,0.472,0.101,0.659-0.073v0.036c0.561-0.512,1.58-1.442,2.156-1.937c0.229-0.192,0.179-0.508,0-0.768
	c-0.515-0.728-1.06-1.314-1.06-2.669v-4.495c0-1.905,0.161-3.661-1.207-4.971C55.673,296.029,53.876,295.665,52.51,295.665
	L52.51,295.665z M89.354,295.665c-2.677,0-5.661,1.03-6.287,4.423c-0.065,0.361,0.171,0.532,0.402,0.583l2.743,0.33
	c0.253-0.014,0.427-0.288,0.475-0.549c0.236-1.167,1.195-1.718,2.266-1.718c0.581,0,1.228,0.199,1.571,0.731
	c0.393,0.593,0.329,1.399,0.329,2.084v0.402c-1.629,0.188-3.737,0.301-5.263,0.986c-1.761,0.783-2.996,2.375-2.996,4.715
	c0,2.999,1.838,4.495,4.203,4.495c1.995,0,3.1-0.47,4.642-2.082c0.509,0.759,0.675,1.104,1.609,1.9
	c0.209,0.111,0.472,0.101,0.658-0.073v0.036c0.562-0.512,1.582-1.442,2.157-1.937c0.229-0.192,0.176-0.508,0-0.768
	c-0.515-0.728-1.061-1.314-1.061-2.669v-4.495c0-1.905,0.124-3.661-1.242-4.971C92.478,296.029,90.719,295.665,89.354,295.665
	L89.354,295.665z M68.629,295.811c-1.729,0-3.01,0.873-3.691,2.742h-0.037v-1.938c-0.019-0.27-0.237-0.498-0.511-0.512h-2.632
	c-0.299,0-0.549,0.252-0.549,0.549v14.803c0.022,0.262,0.245,0.493,0.513,0.512h2.814c0.3,0,0.546-0.25,0.547-0.549v-7.858
	c0-1.713-0.082-4.057,1.938-4.057c1.994,0,1.717,2.408,1.717,4.057v7.858c0,0.279,0.229,0.53,0.512,0.549h2.814
	c0.298,0,0.548-0.25,0.548-0.549v-7.858c0-0.84-0.034-2.065,0.255-2.814c0.289-0.749,1-1.243,1.682-1.243
	c0.812,0,1.435,0.283,1.645,1.279c0.13,0.592,0.073,2.156,0.073,2.778v7.858c0,0.279,0.229,0.53,0.511,0.549h2.814
	c0.299,0,0.548-0.25,0.548-0.549v-9.356c0-1.591,0.159-3.396-0.731-4.643c-0.788-1.12-2.075-1.609-3.253-1.609
	c-1.652,0-3.192,0.873-3.874,2.742C71.496,296.684,70.386,295.811,68.629,295.811L68.629,295.811z M116.474,295.811
	c-4.066,0-6.323,3.576-6.323,8.188c0,4.58,2.231,8.259,6.323,8.259c3.936,0,6.434-3.595,6.434-8.114
	C122.907,299.473,120.645,295.811,116.474,295.811L116.474,295.811z M132.519,295.811c-1.943,0-3.054,0.971-3.838,2.997h-0.036
	v-2.266c-0.051-0.229-0.266-0.388-0.512-0.401h-2.596c-0.283,0-0.523,0.205-0.548,0.475v14.803c0,0.279,0.231,0.53,0.512,0.549
	h2.778c0.298,0,0.542-0.25,0.547-0.549v-7.968c0-0.999,0.085-1.91,0.477-2.813c0.315-0.718,0.926-1.171,1.608-1.171
	c1.938,0,1.753,2.363,1.753,3.984v8.042c0.029,0.251,0.256,0.458,0.513,0.476h2.814c0.277,0,0.516-0.21,0.548-0.476v-9.321
	c0-1.433,0.003-3.422-0.731-4.606C135.021,296.288,133.774,295.811,132.519,295.811L132.519,295.811z M98.747,296.067
	c-0.286,0-0.512,0.227-0.513,0.548v2.12c0.001,0.319,0.219,0.547,0.513,0.549h4.824l-5.519,8.15
	c-0.335,0.526-0.365,1.121-0.365,1.463v2.157c0,0.311,0.338,0.649,0.658,0.475c3.146-1.717,6.915-1.565,9.759-0.036
	c0.346,0.188,0.695-0.165,0.695-0.476v-2.267c-0.026-0.303-0.146-0.593-0.511-0.804c-1.615-0.928-3.488-1.213-5.262-1.169
	l4.788-7.017c0.442-0.631,0.689-1.01,0.694-1.317v-1.826c0-0.315-0.215-0.548-0.511-0.548L98.747,296.067L98.747,296.067z
	 M116.474,298.845c0.891,0,1.548,0.397,1.864,1.425c0.365,1.186,0.403,2.665,0.403,3.911c0,1.9-0.088,5.044-2.266,5.044
	c-2.202,0-2.193-3.892-2.193-5.702C114.281,301.719,114.402,298.845,116.474,298.845z M54.008,304.254v0.622
	c0,1.125,0.041,2.069-0.512,3.069c-0.447,0.813-1.149,1.317-1.937,1.317c-1.076,0-1.717-0.875-1.717-2.121
	C49.842,304.684,51.978,304.254,54.008,304.254z M90.852,304.254v0.622c0,1.125,0.041,2.069-0.511,3.069
	c-0.448,0.813-1.145,1.317-1.938,1.317c-1.078,0-1.718-0.875-1.718-2.121C86.685,304.684,88.819,304.254,90.852,304.254
	L90.852,304.254z"/>
<path d="M109.09,312.441v2.121h1.427v-2.121H109.09z M67.752,312.808v15.095h1.315v-1.353c0.28,0.536,0.599,0.937,0.986,1.206
	c0.387,0.27,0.83,0.402,1.315,0.402c0.967,0,1.801-0.493,2.522-1.498c0.722-1.006,1.097-2.462,1.097-4.312
	c0-1.213-0.155-2.218-0.476-3.069c-0.32-0.85-0.747-1.483-1.279-1.901c-0.534-0.418-1.14-0.658-1.791-0.658
	c-0.465,0-0.899,0.121-1.281,0.364c-0.378,0.243-0.686,0.64-0.986,1.133v-5.409H67.752L67.752,312.808z M81.274,316.353
	c-0.99,0-1.779,0.293-2.338,0.877c-0.559,0.584-0.839,1.334-0.839,2.267c0,0.541,0.118,1.001,0.327,1.425
	c0.208,0.425,0.504,0.77,0.877,1.023c0.375,0.253,1.122,0.587,2.23,0.951c0.767,0.247,1.225,0.457,1.426,0.622
	c0.289,0.24,0.439,0.554,0.439,0.987c0,0.5-0.175,0.918-0.513,1.243c-0.337,0.326-0.809,0.475-1.426,0.475
	c-0.618,0-1.126-0.173-1.498-0.548c-0.373-0.375-0.573-0.945-0.659-1.717l-1.425,0.292c0.322,2.345,1.492,3.511,3.508,3.509
	c1.076,0,1.898-0.304,2.521-0.95c0.622-0.647,0.951-1.515,0.951-2.559c0-0.564-0.101-1.052-0.292-1.461
	c-0.194-0.409-0.458-0.713-0.805-0.951c-0.346-0.236-1.121-0.552-2.302-0.95c-0.858-0.301-1.36-0.521-1.534-0.659
	c-0.292-0.23-0.439-0.546-0.439-0.949c0-0.412,0.137-0.761,0.439-1.024c0.303-0.263,0.769-0.401,1.389-0.401
	c1.089,0,1.699,0.598,1.826,1.79l1.39-0.219c-0.097-0.754-0.261-1.351-0.511-1.756c-0.252-0.403-0.623-0.745-1.097-0.986
	C82.444,316.442,81.902,316.353,81.274,316.353z M90.011,316.353c-1.142,0-2.106,0.47-2.852,1.462
	c-0.745,0.991-1.095,2.428-1.095,4.312c0,1.816,0.358,3.239,1.095,4.204c0.739,0.961,1.695,1.425,2.889,1.425
	c0.948,0,1.735-0.285,2.375-0.877c0.642-0.592,1.108-1.465,1.352-2.632l-1.462-0.255c-0.419,1.494-1.194,2.227-2.265,2.229
	c-0.684,0-1.241-0.29-1.718-0.914c-0.478-0.625-0.748-1.551-0.803-2.777h6.285v-0.512c0-1.845-0.368-3.229-1.096-4.204
	C91.986,316.84,91.101,316.353,90.011,316.353L90.011,316.353z M98.674,316.353c-0.341,0-0.639,0.115-0.914,0.365
	c-0.275,0.25-0.584,0.766-0.915,1.534v-1.681h-1.279V327.5h1.426v-5.702c0-0.795,0.076-1.561,0.256-2.266
	c0.103-0.406,0.297-0.724,0.548-0.95c0.251-0.228,0.538-0.33,0.84-0.33c0.336,0,0.669,0.135,1.023,0.402l0.476-1.717
	C99.639,316.54,99.152,316.353,98.674,316.353z M116.144,316.353c-1.128,0-2.058,0.476-2.778,1.426
	c-0.717,0.95-1.095,2.377-1.095,4.276c0,1.885,0.383,3.313,1.095,4.277c0.713,0.961,1.605,1.425,2.706,1.425
	c0.91,0,1.69-0.338,2.339-1.023c0.649-0.685,1.044-1.695,1.207-2.997l-1.39-0.219c-0.104,0.932-0.346,1.603-0.731,2.046
	c-0.384,0.443-0.847,0.658-1.389,0.658c-0.69,0-1.278-0.322-1.719-0.986c-0.44-0.665-0.657-1.729-0.657-3.216
	c0-1.441,0.234-2.481,0.694-3.143c0.461-0.663,1.051-1.023,1.754-1.023c0.471,0,0.872,0.182,1.207,0.546
	c0.337,0.367,0.559,0.945,0.694,1.683l1.391-0.292c-0.167-1.152-0.537-2.02-1.134-2.595
	C117.739,316.617,117.014,316.353,116.144,316.353L116.144,316.353z M124.295,316.353c-1.143,0-2.107,0.47-2.852,1.462
	c-0.745,0.991-1.096,2.428-1.096,4.312c0,1.816,0.359,3.239,1.096,4.204c0.74,0.961,1.695,1.425,2.888,1.425
	c0.945,0,1.735-0.285,2.376-0.877c0.64-0.592,1.106-1.465,1.353-2.632l-1.462-0.255c-0.422,1.494-1.161,2.227-2.23,2.229
	c-0.684,0-1.278-0.29-1.754-0.914c-0.477-0.625-0.746-1.551-0.804-2.777h6.286v-0.512c0-1.845-0.368-3.229-1.096-4.204
	C126.273,316.84,125.386,316.353,124.295,316.353L124.295,316.353z M132.739,316.353c-0.994,0-1.78,0.293-2.339,0.877
	c-0.561,0.583-0.841,1.334-0.841,2.267c0,0.541,0.084,1.001,0.292,1.425c0.206,0.425,0.503,0.77,0.878,1.023
	c0.372,0.253,1.122,0.587,2.229,0.951c0.765,0.247,1.263,0.457,1.462,0.622c0.289,0.24,0.438,0.554,0.438,0.987
	c0,0.5-0.173,0.918-0.512,1.243c-0.335,0.326-0.808,0.475-1.425,0.475c-0.62,0-1.126-0.173-1.499-0.548
	c-0.372-0.375-0.613-0.945-0.695-1.717l-1.425,0.292c0.322,2.345,1.488,3.511,3.507,3.509c1.078,0,1.937-0.304,2.559-0.95
	c0.622-0.647,0.949-1.515,0.949-2.559c0-0.564-0.099-1.052-0.291-1.461c-0.193-0.409-0.493-0.713-0.841-0.951
	c-0.346-0.236-1.085-0.552-2.265-0.95c-0.86-0.301-1.397-0.521-1.572-0.659c-0.292-0.23-0.438-0.546-0.438-0.949
	c0-0.412,0.172-0.761,0.476-1.024c0.303-0.263,0.772-0.401,1.39-0.401c1.089,0,1.697,0.598,1.826,1.79l1.389-0.219
	c-0.097-0.754-0.259-1.351-0.511-1.756c-0.251-0.403-0.623-0.745-1.096-0.986C133.91,316.442,133.363,316.353,132.739,316.353
	L132.739,316.353z M100.136,316.572l3.182,10.929h1.352l3.18-10.929h-1.462l-1.864,6.689c-0.226,0.808-0.425,1.507-0.549,2.083
	c-0.154-0.726-0.305-1.488-0.511-2.23l-1.827-6.542H100.136z M109.09,316.572V327.5h1.427v-10.929H109.09z M62.232,316.719
	c-1.13,0-2.04,0.506-2.777,1.498c-0.738,0.992-1.134,2.428-1.134,4.313c0,1.817,0.365,3.205,1.096,4.167
	c0.73,0.963,1.706,1.462,2.889,1.462c0.938,0,1.704-0.321,2.338-0.914c0.634-0.592,1.073-1.465,1.317-2.632l-1.426-0.219
	c-0.416,1.494-1.17,2.227-2.229,2.229c-0.679,0-1.246-0.289-1.719-0.914c-0.473-0.624-0.748-1.551-0.804-2.777h6.213l0.037-0.512
	c0-1.845-0.375-3.266-1.097-4.241C64.216,317.206,63.31,316.719,62.232,316.719L62.232,316.719z M46.188,316.974l2.559,10.929h1.498
	l1.683-8.406l0.292,1.864l1.352,6.542h1.462l2.596-10.929h-1.352l-1.427,6.323l-0.476,2.121l-0.439-2.121l-1.243-6.324H51.23
	l-1.315,6.397l-0.439,2.266l-0.51-2.339l-1.317-6.324L46.188,316.974L46.188,316.974z M89.975,317.852
	c0.71,0,1.295,0.343,1.754,1.023c0.315,0.465,0.521,1.173,0.584,2.12h-4.715c0.045-0.959,0.316-1.699,0.769-2.266
	C88.819,318.163,89.337,317.852,89.975,317.852L89.975,317.852z M124.258,317.852c0.708,0,1.295,0.343,1.754,1.023
	c0.317,0.465,0.521,1.173,0.586,2.12h-4.716c0.045-0.959,0.317-1.699,0.768-2.266C123.1,318.163,123.621,317.852,124.258,317.852
	L124.258,317.852z M62.232,318.253c0.702,0,1.266,0.344,1.719,1.024c0.313,0.465,0.52,1.174,0.584,2.12h-4.644
	c0.044-0.96,0.283-1.737,0.732-2.302C61.071,318.527,61.6,318.253,62.232,318.253z M71.297,318.253c0.633,0,1.174,0.352,1.609,1.024
	c0.436,0.671,0.622,1.708,0.622,3.144c0,1.397-0.206,2.439-0.659,3.143c-0.452,0.704-0.988,1.059-1.571,1.059
	c-0.428,0-0.817-0.144-1.169-0.438c-0.354-0.294-0.613-0.716-0.805-1.279c-0.191-0.562-0.292-1.428-0.292-2.558
	c0-1.333,0.238-2.33,0.694-3.034S70.715,318.253,71.297,318.253L71.297,318.253z"/>
<path fill="#F7A80D" d="M25.701,306.667l-5.446,2.338l5.044,2.157l5.849-2.157L25.701,306.667L25.701,306.667z M17.514,309.59
	l-0.183,10.528l7.969,3.509v-10.93L17.514,309.59L17.514,309.59z M33.888,309.59l-7.201,2.742v10.308l7.201-2.924V309.59
	L33.888,309.59z M42.478,276.842l-5.483,2.338l5.081,2.157l5.849-2.157L42.478,276.842z M34.875,279.949v10.526l6.799,1.974
	l0.219-9.577L34.875,279.949L34.875,279.949z M50.08,280.533l-6.434,2.742v10.344l6.434-2.924V280.533z M16.727,291.657
	l-5.446,2.339l5.044,2.157l5.848-2.157L16.727,291.657z M8.541,294.582l-0.183,10.526l7.968,3.508v-10.928L8.541,294.582z
	 M24.915,294.582l-7.201,2.74v10.308l7.201-2.924V294.582z M34.271,291.269l-5.446,2.338l5.044,2.156l5.848-2.156L34.271,291.269
	L34.271,291.269z M26.084,294.191l-0.182,10.527l7.968,3.508v-10.928L26.084,294.191L26.084,294.191z M42.459,294.191l-7.201,2.742
	v10.308l7.201-2.925V294.191z M59.613,276.842l-5.445,2.338l5.043,2.157l5.849-2.157L59.613,276.842L59.613,276.842z
	 M51.426,279.766l-0.183,10.527l7.968,3.508v-10.927L51.426,279.766L51.426,279.766z M67.8,279.766l-7.201,2.742v10.307l7.201-2.924
	V279.766L67.8,279.766z"/>
</svg>
