<?xml version="1.0" encoding="utf-8"?>
<!-- Generator: Adobe Illustrator 16.0.0, SVG Export Plug-In . SVG Version: 6.00 Build 0)  -->
<!DOCTYPE svg PUBLIC "-//W3C//DTD SVG 1.1//EN" "http://www.w3.org/Graphics/SVG/1.1/DTD/svg11.dtd">
<svg version="1.1" id="Layer_1" xmlns="http://www.w3.org/2000/svg" xmlns:xlink="http://www.w3.org/1999/xlink" x="0px" y="0px"
	 width="51.462px" height="54.516px" viewBox="5.769 11.579 51.462 54.516" enable-background="new 5.769 11.579 51.462 54.516"
	 xml:space="preserve">
<path fill="#B3B3B3" d="M31.417,11.579L5.769,20.605L9.821,54.21l21.624,11.885L53.18,54.05l4.051-33.604L31.417,11.579z"/>
<path fill="#A6120D" d="M54.672,22.388l-23.314-7.95v48.817l19.539-10.813L54.672,22.388z"/>
<path fill="#DD1B16" d="M8.646,22.531l3.474,30.054l19.237,10.67V14.437L8.646,22.531z"/>
<path fill="#F2F2F2" d="M37.775,40.426l-6.417,3.001h-6.765l-3.18,7.953L15.5,51.49l15.858-35.28L37.775,40.426L37.775,40.426z
	 M37.155,38.914L31.4,27.521l-4.72,11.198h4.678L37.155,38.914z"/>
<path fill="#B3B3B3" d="M31.357,16.21L31.4,27.521l5.356,11.205h-5.387l-0.012,4.692l7.449,0.008l3.481,8.063l5.659,0.104
	L31.357,16.21z"/>
</svg>
