<?xml version="1.0" encoding="utf-8"?>
<!-- Generator: Adobe Illustrator 16.0.0, SVG Export Plug-In . SVG Version: 6.00 Build 0)  -->
<!DOCTYPE svg PUBLIC "-//W3C//DTD SVG 1.1//EN" "http://www.w3.org/Graphics/SVG/1.1/DTD/svg11.dtd">
<svg version="1.1" id="Layer_1" xmlns="http://www.w3.org/2000/svg" xmlns:xlink="http://www.w3.org/1999/xlink" x="0px" y="0px"
	 width="54.063px" height="56.425px" viewBox="-2.602 -1.909 54.063 56.425" enable-background="new -2.602 -1.909 54.063 56.425"
	 xml:space="preserve">
<path fill="#B3B3B3" d="M25.54-1.909L3.981,5.784l3.406,28.647L25.563,44.56l18.271-10.266l3.405-28.646L25.54-1.909z"/>
<path fill="#A6120D" d="M45.087,7.304L25.491,0.528v41.614l16.424-9.219L45.087,7.304z"/>
<path fill="#DD1B16" d="M6.399,7.427l2.92,25.619l16.17,9.096V0.526L6.399,7.427z"/>
<path fill="#F2F2F2" d="M30.884,22.68l-5.394,2.559h-5.688l-2.672,6.777l-4.971,0.096l13.33-30.074L30.884,22.68L30.884,22.68z
	 M30.363,21.392l-4.837-9.712l-3.969,9.545h3.934L30.363,21.392z"/>
<path fill="#B3B3B3" d="M25.489,2.039l0.037,9.641l4.502,9.55H25.5l-0.011,4.001l6.263,0.008l2.926,6.871l4.756,0.088L25.489,2.039z
	"/>
<text transform="matrix(1 0 0 1 5.1021 51.7571)" font-family="'MyriadPro-Regular'" font-size="12">Angular</text>
</svg>
