<?xml version="1.0" encoding="utf-8"?>
<!-- Generator: Adobe Illustrator 16.0.0, SVG Export Plug-In . SVG Version: 6.00 Build 0)  -->
<!DOCTYPE svg PUBLIC "-//W3C//DTD SVG 1.1//EN" "http://www.w3.org/Graphics/SVG/1.1/DTD/svg11.dtd">
<svg version="1.1" id="babel" xmlns="http://www.w3.org/2000/svg" xmlns:xlink="http://www.w3.org/1999/xlink" x="0px" y="0px"
	 width="127.104px" height="49.372px" viewBox="4.399 279.003 127.104 49.372"
	 enable-background="new 4.399 279.003 127.104 49.372" xml:space="preserve">
<title>Artboard 3</title>
<g id="original">
	<path d="M91.539,283.293v-0.272h-0.443v0.272H91.539z M94.5,290.424v0.131h0.312c0.003-0.148,0.034-0.296,0.091-0.434v-0.271
		c-0.131,0-0.262,0.211-0.383,0.584L94.5,290.424z M82.938,299.408c-0.648-1.11-1.444-2.126-2.367-3.021
		c0-0.322,0.504-0.796,1.602-1.431l3.132-2.729c0.83-1.294,1.26-2.804,1.239-4.341v-0.463c-0.121-1.39-1.128-2.508-3.021-3.364
		c-1.128-0.759-3.143-1.179-6.043-1.259c-3.29,0.439-6.503,1.334-9.548,2.658c-1.175,0.836-2.396,1.606-3.656,2.307v0.231
		c0.132-0.024,0.256-0.08,0.362-0.161c0.114-0.028,0.229,0.042,0.256,0.155c0.004,0.019,0.007,0.038,0.006,0.056l0.231-0.121h0.111
		v0.101c-0.761,0.776-1.617,1.453-2.548,2.014l0.131,0.242h-0.111l-0.281-0.101c0,0.081-0.111,0.142-0.343,0.162v0.101l0.272,0.342
		c-0.136-0.003-0.27-0.034-0.393-0.09c-0.453,0.063-0.868,0.288-1.168,0.635l0.161-0.695c0.517-2.158,0.907-4.343,1.168-6.547
		v-0.121c-0.435-0.288-0.819-0.645-1.138-1.058c0.011-0.164,0.011-0.329,0-0.494v-0.101h-0.111c-1.235,1.86-3.623,5.032-7.161,9.518
		c-2.686,3.189-4.076,4.961-4.169,5.318c-1.098,1.138-1.622,1.823-1.571,2.014c-0.292,0.191-0.413,0.373-0.363,0.584
		c-0.062,0.023-0.132-0.008-0.155-0.071c-0.002-0.007-0.004-0.013-0.005-0.02c-0.465,0.757-1.224,1.286-2.095,1.46l-1.007,0.222
		c-0.126,0.019-0.214,0.137-0.195,0.264c0.001,0.006,0.002,0.013,0.003,0.018v0.121l0.363-0.081v0.101l-0.826,0.322l-1.46,0.343
		h-0.766c-0.111,0.111,0.614,0,0.332,0.061l-1.007,0.221c-0.584,0.131-0.896,0.081-1.007-0.151H39.68
		c0.018,0.08,0.018,0.162,0,0.242l0.121-0.161l-0.765,0.181c-0.054-0.355-1.091-1.651-3.113-3.888c0-0.433,0.675-1.057,2.135-1.873
		l4.109-3.616c0.92-1.181,1.467-3.078,1.642-5.69l-0.05-0.594c-0.162-1.843-1.491-3.324-4.029-4.472
		c-1.48-1.008-4.149-1.542-7.997-1.622c-4.289,0.583-8.479,1.742-12.459,3.445c-1.543,1.102-3.151,2.111-4.814,3.021v0.322
		c0.173-0.03,0.337-0.095,0.483-0.191c0.145-0.039,0.294,0.047,0.333,0.192c0.006,0.022,0.01,0.046,0.01,0.069l0.322-0.181h0.161
		v0.151c-1.019,0.998-2.147,1.876-3.364,2.618l0.181,0.282h-0.15l-0.343-0.121c0,0.09-0.151,0.161-0.483,0.191v0.171l0.373,0.413
		c-0.173-0.002-0.344-0.036-0.503-0.101c-0.912,0.189-1.695,0.767-2.146,1.581l0.181,0.282c0.311-0.338,0.67-0.627,1.068-0.856
		v0.463c-0.171,0.036-0.334,0.101-0.483,0.191l0.423,0.564c0.729-0.771,1.551-1.448,2.447-2.015
		c0.443,0.111,0.675,0.252,0.685,0.403h0.342c2.179-1.665,4.605-2.977,7.191-3.888v0.322c-0.443,0.671-0.742,1.007-0.896,1.007
		c0.011,0.217,0.092,0.426,0.231,0.594c0.041,0.403-1.037,3.123-3.232,8.158c-4.936,11.636-9.092,20.251-12.469,25.844
		c0.031,0.165,0.1,0.319,0.202,0.453c0.562-0.092,1.101-0.297,1.581-0.604h0.181v0.322h0.312l0.323-0.181
		c0,0.09,0.111,0.141,0.332,0.121v0.322c-0.04,0.491-0.207,0.962-0.483,1.37c-0.505,0.734-0.873,1.552-1.088,2.417v0.151h0.313
		c1.227-1.332,2.264-2.827,3.082-4.442c3.126-0.833,6.162-1.974,9.064-3.404c1.722-0.048,3.387-0.621,4.774-1.642v-0.171
		l-0.786,0.232h-0.182v-0.171c1.129-0.077,2.224-0.423,3.193-1.007c2.995-2.31,5.257-3.945,6.789-4.905
		c3.142-2.31,5.18-4.559,6.113-6.748l0.524-0.121c0.252,0.014,0.504,0.014,0.756,0c0-0.081,0-0.131,0.1-0.151
		c0.706-0.07,0.363,0,0.816-0.061l1.178-0.271c-0.07,0-0.101,0.06-0.08,0.131l0.181-0.111h-0.091h0.202l-0.091,0.061
		c0.144,0.027,0.29,0.027,0.433,0l0.081,0.342l-5.459,8.39l-1.188,1.491l-0.584,1.934h0.111l0.584-0.241l-0.191,0.755l0.061,0.222
		l0.161,0.202c-0.07,0-0.101,0.07-0.081,0.151v0.12l0.242-0.061c0.356-0.309,0.507-0.591,0.453-0.846
		c0.25,0.064,0.509,0.085,0.766,0.061v0.121c-0.232,0.061-0.353,0.242-0.373,0.564v0.121h0.131
		c1.954-2.135,6.738-9.417,10.576-14.372c-0.121-0.538,1.893-1.283,6.042-2.236h0.131c0.147,0.671-0.188,2.239-1.007,4.703
		c-0.321,0.793-0.56,1.616-0.715,2.458c-0.405,1.051-0.715,2.137-0.926,3.243l-1.46,4.795c-0.963,2.516-1.691,5.115-2.175,7.765
		c0.132-0.029,0.27-0.029,0.402,0l0.202-0.182c0.012,0.066,0.076,0.109,0.142,0.096c0.007-0.001,0.013-0.003,0.02-0.005l0.01-0.383
		h0.634c0.191,0,0.343-0.282,0.483-0.715c0-0.645,0.101-1.007,0.393-1.068c0.148-0.804,0.392-1.589,0.725-2.336
		c0.155-0.906,0.429-1.786,0.816-2.619c0.554-2.014,1.007-3.021,1.218-3.082l0.061,0.242l-0.402,1.007
		c-0.524,2.518-1.239,4.993-2.136,7.403l0.212,0.896h0.131c1.746-3.753,4.257-11.186,7.533-22.299
		c0.074-0.937,0.595-1.781,1.4-2.266l-0.191-0.201v-0.101c0.307-0.047,0.586-0.205,0.786-0.443c0-0.081-0.342-0.211-1.007-0.373
		l1.632-7.05c0.18-0.194,0.392-0.358,0.625-0.483v0.353c-0.132,0.025-0.256,0.08-0.362,0.161l0.312,0.443
		c0.548-0.6,1.167-1.13,1.843-1.582c0.343,0.09,0.504,0.211,0.524,0.322h0.242c1.659-1.257,3.504-2.246,5.469-2.931v0.232
		c-0.329,0.497-0.554,0.748-0.674,0.755c0.014,0.161,0.065,0.316,0.15,0.454c-0.646,2.127-1.458,4.202-2.426,6.204
		c-2.741,6.762-5.916,13.339-9.508,19.69c0.031,0.125,0.089,0.242,0.171,0.343c0.424-0.068,0.83-0.227,1.188-0.464h0.111v0.232
		h0.262l0.232-0.121c0,0.067,0.084,0.094,0.251,0.081v0.252c-0.034,0.386-0.173,0.755-0.403,1.067
		c-0.399,0.551-0.689,1.174-0.856,1.833v0.121h0.242c0.932-1.011,1.718-2.146,2.336-3.375c2.361-0.636,4.655-1.499,6.849-2.578
		c1.314-0.034,2.587-0.47,3.646-1.25v-0.121l-0.614,0.181h-0.131v-0.121c0.856-0.062,1.685-0.329,2.417-0.776
		c2.266-1.742,4.029-3.021,5.157-3.726c3.625-2.639,5.308-5.167,5.106-7.604L82.938,299.408z M82.323,299.569l0.081,0.947
		c-0.111,0.231-0.232,0.353-0.343,0.362l-0.141-1.612C82.183,299.358,82.313,299.458,82.323,299.569L82.323,299.569z
		 M11.258,291.935h-0.162v-0.292l0.625-0.081v0.151c-0.169,0.031-0.331,0.096-0.474,0.191L11.258,291.935z M8.095,323.57
		c-0.312-0.157-0.659-0.229-1.007-0.212v-0.463c0-0.182,0.081-0.302,0.312-0.343c0.231-0.04,0.332,0.131,0.342,0.433
		c0.265-0.364,0.565-0.702,0.896-1.007l0.343,0.142c-0.111,0.936-0.403,1.42-0.867,1.45H8.095z M41.886,288.218
		c-0.161,0-0.483-0.483-0.937-1.46v-0.292c0.302,0,0.614,0.464,0.937,1.46V288.218z M41.442,284.713l-0.131,0.312l-4.603-1.913
		c3.062,0.101,4.637,0.634,4.724,1.601H41.442z M22.064,301.352l-0.645,0.061v-0.292l0.645-0.061V301.352z M21.541,291.361h0.161
		v0.463c-0.151,0-0.342,0.231-0.594,0.665v-0.323c0.292-0.342,0.443-0.614,0.423-0.795L21.541,291.361z M20.171,294.583l0.061,0.615
		h-0.161l-0.061-0.615H20.171z M19.456,295.732h0.313c0,0.503-0.171,0.775-0.423,0.795h-0.161c0.163-0.227,0.257-0.497,0.271-0.775
		V295.732z M18.922,297.323h0.181v0.151l-0.292,0.483H18.5v-0.151c0.222,0.017,0.415-0.149,0.432-0.371
		c0.003-0.041,0-0.083-0.009-0.123V297.323z M18.398,298.764l-0.091,0.766h-0.161l-0.071-0.756h0.322V298.764z M13.131,313.72
		c-0.211,1.008-0.433,1.582-0.665,1.602v-0.151C12.43,314.606,12.68,314.061,13.131,313.72z M12.124,315.815v0.151
		c0.04,0.145-0.046,0.294-0.19,0.334c-0.03,0.008-0.061,0.011-0.091,0.009v-0.151C11.842,315.976,11.936,315.862,12.124,315.815z
		 M11.842,320.156h0.483v0.171c-0.173,0.029-0.337,0.094-0.483,0.191H11.53c0-0.161,0.081-0.282,0.282-0.342L11.842,320.156z
		 M25.73,315.865c-1.706,0.739-3.327,1.661-4.834,2.75c-2.934,1.027-4.378,1.668-4.331,1.924c-1.788,0.645-3.537,1.396-5.237,2.246
		c-0.299-0.005-0.592-0.081-0.856-0.222c-0.039-0.539,0.241-1.05,0.715-1.31c0.45-0.041,0.903,0.028,1.32,0.202
		c0.817-0.367,1.672-0.647,2.548-0.836v-0.322l-1.007,0.081c0.885-0.549,1.832-0.992,2.82-1.32h0.483v0.151
		c-0.836,0.071-1.299,0.322-1.4,0.755c0,0.201,0.131,0.282,0.342,0.262c0.625-0.393,0.937-0.625,0.927-0.695
		c1.195-0.229,4.488-1.951,9.88-5.167v0.292c0,0.142-0.454,0.534-1.38,1.209H25.73z M17.452,318.584
		c0.762-0.061,1.477-0.393,2.015-0.937c0.221,0,0.342,0.07,0.352,0.262c-0.787,0.208-1.532,0.55-2.206,1.007h-0.161v-0.312V318.584z
		 M30.857,308.322l-4.14,3.283c-1.584,1.12-3.243,2.129-4.966,3.021c-4.901,2.686-7.946,4.085-9.134,4.2h-0.181
		c0.147-0.55,2.329-5.019,6.546-13.405c3.023-0.486,5.972-1.36,8.772-2.599l1.007-0.08c1.604-0.287,3.253,0.136,4.522,1.158
		l0.061,0.614c-0.752,2.155-1.575,3.417-2.468,3.787L30.857,308.322z M22.8,303.77l0.665-0.061v0.151l-0.665,0.06V303.77z
		 M32.156,302.188h0.483c0.454,0.211,0.685,0.403,0.706,0.574v0.151c-0.492,0.006-0.949-0.251-1.199-0.675L32.156,302.188z
		 M33.476,294.654c-1.076,1.014-2.266,1.899-3.546,2.639c-0.634,0.061-3.021,1.007-7.12,2.78c-0.205-0.093-0.431-0.132-0.655-0.111
		v-0.292c0.022-0.811,0.301-1.593,0.795-2.236c0.323-1.692,0.665-2.659,1.007-2.891l3.424-7.705
		c-0.04-0.477,0.691-0.842,2.196-1.098h0.483v0.443c1.471-0.222,2.397-0.353,2.75-0.383c2.72-0.232,4.139,0.322,4.25,1.642h0.312
		l-0.07-0.775l0.413-0.142c0.675,0.278,1.162,0.882,1.289,1.601c-0.031,0.6-0.278,1.169-0.694,1.602
		c-0.202,0-0.333-0.131-0.343-0.433h-0.343l-0.07,0.936c-1.376,2.062-2.384,3.123-3.021,3.183c-0.564,0.776-0.907,1.168-1.007,1.168
		L33.476,294.654z M35.581,300.053c-0.193-0.154-0.429-0.246-0.675-0.262v-0.464h0.312l0.685,0.403
		c0.039,0.145-0.046,0.294-0.191,0.333c-0.029,0.008-0.061,0.011-0.091,0.009L35.581,300.053z M37.716,302.641
		c0.302,0.121,0.484,0.251,0.514,0.373h-0.151l0,0h-0.091l-0.221,0.181L37.716,302.641z M37.927,303.94v-0.121l0.393-0.091v0.121
		L37.927,303.94z M38.874,304.998c0.403-0.071,0.604-0.091,1.35-0.262v0.121l-1.43,0.332c0.003-0.063,0.003-0.127,0-0.191H38.874z
		 M40.264,305.592c-0.483,0.01-0.963,0.078-1.43,0.201v-0.121l1.188-0.383l0.574-0.131l0.061,0.221
		c-0.252,0.061-0.071,0.061-0.363,0.212H40.264z M41.533,305.29c-0.14,0.037-0.283-0.046-0.32-0.186
		c-0.001-0.002-0.001-0.003-0.002-0.006l0.362-0.08c0.114-0.045,0.243,0.011,0.287,0.125c0.009,0.021,0.014,0.043,0.016,0.066
		L41.533,305.29z M44.968,301.594v-0.121l0.594-0.141l0.061,0.221h-0.625L44.968,301.594z M48.634,324.094
		c0.025-0.123,0.025-0.25,0-0.373h0.131c0.107-0.045,0.231,0.005,0.277,0.113c0.008,0.019,0.013,0.039,0.015,0.059v0.121
		l-0.483,0.111L48.634,324.094z M51.212,302.551H50.95c-0.347,0.144-0.703,0.262-1.067,0.353l-0.242,0.06
		c-0.127,0.043-0.264-0.025-0.307-0.151c-0.002-0.006-0.004-0.013-0.006-0.02l1.722-0.393l0.564-0.262l0.191,0.211
		c-0.212,0.03-0.413,0.113-0.584,0.242L51.212,302.551z M52.531,302.127v-0.121c0.125-0.04,0.236-0.113,0.323-0.212l1.218-0.282
		v0.121c-0.526,0.117-1.042,0.279-1.541,0.483V302.127z M52.723,299.62c-0.127,0.046-0.244,0.119-0.343,0.211
		c0-0.081-0.191-0.081-0.503,0c-0.061-0.231,0.846-0.564,2.709-1.007l0.262-0.06l0.061,0.222c-1.31,0.382-2.015,0.604-2.186,0.624
		V299.62z M56.006,296.075c-0.162,1.531-0.655,2.367-1.592,2.538v-0.121l-0.826,0.322l-0.362,0.081
		c-0.165,0.046-0.339,0.046-0.503,0l-0.111-0.282c1.092-1.721,2.29-3.372,3.585-4.946h0.282c0.037,0.83-0.129,1.656-0.483,2.408
		H56.006z M61.818,291.099h-0.111v-0.232h0.484v0.121c-0.127,0.035-0.249,0.086-0.363,0.151L61.818,291.099z M59.42,315.17
		c-0.233-0.122-0.493-0.181-0.755-0.171v-0.353c0-0.121,0.074-0.205,0.221-0.252c0.162,0,0.252,0.091,0.272,0.343
		c0.191-0.286,0.418-0.546,0.675-0.775l0.251,0.101c-0.09,0.715-0.312,1.088-0.645,1.118L59.42,315.17z M85.053,288.329
		c-0.121,0-0.353-0.362-0.725-1.128v-0.232c0.231,0,0.483,0.343,0.725,1.098V288.329z M84.71,285.65l-0.11,0.242l-3.475-1.45
		C83.441,284.512,84.64,284.925,84.71,285.65z M70.016,298.28h-0.483v-0.232h0.483v0.222V298.28z M69.613,290.686h0.131v0.353
		c-0.122,0-0.272,0.168-0.454,0.503v-0.231c0.17-0.168,0.28-0.388,0.312-0.625H69.613z M68.606,293.124v0.463h-0.131v-0.463H68.606z
		 M68.052,294h0.242c0,0.396-0.104,0.604-0.312,0.624H67.85c0.12-0.184,0.189-0.396,0.202-0.614V294z M67.659,295.198h0.111v0.121
		l-0.212,0.373h-0.241v-0.101c0.252,0,0.362-0.151,0.342-0.383V295.198z M67.267,296.286l-0.081,0.604h-0.11v-0.594h0.242
		L67.267,296.286z M63.237,307.667c-0.161,0.786-0.329,1.188-0.503,1.208v-0.101c-0.017-0.431,0.175-0.843,0.514-1.108H63.237z
		 M62.492,309.248v0.101c0.034,0.112-0.029,0.229-0.141,0.264c-0.026,0.008-0.053,0.01-0.081,0.008V309.5
		C62.271,309.379,62.345,309.295,62.492,309.248L62.492,309.248z M62.281,312.552h0.373v0.121c-0.129,0.024-0.252,0.072-0.363,0.141
		h-0.242c0-0.134,0.074-0.218,0.221-0.252L62.281,312.552z M72.815,309.298c-1.289,0.572-2.52,1.267-3.676,2.075
		c-2.256,0.786-3.364,1.279-3.354,1.47c-1.333,0.506-2.635,1.091-3.897,1.753c-0.226-0.01-0.447-0.072-0.645-0.182
		c-0.045-0.416,0.171-0.816,0.544-1.007c0.343-0.033,0.689,0.02,1.007,0.151c0.627-0.269,1.277-0.478,1.944-0.625v-0.232
		l-0.766,0.061c0.676-0.419,1.4-0.758,2.156-1.007h0.373v0.1c-0.635,0.061-1.007,0.242-1.068,0.584
		c-0.003,0.117,0.089,0.214,0.206,0.217c0.019,0.001,0.038-0.001,0.057-0.006c0.474-0.312,0.695-0.483,0.695-0.544
		c0.899-0.161,3.397-1.471,7.493-3.928v0.231c0,0.101-0.342,0.403-1.007,0.917L72.815,309.298z M66.531,311.313
		c0.586-0.046,1.139-0.295,1.561-0.706c0.114-0.028,0.229,0.042,0.256,0.155c0.004,0.018,0.007,0.037,0.005,0.056
		c-0.59,0.152-1.154,0.393-1.671,0.715h-0.131v-0.221H66.531z M76.693,303.578l-3.122,2.518c-1.208,0.864-2.477,1.638-3.797,2.316
		c-3.713,2.015-6.026,3.075-6.939,3.183h-0.131c0.115-0.423,1.776-3.814,4.986-10.172c2.295-0.387,4.532-1.063,6.657-2.014
		l0.755-0.07c1.218-0.217,2.469,0.111,3.425,0.896v0.463c-0.575,1.612-1.189,2.558-1.864,2.85L76.693,303.578z M70.56,300.124h0.483
		v0.121H70.56V300.124z M77.66,298.915h0.373c0.343,0.17,0.524,0.322,0.534,0.443v0.101c-0.377,0.014-0.731-0.184-0.916-0.514
		L77.66,298.915z M78.667,293.204c-0.812,0.774-1.71,1.45-2.679,2.015c-1.857,0.551-3.666,1.251-5.409,2.094
		c-0.158-0.057-0.326-0.081-0.493-0.07v-0.232c0.016-0.615,0.224-1.21,0.594-1.702c0.242-1.299,0.514-2.014,0.795-2.186l2.619-5.852
		c0-0.342,0.523-0.624,1.651-0.846h0.373v0.353c1.107-0.182,1.802-0.286,2.084-0.312c2.014-0.181,3.143,0.232,3.233,1.249h0.242
		v-0.564h0.242c0.524,0.189,0.907,0.642,1.007,1.189c-0.051,0.462-0.265,0.891-0.604,1.208c-0.161,0-0.251-0.09-0.271-0.343H81.81
		l-0.07,0.706c-1.008,1.581-1.803,2.407-2.277,2.437c-0.423,0.574-0.685,0.867-0.805,0.876L78.667,293.204z M79.765,297.112v-0.353
		h0.242l0.524,0.322c0.017,0.121-0.068,0.233-0.189,0.25c-0.011,0.001-0.021,0.002-0.032,0.001
		c-0.149-0.113-0.327-0.183-0.513-0.201L79.765,297.112z M36.064,319.894l-0.242,0.061l-0.212,0.181
		c0.013,0.116,0.118,0.199,0.234,0.187c0.02-0.002,0.04-0.007,0.059-0.015c0.161,0,0.222-0.131,0.191-0.282v-0.121L36.064,319.894z
		 M35.138,318.041v0.121c0.161,0,0.222-0.131,0.191-0.281v-0.121c-0.121,0.012-0.21,0.121-0.199,0.242
		C35.131,318.014,35.134,318.027,35.138,318.041z M41.745,302.329l0.282-0.071l-0.061-0.242l-0.282,0.07L41.745,302.329z
		 M126.901,309.48c-1.241,0.345-2.52,0.538-3.808,0.574v0.231h0.262h0.141l0,0l0.312-0.121c2.82-0.312,3.152-0.201,3.123-0.514
		v-0.111L126.901,309.48z M111.542,311.494v0.231l0,0V311.494z M109.779,305.31l-0.252-0.081c-0.142,0.322-0.243,0.66-0.302,1.007
		v0.101c0.202,0,0.373-0.342,0.544-1.007L109.779,305.31z M127.485,309.409v0.232l0.413,0.07v-0.231L127.485,309.409z
		 M108.057,311.807l-0.635-0.071l-0.11,0.242v0.121l3.797-0.322v-0.232l-3.021,0.262H108.057z M106.334,303.487v-0.121h-0.131
		l-0.231,0.151l0.131,0.221c0.181,0,0.261-0.1,0.242-0.262L106.334,303.487z M129.277,307.677h0.181c0.101,0,0.151-0.09,0.142-0.242
		l-0.101-0.221c-0.514-0.003-1.02,0.125-1.47,0.373v-0.111l-0.775,0.07c0-0.231-0.081-0.353-0.191-0.342h-0.403
		c-0.473,0-0.694,0-0.926,0.201c0-0.081,0-0.121-0.081-0.121h-0.453l-0.262,0.151c0-0.081,0-0.121-0.081-0.121l-0.161,0.141v-0.122
		h-0.625h-0.151v0.232l0.322,0.081h0.302c0.104,0.06,0.224,0.085,0.342,0.07l0.262-0.131v0.09c-0.814,0.212-1.642,0.37-2.478,0.474
		c-0.07-0.061-0.159-0.096-0.251-0.101l0,0c-0.112-0.006-0.197-0.1-0.191-0.211v-0.001l0.523-0.07
		c0.116,0.037,0.234,0.067,0.353,0.09c0.423-0.211,0.443-0.292,0.665-0.312v-0.231c-0.883,0.163-1.78,0.247-2.679,0.251h-0.081
		v-0.232c2.326-0.281,1.551-0.12,2.347-0.342c0,0.08,0,0.121,0.081,0.121c0.086-0.088,0.2-0.146,0.322-0.161h0.161
		c0.913,0.028,1.824-0.091,2.699-0.353v0.101l0.262-0.131h0.242c0-0.232,0.342-0.272,0.463-0.282v-0.252
		c-2.83,0.574-3.576,0.413-4.361,0.635v-0.101c-0.329,0.076-0.669,0.104-1.007,0.08c-0.09,0.027-0.17,0.08-0.231,0.151
		c0-0.081,0-0.121-0.09-0.121l0,0l-2.407,0.393c0-0.07,0-0.1-0.091-0.09c-0.84,0.246-1.705,0.402-2.578,0.464
		c-0.113,0.02-0.219,0.064-0.313,0.13c0-0.07,0-0.101-0.131-0.091l-1.007,0.081l-0.685,0.171c0-0.07,0-0.101-0.131-0.09
		c-0.329,0.095-0.667,0.159-1.007,0.191l0,0c-0.171,0,0.081,0,0-0.101l-0.212,0.121c-0.302,0-0.141,0-1.168,0
		c-1.813,0.222-1.612,0.252-1.813,0.262h-0.675c0.012,0.049-0.019,0.098-0.067,0.109c-0.011,0.003-0.022,0.003-0.034,0.001
		c-0.765-0.1-1.168-0.221-1.168-0.362c0.101-0.731,0.278-1.108,0.534-1.128h0.131l-0.111,0.242h0.131
		c0.242-0.131,0.353-0.251,0.343-0.362v-0.252h-0.242v-0.231c-0.022-0.162,0.001-0.326,0.07-0.474l0.554-0.896v0.232h0.262v-0.232
		l-0.151-0.211c0.129-0.133,0.293-0.227,0.473-0.272v-0.121h-0.353v-0.353c0.454-0.812,0.792-1.683,1.007-2.588l0.252,0.1
		c0.161,0,0.231-0.1,0.221-0.271h-0.242v-0.101c-0.018-0.17,0.014-0.341,0.091-0.494c0.348-0.311,0.54-0.761,0.523-1.229
		c0.071,0,0.111,0,0.121,0.111c0.333-0.192,0.584-0.686,0.765-1.511c0.909-2.032,1.673-4.125,2.287-6.265
		c2.014-5.56,2.014-6.144,2.266-7.463h-0.242c0.019,0.167-0.013,0.334-0.09,0.483c-0.124-0.056-0.257-0.087-0.393-0.09v-0.101
		c0.011-0.625,0.226-1.231,0.614-1.722h0.051l0.211,0.805h0.242c0.04-0.34,0.104-0.676,0.191-1.007c0-0.121-0.101-0.201-0.292-0.211
		l-0.232,0.151c0-0.171,0-0.614,0-1.31h-0.121c-0.163-0.129-0.276-0.311-0.322-0.514l-1.339,0.131
		c-0.026-0.146-0.077-0.285-0.151-0.413c0-0.121,0.292-0.242,0.906-0.362l0.272,0.101l0.251-0.15c0,0.08,0.061,0.121,0.151,0.111
		l0.252-0.151c0,0.08,0.06,0.121,0.151,0.111h0.121v-0.272c-0.191,0-0.685,0-1.47,0l-0.252,0.171v-0.181
		c-6.298,0.517-9.873,0.816-10.727,0.896c-0.11,0-0.554,0-1.329,0c0,0.101-0.081,0.161-0.272,0.181l-0.272-0.121l-0.917,0.231
		c-0.361,0.032-0.726,0.032-1.087,0c-0.147,0.117-0.327,0.187-0.514,0.201l2.689-0.171c-0.194,0.131-0.421,0.205-0.655,0.211
		c-0.183,0.025-0.369-0.007-0.534-0.091c-0.66,0.204-1.333,0.362-2.014,0.474l-0.272-0.101l-4.391,0.675
		c-0.186-0.085-0.391-0.117-0.594-0.091c-0.396,0.052-0.787,0.136-1.168,0.251l-2.125,0.887l0.161,0.262
		c0.154-0.027,0.302-0.086,0.433-0.171l0.755,0.07l-0.091,0.706c-0.606,0.215-1.061,0.723-1.208,1.349
		c-1.007,0.463-1.561,0.786-1.561,1.007v0.121h0.161l0.282-0.151l0.333,0.393v0.544c0,0.167-1.75,3.861-5.248,11.079
		c-3.021,6.95-4.633,10.747-4.784,11.432c-1.007,0.292-1.642,0.715-1.823,1.279c0,0.181,0.332,0.301,0.926,0.342v0.272l-0.272,0.453
		v0.544c0,0.282,0.759,0.497,2.276,0.645c0-0.091,0-0.151,0.141-0.162c-0.01,0.681-0.105,1.357-0.282,2.014h0.161
		c0.533-0.52,0.886-1.198,1.007-1.934h0.131c0.151,0,0.312,0.161,0.494,0.524c-0.188,0.074-0.859,1.568-2.015,4.482l0.162,0.262
		h0.221c1.376-3.491,2.243-5.421,2.599-5.791c1.813-0.161,4.945-0.497,9.396-1.007l0.282-0.171
		c-0.003,0.072,0.052,0.133,0.125,0.137c0.016,0,0.032-0.001,0.047-0.007h0.292l0.282-0.171c-0.003,0.072,0.053,0.134,0.125,0.137
		c0.016,0.001,0.032-0.001,0.047-0.006l3.374-0.292c0.896-0.07,1.309-0.343,1.279-0.806c0-0.121,0.513-0.262,1.581-0.413
		c0.158-0.001,0.315,0.026,0.463,0.081c0-0.081,0.523-0.171,1.591-0.262c0-0.564,0.212-0.866,0.524-0.896v-0.272
		c-0.344,0.04-0.681,0.117-1.007,0.232c-0.451-0.006-0.9-0.06-1.339-0.161c-0.132,0.084-0.279,0.142-0.433,0.171l-2.347,0.07
		l-0.282,0.151c0-0.087-0.057-0.124-0.171-0.111h-0.131l-0.302,0.151c0-0.081-0.251-0.151-0.745-0.211l-0.302,0.181h-0.584v-0.151
		c3.021-0.329,4.512-0.739,4.472-1.229c0.141-0.034,0.282,0.053,0.316,0.193c0.006,0.026,0.008,0.052,0.007,0.078l0.886-0.221
		v-0.272l-7.231,0.201c0,0.091,0,0.151-0.141,0.161l-0.886-0.07c-0.204,0.012-0.399,0.082-0.564,0.201l-0.332-0.121
		c-0.681,0.042-1.356,0.154-2.014,0.333c-0.671-0.053-1.344-0.053-2.015,0l-1.622,0.141l-0.755-0.081c0-0.483,0.896-2.83,2.81-7.051
		c0.283-1.003,0.817-1.918,1.551-2.659c0.161,0.002,0.319,0.041,0.463,0.111l1.158-0.393l0.595,0.09
		c1.191-0.13,2.359-0.418,3.474-0.856c0.254-0.036,0.513-0.012,0.756,0.07l0.887-0.211l2.628-0.222
		c1.238-0.117,2.46-0.368,3.646-0.746v-0.272c-0.483,0-0.745,0-0.755-0.231c0-0.363-0.383-0.514-1.068-0.463v-0.272l0.725-0.211
		l1.894-0.161v-0.272c-0.07,0-0.463,0-1.168,0v-0.292l0.735-0.07c0.201,0,0.282-0.111,0.262-0.302c-1.007,0-1.48,0-1.49-0.151
		c-6.869,0.336-10.314,0.4-10.334,0.191c-0.155,0.034-0.303,0.099-0.433,0.192l-0.181-0.282c1.82-3.868,2.887-5.815,3.203-5.842
		c-0.019,0.257-0.099,0.505-0.232,0.726v0.121h0.292c0.726-1.723,1.33-2.619,1.843-2.659c2.155-0.191-0.302-0.333,4.32-1.008
		c0.127,0.07,0.269,0.107,0.414,0.111c1.812-0.363,4.337-0.745,7.574-1.148v-0.272l-1.722,0.161v-0.272
		c0.188-0.014,0.366-0.084,0.513-0.202v0.151c0.144-0.035,0.277-0.1,0.393-0.192c0.231-0.039,0.469-0.011,0.685,0.081
		c0.473-0.132,0.954-0.23,1.44-0.292l1.078-0.101c0.262-0.17,0.382-0.322,0.373-0.463v-0.121c-0.317,0.024-0.636,0.003-0.947-0.061
		c-0.017-0.149,0.089-0.284,0.239-0.302c0.001,0,0.002,0,0.003,0l2.014-0.191l0.917-0.231c0,0.101,0.06,0.141,0.131,0.141
		c0.144-0.034,0.278-0.099,0.393-0.191h0.151c-0.163,0.355-0.297,0.722-0.403,1.098h-0.262c-0.014-0.17-0.066-0.335-0.151-0.484
		h-0.131c-2.437,6.798-3.525,9.961-5.781,15.178c-0.413,1.33-0.756,2.075-1.058,2.236c-0.003,0.117,0.089,0.214,0.206,0.217
		c0.019,0,0.038-0.001,0.057-0.006c0.052,0.681-0.11,1.36-0.463,1.944c-1.007,3.021-1.732,4.643-2.095,4.945l0.232,1.42
		c0.017,0.122-0.068,0.233-0.189,0.25c-0.01,0.002-0.021,0.003-0.032,0.002h-0.242c0-0.393-0.182-0.584-0.433-0.554h-0.131
		c-0.338,0.533-0.583,1.119-0.725,1.733h0.242c0.286-0.142,0.463-0.437,0.454-0.756h0.483l0.281,0.101
		c-0.189,0.246-0.298,0.545-0.312,0.856l0.131,0.222l-0.322,0.755v0.121c0.326-0.013,0.647,0.079,0.917,0.262
		c0.27-0.037,0.526-0.141,0.746-0.302c0.281,0,1.329,0,3.142,0l0.907-0.312c0.649,0.002,1.297-0.024,1.943-0.081h0.393l0.212-0.141
		v0.121c0.635-0.093,1.28-0.086,1.914,0.02v0.121h-0.554v0.231c0.162-0.01,0.316-0.07,0.443-0.171c0.141,0,0.222,0.07,0.231,0.231
		c-0.257,0.027-0.511,0.085-0.755,0.171l-0.242-0.081c-0.383,0.101-0.302,0.131-0.564,0.151l-0.383-0.07
		c0.011,0.049-0.02,0.097-0.068,0.108c-0.007,0.002-0.015,0.002-0.022,0.002c-0.007,0.111,0.077,0.207,0.189,0.214
		c0.014,0,0.028,0,0.042-0.002h0.393l2.014-0.181l0.775-0.171c0,0.071,0,0.101,0.101,0.091l0.373-0.142l0.705-0.06
		c0.544,0,0.534-0.081,1.712-0.272c0-0.07,0-0.101,0.071-0.111v0.101c0.795-0.096,1.583-0.248,2.356-0.454v0.061
		c0.484-0.111,0.211-0.081,0.342-0.182c0,0.081,0,0.121,0.081,0.121h0.342v-0.252h-0.685l0,0h-0.07h-0.091l0,0
		c-0.252,0.047-0.509,0.068-0.765,0.061l-1.723,0.091v-0.121l1.007-0.131h0.343l0.201-0.142v0.121
		c1.35-0.111,1.833,0.222,8.057-1.108c0.343,0,0.312-0.312,0.523-0.896c-0.115,0.01-0.23-0.015-0.332-0.07
		c-0.585,0.142-1.182,0.229-1.783,0.262c-0.081,0-0.151-0.07-0.181-0.211v-0.101h1.007c0.357-0.038,0.701-0.155,1.007-0.342
		c0,0.081-0.191,0.131-0.07,0.121L129.277,307.677z M83.039,308.453h-0.443c0.147-0.699,0.384-1.376,0.705-2.014h0.292
		C83.5,307.131,83.314,307.809,83.039,308.453L83.039,308.453z M83.572,306.317v-0.121c0-0.151,0.081-0.251,0.292-0.302v0.121
		C83.865,306.196,83.784,306.297,83.572,306.317z M89.434,310.85v0.121l-0.735,0.07v-0.121L89.434,310.85z M88.548,310.779
		c0,0.151-0.212,0.322-0.705,0.483l-0.896-0.071h-0.292v-0.272l1.923-0.181L88.548,310.779z M94.52,283.505h-0.403v-0.151
		c0-0.151,0.071-0.251,0.262-0.302h0.162l0.302,0.121c0.022,0.143-0.075,0.277-0.218,0.299c-0.018,0.003-0.036,0.004-0.054,0.003
		L94.52,283.505z M101.228,282.196h0.141v0.271h-0.403c-0.018-0.149,0.089-0.284,0.238-0.301c0.001,0,0.002,0,0.003,0
		L101.228,282.196z M99.536,282.79l-0.665-0.07v-0.221c0.579-0.039,1.15-0.147,1.702-0.323c0,0.101,0.101,0.141,0.272,0.121v0.272
		h-0.262c-0.183,0.025-0.369-0.007-0.534-0.091c-0.153,0.104-0.33,0.17-0.514,0.192V282.79z M100.372,285.217v-0.12l1.078-0.101
		v0.121L100.372,285.217z M101.53,284.28v-0.151h0.524v0.151H101.53z M101.651,282.438h-0.141l0.121-0.292l1.199-0.111v0.151
		c-0.403,0.047-0.8,0.128-1.189,0.242L101.651,282.438z M102.266,285.025v-0.271h0.523c0.181,0,0.275,0.084,0.282,0.252l-0.786,0.07
		L102.266,285.025z M105.448,280.695l-0.675,0.191h-0.121c-0.406,0.036-0.813,0.036-1.219,0c0.876-0.061,1.712-0.121,2.015-0.171
		V280.695z M104.723,283.717v0.121l-0.926,0.081v-0.121L104.723,283.717z M106.244,284.442c0-0.111-0.191-0.191-0.554-0.222
		l-0.927,0.262h-0.715c-0.162-0.11-0.242-0.191-0.252-0.242h0.826l1.854-0.302h0.946v0.151c-0.404,0.036-0.803,0.116-1.188,0.242
		L106.244,284.442z M115.802,281.974h0.211c0.322-0.32,0.701-0.576,1.118-0.756c-0.207,1.225-0.755,2.367-1.581,3.294l-0.524-0.322
		c0.309-0.727,0.568-1.474,0.775-2.236V281.974z M114.19,284.744h0.131c-0.182,0.342-0.342,0.513-0.473,0.523v-0.352
		c0.132-0.022,0.257-0.078,0.362-0.161L114.19,284.744z M113.183,287.231c0.081-0.633,0.331-1.231,0.725-1.732v0.02
		c-0.131,0.937-0.342,1.44-0.614,1.471v0.594c-0.185,0.211-0.297,0.476-0.322,0.755h-0.131l-0.071-0.815
		c0.151,0,0.272-0.151,0.353-0.393L113.183,287.231z M112.78,288.581c-0.039,0.348-0.13,0.688-0.272,1.007h-0.131v-0.353
		c0.181-0.413,0.333-0.625,0.433-0.625L112.78,288.581z M105.196,310.497v-0.101h0.242v0.353c-0.131,0-0.222-0.071-0.262-0.232
		L105.196,310.497z M116.013,310.779c0-0.081,0-0.122-0.131-0.111l-0.614,0.03v-0.101l0,0l1.44-0.121v0.121
		c-0.265-0.02-0.528,0.043-0.755,0.182H116.013z M115.288,310.477c0.06,0,0,0.061,0,0.07
		C115.288,310.558,115.217,310.547,115.288,310.477z M115.359,308.785l-0.806,0.07v-0.171h0.715l0.634-0.161
		c0,0.07,0,0.101,0.131,0.091c0.755-0.131,0.685-0.171,1.007-0.202c0.121,0,0.202,0.071,0.211,0.211l-1.944,0.171L115.359,308.785z
		 M118.179,308.543c-0.262-0.054-0.529-0.074-0.796-0.061v-0.101l0.726-0.07v0.101c-0.071,0,0.201,0,0.07,0.121V308.543z
		 M118.239,308.412v-0.101h0.393v0.101H118.239z M119.116,308.342v-0.101c0.104-0.027,0.201-0.079,0.281-0.151
		c0.155-0.022,0.298,0.084,0.32,0.238c0.001,0.008,0.002,0.016,0.002,0.023L119.116,308.342z M120.233,308.201v-0.121h0.483v0.121
		H120.233z M120.898,308.14c0-0.141,0-0.222,0.171-0.242l0.161,0.211c-0.011-0.048,0.018-0.098,0.066-0.11c0.001,0,0.003,0,0.004,0
		l0.121,0.221l-0.524-0.07V308.14z M113.848,311.162v-0.232h-0.071v0.232H113.848z M130.335,306.891c0.07,0,0.111-0.09-0.071-0.12
		c-0.181-0.031,0.09,0.12-0.091,0.13v0.081l0.101-0.07l-0.101,0.081l0,0l-0.201,0.251l0.393-0.141l0,0v-0.232L130.335,306.891z
		 M131.02,307.425h-0.07v0.231h0.554c0-0.151-0.373-0.201-0.494-0.201L131.02,307.425z M130.164,307.012L130.164,307.012
		L130.164,307.012z"/>
	<path d="M94.117,289.679v0.151h0.312c0.003-0.148,0.034-0.296,0.09-0.433v-0.272c-0.131,0-0.262,0.212-0.383,0.584L94.117,289.679z
		 M91.096,282.498v-0.272h-0.443v0.272H91.096z M82.515,298.613c-0.648-1.11-1.445-2.127-2.367-3.022
		c0-0.322,0.503-0.795,1.602-1.43l3.143-2.599c0.829-1.294,1.26-2.803,1.238-4.34v-0.463c-0.121-1.39-1.128-2.508-3.021-3.364
		c-1.128-0.758-3.143-1.178-6.042-1.259c-3.264,0.427-6.453,1.301-9.478,2.599c-1.175,0.835-2.396,1.606-3.656,2.306v0.231
		c0.131-0.025,0.255-0.081,0.363-0.161c0.113-0.028,0.228,0.042,0.255,0.155c0.005,0.019,0.007,0.038,0.006,0.056l0.231-0.121h0.111
		v0.101c-0.758,0.776-1.61,1.453-2.538,2.015l0.131,0.242h-0.111l-0.282-0.101c0,0.081-0.11,0.141-0.342,0.161v0.101l0.271,0.342
		c-0.135-0.003-0.269-0.034-0.393-0.091c-0.454,0.063-0.869,0.289-1.168,0.635l0.161-0.695c0.517-2.157,0.908-4.343,1.168-6.547
		v-0.121c-0.435-0.288-0.819-0.646-1.138-1.058c0.01-0.164,0.01-0.329,0-0.494v-0.101h-0.111c-1.243,1.86-3.629,5.032-7.161,9.518
		c-2.686,3.189-4.076,4.961-4.17,5.318c-1.098,1.138-1.622,1.823-1.571,2.014c-0.292,0.191-0.413,0.373-0.363,0.584
		c-0.062,0.023-0.132-0.008-0.156-0.071c-0.002-0.006-0.004-0.013-0.005-0.02c-0.465,0.757-1.224,1.287-2.095,1.46l-1.007,0.222
		c-0.127,0.019-0.214,0.137-0.195,0.263c0.001,0.006,0.002,0.013,0.004,0.019v0.121l0.363-0.081v0.101l-0.826,0.322l-1.46,0.343
		H41.14c-0.11,0.111,0.615,0,0.333,0.061l-1.007,0.221c-0.583,0.131-0.896,0.081-1.007-0.151h-0.111c0.018,0.08,0.018,0.162,0,0.242
		l-0.061-0.231l-0.766,0.181c-0.053-0.356-1.091-1.652-3.112-3.888c0-0.433,0.675-1.058,2.135-1.874l4.2-3.555
		c0.92-1.182,1.467-3.079,1.642-5.691l-0.061-0.614c-0.161-1.843-1.49-3.323-4.028-4.472c-1.48-1.007-4.15-1.541-7.997-1.621
		c-4.283,0.567-8.47,1.709-12.448,3.394c-1.543,1.103-3.151,2.111-4.814,3.021v0.323c0.173-0.029,0.337-0.095,0.483-0.191
		c0.145-0.039,0.294,0.047,0.333,0.192c0.006,0.022,0.01,0.046,0.01,0.07l0.322-0.181h0.162v0.151
		c-1.019,0.997-2.147,1.876-3.364,2.618l0.181,0.282h-0.141l-0.343-0.121c0,0.091-0.151,0.161-0.483,0.191v0.171l0.373,0.413
		c-0.172-0.001-0.344-0.036-0.503-0.101c-0.911,0.189-1.695,0.767-2.145,1.582l0.181,0.282c0.314-0.335,0.677-0.621,1.077-0.846
		v0.463c-0.17,0.036-0.334,0.101-0.483,0.191l0.383,0.584c0.728-0.771,1.551-1.448,2.447-2.015c0.443,0.111,0.674,0.252,0.685,0.403
		h0.343c2.179-1.664,4.605-2.976,7.191-3.888v0.322c-0.443,0.672-0.742,1.007-0.896,1.007c0.011,0.218,0.092,0.427,0.232,0.594
		c0.04,0.403-1.037,3.122-3.233,8.158c-4.888,11.649-9.037,20.274-12.448,25.874c0.032,0.165,0.101,0.32,0.201,0.453
		c0.563-0.092,1.101-0.297,1.581-0.604h0.182v0.322h0.312l0.322-0.181c0,0.091,0.111,0.142,0.332,0.121v0.322
		c-0.042,0.516-0.222,1.01-0.523,1.431c-0.505,0.734-0.874,1.553-1.088,2.417v0.151h0.312c1.226-1.332,2.264-2.827,3.082-4.442
		c3.126-0.834,6.162-1.974,9.064-3.404c1.722-0.047,3.387-0.621,4.774-1.642v-0.171l-0.786,0.232h-0.181v-0.171
		c1.129-0.077,2.224-0.422,3.193-1.007c2.995-2.31,5.258-3.945,6.788-4.905c3.143-2.31,5.184-4.559,6.124-6.749l0.523-0.121
		c0.251,0.014,0.503,0.014,0.755,0c0-0.081,0-0.131,0.101-0.151c0.705-0.071,0.362,0,0.815-0.061l1.148-0.443h0.202l-0.091,0.061
		c0.143,0.027,0.291,0.027,0.433,0l0.081,0.342l-5.349,8.511l-1.188,1.49l-0.584,1.954h0.111l0.584-0.242l-0.192,0.756l0.061,0.221
		l0.162,0.202c-0.071,0-0.101,0.07-0.081,0.151v0.12l0.242-0.061c0.356-0.308,0.506-0.59,0.453-0.846
		c0.25,0.064,0.508,0.085,0.766,0.061v0.12c-0.232,0.061-0.353,0.242-0.373,0.564v0.121H36.8c1.954-2.135,6.738-9.417,10.575-14.373
		c-0.121-0.537,1.894-1.282,6.043-2.235h0.131c0.148,0.671-0.188,2.239-1.007,4.703c-0.297,0.779-0.516,1.585-0.655,2.407
		c-0.405,1.051-0.715,2.137-0.926,3.243l-1.471,4.815c-0.963,2.516-1.69,5.115-2.176,7.765c0.133-0.027,0.27-0.027,0.403,0
		l0.211-0.182c0.013,0.066,0.076,0.109,0.142,0.096c0.007-0.001,0.014-0.003,0.02-0.005l-0.081-0.343h0.634
		c0.191,0,0.343-0.282,0.483-0.715c0-0.645,0.101-1.007,0.393-1.068c0.149-0.804,0.392-1.589,0.725-2.336
		c0.155-0.906,0.429-1.786,0.816-2.619c0.554-2.014,1.007-3.021,1.218-3.082l0.061,0.242l-0.402,1.007
		c-0.523,2.525-1.237,5.006-2.136,7.423l0.212,0.896h0.131c1.746-3.753,4.257-11.186,7.533-22.298
		c0.074-0.938,0.595-1.781,1.4-2.267l-0.191-0.201v-0.101c0.307-0.047,0.587-0.205,0.786-0.443c0-0.081-0.342-0.212-1.007-0.373
		l1.632-7.05c0.18-0.195,0.391-0.358,0.625-0.484v0.353c-0.132,0.025-0.256,0.08-0.363,0.161l0.322,0.443
		c0.548-0.599,1.167-1.13,1.843-1.581c0.342,0.091,0.503,0.212,0.523,0.322h0.242c1.653-1.251,3.491-2.237,5.449-2.921v0.232
		c-0.329,0.497-0.554,0.749-0.675,0.755c0.013,0.162,0.065,0.317,0.151,0.454c-0.647,2.128-1.458,4.202-2.427,6.204
		c-2.73,6.765-5.896,13.345-9.478,19.701c0.031,0.125,0.09,0.242,0.171,0.342c0.421-0.069,0.823-0.227,1.178-0.463h0.111v0.232
		h0.262l0.231-0.121c0,0.067,0.084,0.094,0.252,0.081v0.251c-0.035,0.386-0.174,0.755-0.403,1.067
		c-0.399,0.551-0.69,1.173-0.856,1.833v0.121h0.242c0.931-1.011,1.718-2.146,2.336-3.374c2.377-0.649,4.684-1.53,6.889-2.628
		c1.314-0.034,2.587-0.47,3.646-1.249v-0.121l-0.614,0.182h-0.111v-0.121c0.856-0.062,1.685-0.329,2.417-0.775
		c2.267-1.742,4.029-3.021,5.157-3.727C81.024,303.648,82.716,301.09,82.515,298.613z M81.89,298.773l0.081,0.947
		c-0.11,0.232-0.231,0.353-0.342,0.363l-0.141-1.612C81.75,298.562,81.88,298.663,81.89,298.773L81.89,298.773z M10.834,291.18
		h-0.161v-0.292l0.644-0.06v0.151c-0.169,0.03-0.331,0.096-0.473,0.191L10.834,291.18z M7.672,322.785
		c-0.312-0.157-0.659-0.229-1.007-0.212v-0.463c0-0.182,0.081-0.302,0.312-0.343c0.231-0.04,0.333,0.131,0.343,0.433
		c0.265-0.364,0.564-0.701,0.896-1.007l0.342,0.142c-0.111,0.936-0.403,1.42-0.866,1.45H7.672z M41.463,287.433
		c-0.162,0-0.483-0.483-0.937-1.46v-0.292c0.302,0,0.614,0.463,0.937,1.46V287.433z M41.009,283.928l-0.131,0.312l-4.593-1.913
		C39.348,282.428,40.922,282.961,41.009,283.928L41.009,283.928z M21.602,300.627l-0.645,0.061v-0.292l0.645-0.061V300.627z
		 M21.078,290.636h0.161v0.463c-0.151,0-0.343,0.232-0.594,0.665v-0.322c0.292-0.342,0.443-0.614,0.423-0.796L21.078,290.636z
		 M19.718,293.849l0.061,0.614h-0.161l-0.03-0.634L19.718,293.849z M19.003,294.997h0.312c0,0.503-0.171,0.776-0.423,0.796h-0.161
		c0.163-0.228,0.257-0.497,0.272-0.776V294.997z M18.5,296.598h0.181v0.151l-0.292,0.484h-0.312v-0.151
		c0.222,0.017,0.416-0.149,0.433-0.371c0.003-0.042,0-0.083-0.009-0.123V296.598z M17.976,298.038l-0.09,0.766h-0.162l-0.07-0.755
		h0.322V298.038z M12.708,312.965c-0.211,1.007-0.433,1.581-0.665,1.601v-0.151c-0.034-0.566,0.219-1.111,0.674-1.45H12.708z
		 M11.701,315.06v0.151c0.039,0.145-0.047,0.294-0.192,0.333c-0.029,0.008-0.06,0.01-0.09,0.008v-0.151
		C11.419,315.221,11.513,315.106,11.701,315.06z M11.419,319.4h0.483v0.171c-0.173,0.029-0.337,0.095-0.483,0.191h-0.312
		c0-0.162,0.08-0.282,0.282-0.343L11.419,319.4z M25.308,315.11c-1.706,0.739-3.327,1.661-4.834,2.75
		c-2.934,1.034-4.388,1.668-4.361,1.903c-1.779,0.669-3.519,1.442-5.208,2.316c-0.299-0.004-0.592-0.081-0.856-0.222
		c-0.038-0.539,0.241-1.051,0.715-1.309c0.452-0.035,0.904,0.041,1.319,0.221c0.818-0.366,1.672-0.646,2.548-0.835v-0.323
		l-1.007,0.081c0.885-0.549,1.832-0.992,2.82-1.32h0.483v0.151c-0.836,0.071-1.3,0.323-1.4,0.756c0,0.201,0.131,0.282,0.342,0.262
		c0.625-0.393,0.937-0.625,0.927-0.695c1.188-0.229,4.482-1.951,9.88-5.167v0.292c0,0.141-0.454,0.534-1.38,1.208L25.308,315.11z
		 M17.028,317.829c0.762-0.061,1.477-0.394,2.015-0.937c0.221,0,0.342,0.071,0.353,0.262c-0.787,0.209-1.533,0.55-2.206,1.007
		h-0.162v-0.312V317.829z M30.435,307.576l-4.14,3.284c-1.584,1.124-3.247,2.133-4.975,3.021c-4.901,2.686-7.947,4.085-9.135,4.2
		h-0.181c0.147-0.551,2.33-5.019,6.546-13.405c3.023-0.487,5.972-1.36,8.772-2.599l1.007-0.081c1.604-0.286,3.253,0.136,4.522,1.159
		l0.061,0.615c-0.746,2.145-1.571,3.404-2.458,3.776L30.435,307.576z M22.377,303.024l0.665-0.061v0.151l-0.665,0.061V303.024z
		 M31.673,301.442h0.483c0.454,0.212,0.685,0.403,0.705,0.574v0.151C32.363,302.16,31.908,301.883,31.673,301.442z M32.992,293.909
		c-1.076,1.014-2.265,1.899-3.545,2.639c-0.634,0.061-3.021,1.007-7.12,2.779c-0.205-0.093-0.431-0.131-0.655-0.11v-0.292
		c0.022-0.811,0.3-1.593,0.795-2.236c0.323-1.692,0.665-2.659,1.007-2.891l3.424-7.705c-0.04-0.477,0.691-0.842,2.195-1.098h0.484
		v0.443c1.471-0.222,2.397-0.353,2.75-0.382c2.719-0.232,4.139,0.322,4.25,1.642h0.312l-0.071-0.776h0.343
		c0.675,0.278,1.162,0.882,1.289,1.602c-0.031,0.6-0.278,1.168-0.695,1.601c-0.211,0-0.333-0.131-0.342-0.433h-0.343l-0.07,0.937
		c-1.376,2.062-2.384,3.123-3.021,3.183c-0.564,0.776-0.907,1.168-1.007,1.168L32.992,293.909z M35.098,299.307
		c-0.193-0.154-0.429-0.245-0.675-0.261v-0.464h0.312l0.685,0.403c0.04,0.145-0.046,0.294-0.191,0.333
		c-0.03,0.008-0.061,0.011-0.091,0.008L35.098,299.307z M37.273,301.886c0.302,0.121,0.483,0.252,0.514,0.373h-0.151l0,0h-0.091
		l-0.222,0.182l-0.06-0.625L37.273,301.886z M37.474,303.185v-0.121l0.393-0.09v0.121L37.474,303.185z M38.421,304.243
		c0.403-0.071,0.604-0.091,1.35-0.262v0.121l-1.43,0.333c0.003-0.064,0.003-0.128,0-0.191H38.421z M39.811,304.836
		c-0.483,0.011-0.962,0.079-1.43,0.201v-0.12l1.199-0.383l0.574-0.131l0.061,0.222c-0.262,0.06-0.071,0.06-0.373,0.211H39.811z
		 M41.08,304.534c-0.139,0.038-0.283-0.045-0.32-0.185c0-0.002-0.001-0.004-0.001-0.006l0.362-0.081
		c0.114-0.045,0.243,0.011,0.288,0.125c0.008,0.021,0.013,0.044,0.015,0.066L41.08,304.534z M44.514,300.838v-0.121l0.594-0.141
		l0.061,0.222h-0.624L44.514,300.838z M48.181,323.338c0.025-0.123,0.025-0.25,0-0.373h0.131c0.108-0.045,0.232,0.005,0.277,0.113
		c0.008,0.018,0.013,0.038,0.015,0.058v0.121l-0.483,0.111L48.181,323.338z M50.809,301.795h-0.262
		c-0.347,0.145-0.704,0.262-1.068,0.353l-0.242,0.061c-0.126,0.042-0.264-0.025-0.306-0.151c-0.002-0.007-0.004-0.013-0.006-0.02
		l1.692-0.403l0.564-0.262l0.191,0.212c-0.212,0.029-0.413,0.112-0.584,0.242L50.809,301.795z M52.129,301.372v-0.121
		c0.125-0.039,0.236-0.112,0.322-0.211l1.219-0.282v0.121c-0.526,0.117-1.042,0.279-1.541,0.483V301.372z M52.32,298.904
		c-0.127,0.047-0.244,0.119-0.342,0.212c0-0.081-0.191-0.081-0.503,0c-0.061-0.232,0.846-0.564,2.709-1.007l0.262-0.061l0.061,0.222
		c-1.31,0.382-2.014,0.604-2.186,0.625V298.904z M55.603,295.359c-0.131,1.491-0.655,2.336-1.581,2.548v-0.121l-0.826,0.322
		l-0.362,0.081c-0.165,0.047-0.339,0.047-0.503,0l-0.071-0.333c1.093-1.72,2.291-3.372,3.585-4.945h0.282
		c0.037,0.83-0.129,1.656-0.483,2.407L55.603,295.359z M61.415,290.384h-0.111v-0.231h0.483v0.121
		c-0.126,0.035-0.249,0.086-0.362,0.151L61.415,290.384z M58.998,314.415c-0.232-0.122-0.493-0.181-0.755-0.171v-0.353
		c0-0.121,0.074-0.205,0.221-0.251c0.162,0,0.252,0.09,0.272,0.342c0.191-0.285,0.418-0.546,0.674-0.775l0.252,0.101
		c-0.09,0.715-0.312,1.088-0.644,1.119L58.998,314.415z M84.65,287.534c-0.121,0-0.353-0.363-0.726-1.128v-0.231
		c0.232,0,0.484,0.343,0.726,1.098V287.534z M84.308,284.855l-0.111,0.242l-3.475-1.451
		C83.039,283.717,84.237,284.129,84.308,284.855L84.308,284.855z M69.593,297.535h-0.483v-0.231h0.483V297.535z M69.19,289.94h0.131
		v0.353c-0.121,0-0.272,0.168-0.453,0.504v-0.231c0.17-0.168,0.279-0.388,0.312-0.625H69.19z M68.183,292.378v0.463h-0.131v-0.463
		H68.183z M67.629,293.254h0.242c0,0.396-0.104,0.601-0.312,0.614h-0.131C67.546,293.685,67.616,293.473,67.629,293.254z
		 M67.236,294.453h0.111v0.13l-0.211,0.373h-0.242v-0.121C67.146,294.835,67.256,294.685,67.236,294.453z M66.823,295.591
		l-0.08,0.604h-0.121v-0.594h0.242L66.823,295.591z M62.794,306.972c-0.161,0.786-0.329,1.188-0.503,1.208v-0.101
		c-0.017-0.431,0.174-0.843,0.514-1.108H62.794z M62.049,308.553v0.101c0.034,0.112-0.029,0.23-0.141,0.264
		c-0.026,0.008-0.054,0.011-0.081,0.008v-0.121C61.828,308.684,61.902,308.6,62.049,308.553L62.049,308.553z M61.888,311.816h0.373
		v0.121c-0.128,0.024-0.251,0.072-0.363,0.141h-0.242c0-0.134,0.074-0.218,0.222-0.251L61.888,311.816z M72.423,308.563
		c-1.29,0.572-2.521,1.266-3.676,2.074c-2.256,0.786-3.363,1.279-3.354,1.471c-1.343,0.498-2.655,1.077-3.928,1.732
		c-0.226-0.01-0.446-0.071-0.645-0.181c-0.046-0.417,0.171-0.817,0.544-1.007c0.343-0.032,0.689,0.02,1.007,0.151
		c0.627-0.269,1.277-0.478,1.944-0.625v-0.232l-0.755,0.071c0.676-0.42,1.399-0.758,2.155-1.007h0.373v0.101
		c-0.634,0.061-1.007,0.242-1.067,0.584c-0.004,0.117,0.088,0.214,0.205,0.217c0.019,0.001,0.038-0.001,0.057-0.005
		c0.474-0.312,0.695-0.483,0.695-0.544c0.9-0.162,3.397-1.471,7.493-3.928v0.232c0,0.091-0.342,0.393-1.007,0.906L72.423,308.563z
		 M66.138,310.578c0.587-0.045,1.139-0.295,1.561-0.706c0.162,0,0.252,0.061,0.262,0.212c-0.59,0.151-1.154,0.393-1.671,0.715
		h-0.131v-0.222H66.138z M76.291,302.782l-3.122,2.518c-1.212,0.886-2.488,1.68-3.817,2.377c-3.713,2.015-6.026,3.075-6.939,3.183
		h-0.131c0.114-0.423,1.776-3.814,4.986-10.172c2.295-0.387,4.532-1.064,6.657-2.015l0.756-0.06
		c1.217-0.217,2.469,0.111,3.424,0.896v0.463c-0.534,1.662-1.108,2.568-1.833,2.85L76.291,302.782z M70.157,299.327h0.483v0.121
		h-0.483V299.327z M77.258,298.119h0.373c0.342,0.171,0.523,0.322,0.533,0.443v0.101c-0.377,0.014-0.731-0.185-0.917-0.514
		L77.258,298.119z M78.265,292.408c-0.812,0.773-1.71,1.45-2.679,2.014c-1.869,0.576-3.688,1.304-5.439,2.175
		c-0.157-0.056-0.326-0.08-0.493-0.07v-0.231c0.004-0.615,0.201-1.214,0.564-1.712c0.242-1.299,0.514-2.014,0.796-2.185l2.628-5.872
		c0-0.342,0.523-0.624,1.652-0.846h0.373v0.353c1.108-0.182,1.803-0.286,2.085-0.312c2.014-0.181,3.143,0.232,3.233,1.249h0.242
		v-0.564h0.242c0.523,0.189,0.907,0.641,1.007,1.189c-0.016,0.455-0.19,0.89-0.494,1.229c-0.161,0-0.251-0.091-0.271-0.343h-0.242
		l-0.07,0.706c-1.128,1.531-1.883,2.376-2.387,2.376c-0.423,0.575-0.686,0.867-0.806,0.876L78.265,292.408z M79.363,296.316v-0.353
		h0.241l0.524,0.322c0.017,0.122-0.068,0.233-0.189,0.25c-0.011,0.002-0.021,0.002-0.032,0.002
		c-0.149-0.114-0.327-0.184-0.514-0.201L79.363,296.316z M35.642,319.148l-0.242,0.061l-0.212,0.181
		c0.013,0.117,0.118,0.2,0.234,0.187c0.02-0.002,0.04-0.007,0.058-0.015c0.162,0,0.222-0.131,0.191-0.282v-0.121L35.642,319.148z
		 M34.694,317.295v0.121c0.162,0,0.222-0.131,0.191-0.282v-0.121c-0.122,0.012-0.211,0.121-0.199,0.242
		C34.688,317.269,34.691,317.282,34.694,317.295z M41.342,304.816l0.182-0.111h-0.091c-0.057,0.015-0.093,0.073-0.08,0.131
		L41.342,304.816z M41.342,301.584l0.282-0.071l-0.061-0.242l-0.281,0.07L41.342,301.584z M107.664,311.061l-0.634-0.07
		l-0.111,0.242v0.121l3.797-0.322v-0.232l-3.021,0.262H107.664z M111.139,310.769V311l0,0V310.769z M127.051,308.684v0.232
		l0.414,0.07v-0.232L127.051,308.684z M126.468,308.684c-1.241,0.346-2.52,0.538-3.807,0.575v0.231h0.262h0.141l0,0l0.312-0.121
		c2.82-0.312,3.153-0.202,3.122-0.514v-0.171H126.468z M109.346,304.534l-0.252-0.08c-0.142,0.321-0.244,0.66-0.302,1.007v0.1
		c0.202,0,0.373-0.342,0.544-1.007L109.346,304.534z M105.912,302.682v-0.041h-0.131l-0.232,0.151l0.131,0.221
		c0.181,0,0.262-0.101,0.242-0.262L105.912,302.682z M113.375,310.396v-0.232h-0.121v0.232H113.375z M128.854,306.901h0.181
		c0.101,0,0.151-0.091,0.142-0.242l-0.101-0.221c-0.514-0.003-1.02,0.125-1.47,0.372v-0.121l-0.776,0.07
		c0-0.231-0.081-0.353-0.191-0.342h-0.403c-0.474,0-0.695,0-0.926,0.202c0-0.081,0-0.121-0.081-0.121h-0.453l-0.262,0.151
		c0-0.08,0-0.12-0.081-0.12l-0.161,0.141l0,0h-0.625h-0.151v0.231l0.322,0.081h0.302c0.104,0.061,0.224,0.085,0.343,0.071
		l0.262-0.131v0.101c-0.814,0.212-1.642,0.37-2.478,0.473c-0.071-0.06-0.159-0.095-0.252-0.101l0,0
		c-0.111-0.006-0.196-0.1-0.191-0.211c0,0,0,0,0,0l0.523-0.071c0.116,0.037,0.233,0.067,0.353,0.091
		c0.423-0.212,0.443-0.292,0.665-0.313v-0.231c-0.884,0.163-1.78,0.247-2.679,0.252h-0.08v-0.232
		c2.326-0.282,1.551-0.121,2.346-0.342c0,0.081,0,0.121,0.081,0.121c0.085-0.089,0.2-0.146,0.322-0.161h0.162
		c0.913,0.028,1.824-0.091,2.699-0.352v0.1l0.262-0.131h0.242c0-0.231,0.342-0.271,0.463-0.281v-0.252
		c-2.83,0.574-3.575,0.413-4.361,0.635v-0.101c-0.33,0.077-0.669,0.104-1.007,0.081c-0.09,0.027-0.17,0.08-0.232,0.151
		c0-0.081,0-0.121-0.091-0.121l0,0l-2.407,0.393c0-0.071,0-0.101-0.091-0.091c-0.84,0.246-1.705,0.402-2.578,0.464
		c-0.112,0.021-0.219,0.065-0.312,0.131c0-0.071,0-0.101-0.131-0.091l-1.007,0.081l-0.685,0.171c0-0.07,0-0.101-0.131-0.09
		c-0.329,0.095-0.667,0.159-1.007,0.191l0,0c-0.171,0,0.08,0,0-0.101l-0.212,0.122c-0.302,0-0.141,0-1.168,0
		c-1.812,0.221-1.611,0.251-1.812,0.262h-0.675c0.011,0.049-0.019,0.097-0.067,0.109c-0.011,0.003-0.022,0.003-0.034,0.001
		c-0.766-0.101-1.168-0.222-1.168-0.362c0.101-0.732,0.278-1.108,0.534-1.128h0.131l-0.111,0.242h0.131
		c0.242-0.131,0.353-0.251,0.343-0.362v-0.252h-0.242v-0.231c-0.023-0.162,0.001-0.326,0.07-0.474l0.554-0.896v0.232h0.262v-0.232
		l-0.151-0.211c0.13-0.133,0.294-0.227,0.474-0.272v-0.121h-0.353v-0.352c0.453-0.812,0.792-1.683,1.007-2.588l0.252,0.101
		c0.161,0,0.231-0.101,0.222-0.272h-0.242v-0.1c-0.017-0.17,0.014-0.341,0.091-0.494c0.348-0.311,0.541-0.762,0.523-1.229
		c0.071,0,0.112,0,0.121,0.111c0.333-0.191,0.584-0.685,0.766-1.511c0.979-2.037,1.81-4.14,2.488-6.295
		c2.064-5.56,2.015-6.144,2.266-7.463h-0.242c0.019,0.167-0.014,0.334-0.091,0.483c-0.124-0.056-0.257-0.087-0.393-0.091v-0.101
		c0.01-0.626,0.226-1.231,0.614-1.723h0.111l0.211,0.806h0.242c0.041-0.339,0.104-0.676,0.191-1.007
		c0-0.121-0.101-0.202-0.292-0.211l-0.231,0.151c0-0.171,0-0.614,0-1.309h-0.121c-0.163-0.13-0.276-0.311-0.322-0.514l-1.34,0.131
		c-0.025-0.146-0.076-0.285-0.151-0.413c0-0.121,0.292-0.242,0.907-0.362l0.271,0.101l0.252-0.151c0,0.081,0.061,0.121,0.151,0.111
		l0.251-0.151c0,0.081,0.061,0.121,0.151,0.111h0.121v-0.272c-0.191,0-0.685,0-1.471,0l-0.251,0.171v-0.151
		c-6.298,0.517-9.874,0.816-10.727,0.896c-0.111,0-0.554,0-1.329,0c0,0.101-0.081,0.161-0.272,0.181l-0.271-0.121l-0.917,0.231
		c-0.362,0.033-0.726,0.033-1.088,0c-0.147,0.117-0.326,0.187-0.514,0.202l2.689-0.171c-0.194,0.132-0.421,0.205-0.655,0.211
		c-0.183,0.025-0.37-0.007-0.534-0.091c-0.66,0.204-1.333,0.361-2.014,0.474l-0.272-0.101l-4.391,0.675
		c-0.186-0.085-0.392-0.117-0.594-0.091c-0.396,0.052-0.786,0.136-1.168,0.252l-2.125,0.886l0.162,0.262
		c0.154-0.027,0.301-0.085,0.433-0.171l0.755,0.07l-0.091,0.705c-0.652,0.119-1.194,0.57-1.43,1.189
		c-1.007,0.463-1.561,0.786-1.561,1.007v0.121h0.161l0.282-0.15l0.333,0.393v0.544c0,0.168-1.749,3.861-5.248,11.079
		c-3.021,6.95-4.632,10.747-4.784,11.432c-1.007,0.292-1.641,0.715-1.823,1.279c0,0.182,0.333,0.302,0.927,0.343v0.271l-0.272,0.454
		v0.544c0,0.282,0.759,0.497,2.276,0.644c0-0.09,0-0.15,0.141-0.161c-0.011,0.681-0.105,1.357-0.282,2.014h0.161
		c0.455-0.484,0.763-1.089,0.887-1.743h0.131c0.151,0,0.312,0.162,0.493,0.524c-0.188,0.074-0.859,1.568-2.014,4.482l0.161,0.262
		h0.161c1.377-3.491,2.243-5.422,2.599-5.792c1.813-0.161,4.945-0.497,9.397-1.007l0.282-0.171
		c-0.003,0.072,0.052,0.134,0.124,0.137c0.017,0.001,0.032-0.001,0.047-0.006h0.292l0.282-0.171
		c-0.004,0.072,0.052,0.134,0.125,0.137c0.016,0.001,0.031-0.001,0.046-0.006l3.485-0.403c0.896-0.07,1.31-0.342,1.279-0.806
		c0-0.121,0.514-0.262,1.582-0.413c0.157-0.002,0.314,0.025,0.463,0.08c0-0.08,0.524-0.17,1.591-0.262
		c0-0.564,0.202-0.866,0.524-0.896V308c-0.343,0.04-0.681,0.117-1.007,0.231c-0.451-0.005-0.899-0.059-1.339-0.161
		c-0.132,0.084-0.279,0.142-0.434,0.171l-2.346,0.07l-0.282,0.151c0-0.087-0.057-0.124-0.171-0.111h-0.131l-0.302,0.151
		c0-0.081-0.251-0.151-0.745-0.211l-0.302,0.181H95.94v-0.091c3.021-0.329,4.512-0.739,4.472-1.229
		c0.141-0.034,0.282,0.053,0.315,0.193c0.006,0.026,0.008,0.052,0.007,0.079l0.887-0.221v-0.272l-7.232,0.201
		c0,0.091,0,0.151-0.141,0.162l-0.886-0.071c-0.204,0.012-0.399,0.082-0.564,0.202l-0.332-0.121
		c-0.681,0.042-1.356,0.153-2.014,0.333c-0.67-0.053-1.344-0.053-2.015,0l-1.622,0.141l-0.856-0.101c0-0.483,0.896-2.83,2.811-7.05
		c0.283-1.004,0.816-1.919,1.551-2.659c0.161,0.002,0.319,0.04,0.463,0.111l1.158-0.393l0.594,0.091
		c1.191-0.13,2.359-0.418,3.475-0.856c0.254-0.036,0.512-0.012,0.755,0.071l0.886-0.212l2.599-0.182
		c1.239-0.117,2.461-0.367,3.646-0.745v-0.271c-0.483,0-0.745,0-0.755-0.231c0-0.363-0.382-0.514-1.068-0.464v-0.271l0.725-0.212
		l1.894-0.161v-0.272c-0.07,0-0.463,0-1.168,0v-0.292l0.735-0.07c0.202,0,0.282-0.111,0.262-0.302c-1.007,0-1.48,0-1.491-0.151
		c-6.869,0.336-10.313,0.4-10.333,0.192c-0.156,0.034-0.303,0.099-0.434,0.191l-0.182-0.282c1.82-3.868,2.888-5.815,3.203-5.841
		c-0.019,0.255-0.094,0.503-0.222,0.725v0.121h0.292c0.725-1.723,1.33-2.619,1.843-2.659c2.155-0.191-0.302-0.333,4.321-1.007
		c0.126,0.07,0.269,0.107,0.413,0.111c1.813-0.37,4.337-0.752,7.574-1.148v-0.271l-1.722,0.161v-0.271
		c0.188-0.014,0.367-0.084,0.514-0.202v0.151c0.144-0.034,0.277-0.099,0.393-0.191c0.231-0.039,0.469-0.011,0.685,0.08
		c0.476-0.133,0.96-0.23,1.451-0.292l1.077-0.101c0.262-0.171,0.383-0.323,0.373-0.463v-0.121c-0.317,0.024-0.636,0.003-0.947-0.061
		c-0.018-0.149,0.089-0.284,0.238-0.302c0.001,0,0.002,0,0.003,0l2.014-0.191l0.917-0.231c0,0.101,0.06,0.141,0.131,0.141
		c0.143-0.034,0.277-0.099,0.393-0.191h0.15c-0.162,0.355-0.297,0.722-0.402,1.098h-0.262c-0.014-0.17-0.065-0.335-0.151-0.483
		h-0.131c-2.437,6.799-3.525,9.961-5.781,15.179c-0.413,1.329-0.755,2.074-1.058,2.236c-0.003,0.117,0.089,0.214,0.206,0.217
		c0.019,0,0.038-0.001,0.056-0.006c0.052,0.681-0.109,1.36-0.463,1.944c-1.007,3.021-1.732,4.644-2.095,4.945l0.101,1.35
		c0.016,0.122-0.068,0.233-0.189,0.25c-0.011,0.001-0.021,0.002-0.033,0.002h-0.242c0-0.393-0.181-0.584-0.433-0.554h-0.131
		c-0.338,0.533-0.583,1.119-0.725,1.733h0.242c0.286-0.142,0.463-0.437,0.453-0.756h0.483l0.282,0.101
		c-0.19,0.246-0.3,0.545-0.312,0.856l0.131,0.222l-0.322,0.755v0.121c0.325-0.013,0.647,0.079,0.917,0.262
		c0.27-0.038,0.525-0.141,0.745-0.302c0.282,0,1.329,0,3.142,0l0.907-0.312c0.749,0.016,1.499-0.007,2.246-0.071h0.392l0.212-0.141
		v0.121c0.618-0.071,1.242-0.046,1.854,0.07v0.121h-0.554v0.232c0.162-0.01,0.316-0.07,0.443-0.171c0.141,0,0.221,0.07,0.231,0.232
		c-0.257,0.027-0.511,0.084-0.755,0.171l-0.242-0.081c-0.383,0.1-0.302,0.131-0.564,0.151l-0.383-0.07
		c0.012,0.049-0.019,0.097-0.067,0.108c-0.007,0.001-0.016,0.003-0.023,0.003c-0.007,0.111,0.078,0.207,0.189,0.213
		c0.014,0.001,0.029,0,0.043-0.002h0.393l2.015-0.181l0.775-0.171c0,0.07,0,0.101,0.101,0.09l0.373-0.141l0.705-0.061
		c0.544,0,0.534-0.081,1.722-0.272c0-0.07,0-0.101,0.07-0.111v0.101c0.82-0.11,1.632-0.278,2.427-0.503v0.061
		c0.483-0.111,0.212-0.081,0.343-0.182c0,0.081,0,0.121,0.081,0.121h0.342v-0.252h-0.685l0,0h-0.071h-0.09l0,0
		c-0.252,0.047-0.509,0.067-0.765,0.061l-1.723,0.091v-0.121l1.007-0.131h0.342l0.201-0.141v0.121
		c1.35-0.11,1.833,0.222,8.057-1.107c0.343,0,0.313-0.312,0.524-0.896c-0.115,0.01-0.23-0.015-0.332-0.071
		c-0.585,0.142-1.182,0.23-1.783,0.262c-0.08,0-0.15-0.071-0.181-0.211v-0.101h1.007c0.357-0.038,0.701-0.154,1.007-0.343
		c0,0.081-0.201,0.131-0.08,0.122L128.854,306.901z M82.646,307.677h-0.443c0.147-0.699,0.384-1.375,0.705-2.014H83.2
		C83.108,306.356,82.921,307.034,82.646,307.677L82.646,307.677z M83.179,305.542v-0.121c0-0.151,0.081-0.252,0.292-0.302v0.121
		C83.472,305.421,83.391,305.522,83.179,305.542z M89.082,310.094v0.121l-0.735,0.07v-0.121L89.082,310.094z M88.195,310.023
		c0,0.151-0.211,0.322-0.706,0.483l-0.896-0.07h-0.292v-0.272l1.923-0.181L88.195,310.023z M94.117,282.719h-0.443v-0.151
		c0-0.151,0.07-0.252,0.262-0.302h0.162l0.302,0.121c0.022,0.143-0.076,0.277-0.218,0.299c-0.018,0.003-0.036,0.004-0.054,0.003
		L94.117,282.719z M100.825,281.41h0.142v0.271h-0.403c-0.017-0.149,0.089-0.284,0.239-0.301c0.001,0,0.002,0,0.003,0
		L100.825,281.41z M99.153,281.994l-0.665-0.07v-0.131c0.567-0.034,1.128-0.136,1.672-0.302c0,0.101,0.1,0.141,0.271,0.121v0.272
		h-0.262c-0.183,0.024-0.369-0.007-0.534-0.091c-0.153,0.104-0.33,0.169-0.514,0.191L99.153,281.994z M99.989,284.421v-0.121
		l1.077-0.101v0.121L99.989,284.421z M101.107,283.505v-0.151h0.524v0.151H101.107z M101.228,281.662h-0.141l0.121-0.292
		l1.199-0.111v0.151c-0.403,0.047-0.8,0.128-1.189,0.242L101.228,281.662z M101.842,284.25v-0.272h0.524
		c0.181,0,0.275,0.084,0.282,0.251l-0.786,0.071L101.842,284.25z M105.025,279.919l-0.675,0.191h-0.161
		c-0.405,0.036-0.813,0.036-1.219,0c0.876-0.061,1.712-0.121,2.014-0.171L105.025,279.919z M104.3,282.941v0.121l-0.926,0.08v-0.121
		L104.3,282.941z M105.821,283.666c0-0.111-0.191-0.191-0.554-0.222l-0.927,0.262h-0.715c-0.161-0.11-0.242-0.191-0.251-0.241h0.825
		l1.854-0.302H107v0.151c-0.404,0.035-0.803,0.116-1.189,0.242L105.821,283.666z M115.379,281.198h0.211
		c0.322-0.32,0.701-0.576,1.118-0.755c-0.206,1.225-0.754,2.366-1.581,3.293l-0.524-0.322c0.31-0.727,0.569-1.474,0.776-2.236
		V281.198z M113.767,283.968h0.131c-0.182,0.343-0.343,0.513-0.474,0.524v-0.353c0.133-0.022,0.258-0.078,0.363-0.161
		L113.767,283.968z M112.76,286.456c0.081-0.632,0.331-1.231,0.725-1.732v0.121c-0.131,0.937-0.343,1.44-0.614,1.471v0.594
		c-0.185,0.211-0.297,0.476-0.323,0.755h-0.131l-0.07-0.816c0.151,0,0.271-0.151,0.353-0.393H112.76z M112.357,287.806
		c-0.039,0.348-0.13,0.687-0.272,1.007h-0.131v-0.353c0.182-0.413,0.333-0.624,0.434-0.624L112.357,287.806z M104.783,309.782
		v-0.101h0.242v0.353c-0.131,0-0.222-0.07-0.262-0.232L104.783,309.782z M115.601,310.064c0-0.081,0-0.121-0.131-0.111l-0.614,0.061
		v-0.121h0.06l1.36-0.201v0.121c-0.265-0.021-0.529,0.043-0.756,0.181L115.601,310.064z M114.875,309.762c0.06,0,0,0.06,0,0.071
		C114.875,309.842,114.804,309.833,114.875,309.762z M114.946,308.07l-0.806,0.07v-0.161l0.736-0.07l0.634-0.161
		c0,0.07,0,0.101,0.131,0.09c0.755-0.131,0.685-0.171,1.007-0.201c0.121,0,0.201,0.07,0.211,0.211l-1.944,0.171L114.946,308.07z
		 M117.766,307.828c-0.262-0.053-0.529-0.074-0.796-0.061v-0.091l0.726-0.07v0.07c-0.071,0,0.202,0,0.07,0.121V307.828z
		 M117.826,307.697v-0.101h0.393v0.101H117.826z M118.703,307.626v-0.101c0.104-0.028,0.201-0.079,0.282-0.151
		c0.154-0.022,0.297,0.084,0.32,0.238c0.001,0.008,0.002,0.016,0.002,0.024L118.703,307.626z M119.82,307.485v-0.121h0.483v0.121
		H119.82z M120.485,307.425c0-0.141,0-0.221,0.171-0.242l0.161,0.211c-0.012-0.049,0.018-0.098,0.066-0.11c0.001,0,0.003,0,0.005,0
		l0.121,0.222l-0.524-0.071V307.425z M129.721,306.337L129.721,306.337L129.721,306.337z M129.892,306.216
		c0.071,0,0.111-0.09-0.07-0.121s0.091,0.121-0.09,0.131v0.081l0.1-0.071l-0.1,0.081l0,0l-0.202,0.252l0.393-0.141l0,0v-0.232
		L129.892,306.216z M130.577,306.75h-0.071v0.231h0.554c0-0.151-0.373-0.201-0.494-0.201L130.577,306.75z"/>
</g>
</svg>
