<?xml version="1.0" encoding="utf-8"?>
<!-- Generator: Adobe Illustrator 16.0.0, SVG Export Plug-In . SVG Version: 6.00 Build 0)  -->
<!DOCTYPE svg PUBLIC "-//W3C//DTD SVG 1.1//EN" "http://www.w3.org/Graphics/SVG/1.1/DTD/svg11.dtd">
<svg version="1.1" id="Layer_1" xmlns="http://www.w3.org/2000/svg" xmlns:xlink="http://www.w3.org/1999/xlink" x="0px" y="0px"
	 width="50.403px" height="48.272px" viewBox="1.052 111.181 50.403 48.272" enable-background="new 1.052 111.181 50.403 48.272"
	 xml:space="preserve">
<path fill="#205081" d="M19.916,152.259c-0.698,0-1.404,0.172-1.882,0.352v-2.616c0-0.132-0.107-0.239-0.239-0.238h-1.411
	c-0.131,0-0.237,0.106-0.237,0.237c0,0,0,0.001,0,0.001v9.01c0,0.114,0.083,0.213,0.195,0.234c0.87,0.159,1.896,0.214,2.513,0.214
	c2.648,0,3.19-1.126,3.19-2.817v-1.972C22.046,153.066,21.329,152.259,19.916,152.259L19.916,152.259z M18.937,157.814
	c-0.357,0-0.652-0.014-0.903-0.043v-3.524c0.388-0.174,0.935-0.35,1.373-0.35c0.534,0,0.752,0.209,0.752,0.724v2.068
	C20.159,157.436,19.97,157.815,18.937,157.814L18.937,157.814z M28.533,152.396h-1.408c-0.131,0-0.237,0.106-0.238,0.237v4.462
	c-0.508,0.257-1.223,0.524-1.649,0.524c-0.317,0-0.435-0.117-0.435-0.435v-4.552c0-0.13-0.108-0.237-0.241-0.237h-1.408
	c-0.131-0.001-0.238,0.104-0.239,0.235c0,0,0,0.001,0,0.002v4.732c0,1.384,0.545,2.086,1.618,2.086c0.747,0,1.765-0.257,2.624-0.661
	l0.104,0.352c0.031,0.102,0.123,0.171,0.229,0.171l1.043,0c0.132,0,0.238-0.107,0.238-0.238v-6.442
	C28.771,152.503,28.665,152.396,28.533,152.396z M34.207,157.856c-0.01-0.065-0.046-0.124-0.101-0.162
	c-0.055-0.037-0.124-0.05-0.188-0.036c-0.404,0.093-0.828,0.143-1.226,0.143c-0.893,0-1.152-0.228-1.152-1.014v-1.862
	c0-0.787,0.258-1.015,1.151-1.015c0.212,0,0.742,0.03,1.226,0.142c0.128,0.03,0.256-0.05,0.286-0.178
	c0.001-0.006,0.003-0.013,0.004-0.02l0.167-1.115c0.018-0.118-0.054-0.23-0.167-0.264c-0.543-0.16-1.18-0.216-1.556-0.216
	c-2.13,0-2.998,0.776-2.998,2.679v1.835c0,1.903,0.868,2.679,2.998,2.679c0.517,0,1.113-0.083,1.556-0.216
	c0.114-0.034,0.185-0.146,0.167-0.264L34.207,157.856L34.207,157.856z M43.916,152.259c-1.89,0-2.888,0.941-2.888,2.721v1.779
	c0,1.837,0.936,2.693,2.944,2.693c0.817,0,1.688-0.143,2.39-0.391c0.112-0.041,0.178-0.157,0.155-0.274l-0.209-1.008
	c-0.028-0.129-0.155-0.212-0.285-0.184c-0.004,0.001-0.009,0.002-0.013,0.003c-0.648,0.183-1.263,0.272-1.885,0.272
	c-1.026,0-1.209-0.333-1.209-1.029v-0.244h3.499c0.131,0.001,0.238-0.105,0.238-0.236c0-0.001,0-0.002,0-0.003v-1.297
	C46.651,153.149,45.782,152.259,43.916,152.259L43.916,152.259z M42.915,155.042v-0.228c0-0.664,0.324-0.974,1.015-0.974
	c0.765,0,0.918,0.373,0.918,0.973v0.228L42.915,155.042L42.915,155.042z M10.019,152.394H8.61c-0.132,0-0.238,0.107-0.239,0.238
	v6.441c0,0.132,0.107,0.239,0.239,0.239h1.409c0.134,0,0.24-0.107,0.24-0.239v-6.441c0-0.131-0.106-0.238-0.237-0.238
	C10.02,152.394,10.019,152.394,10.019,152.394z M10.019,149.755H8.61c-0.132,0.001-0.238,0.107-0.239,0.239v1.213
	c0,0.134,0.107,0.239,0.239,0.239h1.409c0.131,0.002,0.238-0.103,0.24-0.234c0-0.002,0-0.003,0-0.005v-1.213
	c0-0.132-0.106-0.239-0.238-0.239C10.02,149.755,10.019,149.755,10.019,149.755L10.019,149.755z M6.471,154.4
	c0.584-0.321,0.837-0.771,0.837-1.463v-0.947c0-1.388-0.833-2.061-2.542-2.061H1.289c-0.13,0-0.237,0.106-0.237,0.238v8.906
	c0,0.132,0.107,0.238,0.237,0.238h3.726c1.659,0,2.611-0.806,2.611-2.211v-0.978C7.626,155.283,7.2,154.657,6.471,154.4L6.471,154.4
	z M2.992,151.566h1.567c0.709,0,0.808,0.31,0.808,0.641v0.812c0,0.528-0.247,0.753-0.822,0.753H4.207
	c-0.132,0-0.24,0.106-0.24,0.238c0,0,0,0.001,0,0.001v1.119c0,0.132,0.106,0.239,0.24,0.239h0.612c0.615,0,0.865,0.238,0.865,0.822
	v0.688c0,0.594-0.255,0.794-1.016,0.794H2.992L2.992,151.566L2.992,151.566z M15.311,157.943c-0.009-0.067-0.046-0.126-0.102-0.164
	c-0.057-0.038-0.126-0.049-0.191-0.033c-0.249,0.062-0.488,0.096-0.672,0.096c-0.348,0-0.503-0.152-0.503-0.49v-3.414h1.369
	c0.131,0,0.238-0.107,0.238-0.238v-1.066c0-0.132-0.107-0.238-0.238-0.238h-1.369v-1.641c0-0.132-0.108-0.239-0.241-0.238
	c-0.011,0-0.021,0.001-0.032,0.002l-1.409,0.196c-0.118,0.017-0.206,0.118-0.206,0.237v1.444h-0.768
	c-0.131,0-0.238,0.107-0.238,0.238v1.065c0,0.131,0.106,0.238,0.238,0.238h0.768v3.634c0,1.248,0.655,1.881,1.948,1.881
	c0.369,0,0.994-0.086,1.403-0.228c0.109-0.037,0.176-0.147,0.158-0.262L15.311,157.943L15.311,157.943z M51.298,157.942
	c-0.019-0.129-0.139-0.22-0.269-0.201c-0.008,0.001-0.016,0.003-0.024,0.005c-0.251,0.061-0.488,0.096-0.674,0.096
	c-0.348,0-0.505-0.152-0.505-0.491v-3.413h1.37c0.131,0,0.237-0.106,0.237-0.237c0,0,0,0,0-0.001v-1.066
	c0-0.131-0.105-0.237-0.236-0.238c0,0,0,0-0.001,0h-1.371v-1.641c0.001-0.069-0.028-0.134-0.081-0.18s-0.122-0.066-0.19-0.056
	l-1.409,0.195c-0.117,0.017-0.205,0.117-0.205,0.236v1.445h-0.768c-0.13,0-0.238,0.107-0.238,0.239v1.065
	c0,0.13,0.108,0.238,0.238,0.238h0.768v3.635c0,1.246,0.656,1.879,1.949,1.879c0.37,0,0.994-0.085,1.403-0.227
	c0.109-0.038,0.176-0.147,0.159-0.261l-0.154-1.022V157.942z M40.809,158.914l-1.883-3.109l1.817-3.062
	c0.068-0.113,0.031-0.259-0.082-0.326c-0.037-0.022-0.08-0.035-0.124-0.034h-1.556c-0.085,0-0.164,0.045-0.207,0.12l-1.729,2.997
	v-5.502c0-0.131-0.106-0.238-0.238-0.238c0,0,0,0-0.001,0h-1.408c-0.132,0-0.238,0.106-0.239,0.238v9.078
	c0,0.132,0.107,0.239,0.239,0.239h1.409c0.132,0,0.239-0.106,0.239-0.239v-2.971l1.839,3.078c0.043,0.072,0.121,0.116,0.205,0.116
	h1.529c0.132-0.001,0.238-0.109,0.237-0.241C40.857,159.004,40.84,158.954,40.809,158.914L40.809,158.914z"/>
<g>
	<path fill="#205081" d="M26.253,111.181c-8.693,0-15.656,2.319-15.656,5.198c0,0.759,1.887,11.633,2.633,15.946
		c0.335,1.934,5.322,4.77,13.027,4.77l-0.004-0.023v0.023c7.902,0,12.718-2.836,13.053-4.77c0.747-4.312,2.622-15.187,2.622-15.946
		C41.928,113.5,34.946,111.181,26.253,111.181z M26.278,133.601c-2.751,0-4.981-2.23-4.981-4.981c0-2.751,2.23-4.981,4.981-4.981
		s4.981,2.229,4.981,4.981C31.259,131.371,29.029,133.601,26.278,133.601L26.278,133.601z M26.275,117.985
		c-5.542-0.008-10.033-0.971-10.031-2.15c0.002-1.18,4.497-2.128,10.039-2.12s10.033,0.972,10.032,2.151
		C36.312,117.046,31.817,117.994,26.275,117.985z"/>
	<path fill="#205081" d="M37.54,136.646c-0.238,0-0.429,0.169-0.429,0.169s-3.859,3.055-10.833,3.056
		c-6.974,0-10.833-3.056-10.833-3.056s-0.191-0.169-0.429-0.169c-0.285,0-0.554,0.192-0.554,0.613c0,0.044,0.004,0.089,0.013,0.132
		c0.599,3.205,1.037,5.483,1.114,5.83c0.522,2.357,5.135,4.14,10.689,4.14h0.001c5.555,0,10.167-1.783,10.69-4.141
		c0.077-0.346,0.514-2.622,1.113-5.828c0.008-0.043,0.013-0.089,0.013-0.133C38.093,136.839,37.824,136.647,37.54,136.646
		L37.54,136.646z"/>
	<circle fill="#205081" cx="26.273" cy="128.618" r="2.496"/>
</g>
</svg>
