<?xml version="1.0" encoding="utf-8"?>
<!-- Generator: Adobe Illustrator 16.0.0, SVG Export Plug-In . SVG Version: 6.00 Build 0)  -->
<!DOCTYPE svg PUBLIC "-//W3C//DTD SVG 1.1//EN" "http://www.w3.org/Graphics/SVG/1.1/DTD/svg11.dtd">
<svg version="1.1" id="Layer_1" xmlns="http://www.w3.org/2000/svg" xmlns:xlink="http://www.w3.org/1999/xlink" x="0px" y="0px"
	 width="48.75px" height="55.554px" viewBox="45.57 99.562 48.75 55.554" enable-background="new 45.57 99.562 48.75 55.554"
	 xml:space="preserve">
<path fill="#5B4282" d="M45.57,149.05h1.862c0.849,0,1.465,0.121,1.848,0.362c0.383,0.242,0.575,0.626,0.575,1.152
	c0,0.358-0.084,0.651-0.252,0.88c-0.167,0.229-0.391,0.367-0.669,0.414v0.041c0.379,0.085,0.653,0.243,0.821,0.475
	s0.252,0.54,0.252,0.925c0,0.546-0.197,0.972-0.591,1.277s-0.93,0.458-1.607,0.458H45.57V149.05L45.57,149.05z M46.839,151.42h0.737
	c0.344,0,0.593-0.053,0.747-0.159c0.155-0.106,0.231-0.283,0.231-0.528c0-0.229-0.083-0.394-0.251-0.493s-0.433-0.149-0.796-0.149
	h-0.667V151.42z M46.839,152.427v1.56h0.827c0.349,0,0.607-0.067,0.773-0.201c0.167-0.134,0.25-0.338,0.25-0.614
	c0-0.497-0.355-0.745-1.064-0.745H46.839z M56.633,152.034c0,0.99-0.246,1.752-0.736,2.284c-0.491,0.532-1.195,0.798-2.112,0.798
	s-1.621-0.266-2.112-0.798c-0.491-0.532-0.737-1.296-0.737-2.292s0.247-1.756,0.739-2.282s1.198-0.788,2.118-0.788
	c0.92,0,1.623,0.265,2.11,0.794C56.39,150.279,56.633,151.041,56.633,152.034L56.633,152.034z M52.266,152.034
	c0,0.668,0.127,1.172,0.381,1.51c0.254,0.338,0.633,0.508,1.138,0.508c1.012,0,1.519-0.673,1.519-2.018
	c0-1.348-0.503-2.022-1.511-2.022c-0.504,0-0.885,0.17-1.142,0.51C52.394,150.862,52.266,151.365,52.266,152.034z M63.305,152.034
	c0,0.99-0.246,1.752-0.736,2.284c-0.491,0.532-1.195,0.798-2.112,0.798s-1.621-0.266-2.112-0.798
	c-0.491-0.532-0.737-1.296-0.737-2.292s0.246-1.756,0.739-2.282c0.493-0.525,1.199-0.788,2.118-0.788c0.92,0,1.623,0.265,2.11,0.794
	C63.061,150.279,63.305,151.041,63.305,152.034L63.305,152.034z M58.938,152.034c0,0.668,0.127,1.172,0.381,1.51
	c0.254,0.338,0.633,0.508,1.138,0.508c1.012,0,1.518-0.673,1.518-2.018c0-1.348-0.503-2.022-1.51-2.022
	c-0.504,0-0.885,0.17-1.142,0.51C59.065,150.862,58.938,151.365,58.938,152.034z M66.853,155.034h-1.269v-4.928h-1.625v-1.056h4.519
	v1.056h-1.625V155.034z M72.931,153.373c0,0.541-0.194,0.966-0.583,1.277c-0.389,0.311-0.93,0.467-1.623,0.467
	c-0.638,0-1.203-0.12-1.694-0.36v-1.179c0.403,0.18,0.745,0.307,1.025,0.381s0.535,0.111,0.768,0.111c0.278,0,0.492-0.053,0.64-0.16
	c0.149-0.106,0.224-0.264,0.224-0.475c0-0.117-0.033-0.222-0.098-0.313c-0.065-0.091-0.162-0.179-0.289-0.264
	c-0.127-0.085-0.385-0.22-0.775-0.405c-0.366-0.172-0.64-0.337-0.823-0.495c-0.183-0.159-0.329-0.343-0.438-0.552
	c-0.109-0.21-0.164-0.456-0.164-0.737c0-0.529,0.179-0.945,0.538-1.249c0.359-0.303,0.855-0.454,1.488-0.454
	c0.311,0,0.608,0.037,0.89,0.11c0.283,0.074,0.578,0.177,0.886,0.311l-0.41,0.986c-0.319-0.13-0.583-0.222-0.792-0.274
	c-0.209-0.052-0.414-0.078-0.616-0.078c-0.24,0-0.424,0.056-0.553,0.167c-0.128,0.112-0.192,0.258-0.192,0.438
	c0,0.112,0.026,0.209,0.078,0.292c0.052,0.083,0.134,0.164,0.248,0.242c0.113,0.078,0.381,0.218,0.804,0.42
	c0.56,0.268,0.943,0.536,1.15,0.804C72.827,152.653,72.931,152.982,72.931,153.373L72.931,153.373z M76.324,155.034h-1.269v-4.928
	H73.43v-1.056h4.519v1.056h-1.625V155.034L76.324,155.034z M80.139,152.738v2.296H78.87v-5.984h1.744
	c0.813,0,1.415,0.148,1.805,0.444c0.39,0.296,0.585,0.746,0.585,1.349c0,0.352-0.097,0.665-0.291,0.939
	c-0.194,0.274-0.468,0.489-0.822,0.645c0.9,1.345,1.487,2.214,1.76,2.607h-1.408l-1.429-2.296L80.139,152.738L80.139,152.738z
	 M80.139,151.706h0.409c0.401,0,0.697-0.066,0.888-0.2c0.191-0.134,0.287-0.344,0.287-0.631c0-0.283-0.098-0.485-0.293-0.605
	c-0.195-0.12-0.497-0.18-0.906-0.18h-0.385V151.706z M88.066,155.034l-0.434-1.424h-2.182l-0.434,1.424h-1.367l2.112-6.008h1.551
	l2.12,6.008H88.066z M87.329,152.545c-0.401-1.291-0.626-2.021-0.677-2.19c-0.051-0.169-0.086-0.303-0.108-0.401
	c-0.09,0.349-0.348,1.213-0.774,2.591H87.329L87.329,152.545z M94.32,150.917c0,0.644-0.202,1.137-0.604,1.477
	c-0.402,0.342-0.975,0.512-1.717,0.512h-0.544v2.128h-1.269v-5.984h1.912c0.726,0,1.277,0.156,1.656,0.469
	C94.131,149.831,94.32,150.297,94.32,150.917L94.32,150.917z M91.455,151.866h0.418c0.39,0,0.682-0.077,0.875-0.231
	s0.291-0.379,0.291-0.673c0-0.297-0.082-0.517-0.244-0.659c-0.162-0.142-0.417-0.213-0.763-0.213h-0.577V151.866L91.455,151.866z
	 M74.398,124.067c-0.888-0.292-2.165-0.34-3.833-0.34h-5.99v8.95h6.455c1.12,0,1.906-0.111,2.359-0.196
	c0.798-0.142,1.465-0.416,2.001-0.75c0.536-0.333,0.977-0.836,1.322-1.474c0.345-0.637,0.518-1.381,0.518-2.215
	c0-0.978-0.25-1.781-0.75-2.502C75.98,124.82,75.286,124.359,74.398,124.067L74.398,124.067z M73.479,120.213
	c0.881-0.262,1.546-0.737,1.992-1.344c0.447-0.607,0.67-1.389,0.67-2.307c0-0.87-0.208-1.645-0.626-2.306
	c-0.417-0.662-1.013-1.11-1.786-1.354c-0.775-0.244-2.104-0.362-3.985-0.362h-5.168v8.055h5.597
	C71.709,120.595,72.811,120.417,73.479,120.213L73.479,120.213z M93.663,105.884c0-3.491-2.83-6.321-6.322-6.321H52.549
	c-3.491,0-6.322,2.83-6.322,6.321v34.792c0,3.491,2.831,6.321,6.322,6.321h34.792c3.492,0,6.322-2.83,6.322-6.321V105.884z
	 M80.045,131.456c-0.518,1.054-1.159,1.867-1.921,2.439c-0.762,0.571-1.719,1.094-2.868,1.386c-1.15,0.292-2.559,0.528-4.227,0.528
	H60.995v-26.402h9.874c2.002,0,3.606,0.277,4.816,0.807c1.209,0.53,2.156,1.352,2.842,2.454c0.685,1.102,1.028,2.258,1.028,3.461
	c0,1.12-0.305,2.175-0.911,3.164c-0.608,0.989-1.525,1.788-2.752,2.396c1.584,0.464,2.803,1.258,3.654,2.377
	c0.852,1.12,1.278,2.442,1.278,3.967C80.823,129.261,80.564,130.402,80.045,131.456L80.045,131.456z"/>
</svg>
