<?xml version="1.0" encoding="utf-8"?>
<!-- Generator: Adobe Illustrator 16.0.0, SVG Export Plug-In . SVG Version: 6.00 Build 0)  -->
<!DOCTYPE svg PUBLIC "-//W3C//DTD SVG 1.1//EN" "http://www.w3.org/Graphics/SVG/1.1/DTD/svg11.dtd">
<svg version="1.1" id="Layer_1" xmlns="http://www.w3.org/2000/svg" xmlns:xlink="http://www.w3.org/1999/xlink" x="0px" y="0px"
	 width="612px" height="792px" viewBox="0 0 612 792" enable-background="new 0 0 612 792" xml:space="preserve">
<path fill="#1572B6" d="M14.91,61.897l-4.5-50.471h49.445L55.352,61.89l-20.249,5.614L14.91,61.897L14.91,61.897z"/>
<path fill="#33A9DC" d="M35.134,63.213l16.362-4.537l3.85-43.123H35.134V63.213L35.134,63.213z"/>
<path fill="#FFFFFF" d="M35.134,33.839h8.191l0.566-6.339h-8.757v-6.19h15.522l-0.149,1.661l-1.521,17.058H35.134V33.839
	L35.134,33.839z"/>
<path fill="#EBEBEB" d="M35.17,49.915l-0.027,0.008l-6.894-1.861l-0.441-4.937h-6.213l0.867,9.719l12.679,3.519l0.028-0.008V49.915
	L35.17,49.915z"/>
<path fill="#FFFFFF" d="M42.798,39.767l-0.746,8.29l-6.904,1.863v6.44l12.69-3.517l0.093-1.046l1.077-12.03H42.798L42.798,39.767z"
	/>
<path fill="#EBEBEB" d="M35.155,21.31v6.19H20.203l-0.124-1.391l-0.282-3.138l-0.148-1.661H35.155z M35.134,33.839v6.19h-6.807
	l-0.124-1.391L27.92,35.5l-0.147-1.661H35.134z"/>
</svg>
