<?xml version="1.0" encoding="utf-8"?>
<!-- Generator: Adobe Illustrator 16.0.0, SVG Export Plug-In . SVG Version: 6.00 Build 0)  -->
<!DOCTYPE svg PUBLIC "-//W3C//DTD SVG 1.1//EN" "http://www.w3.org/Graphics/SVG/1.1/DTD/svg11.dtd">
<svg version="1.1" id="Express" xmlns="http://www.w3.org/2000/svg" xmlns:xlink="http://www.w3.org/1999/xlink" x="0px" y="0px"
	 width="151.431px" height="33.792px" viewBox="10.184 330.01 151.431 33.792"
	 enable-background="new 10.184 330.01 151.431 33.792" xml:space="preserve">
<title>Artboard 12</title>
<g id="original-wordmark">
	<path fill="#FFFFFF" d="M57.163,363.803v-33.13h1.799v5.211c0.212-0.231,0.408-0.476,0.587-0.734
		c1.5-3.114,4.667-5.079,8.124-5.041c4.099-0.122,7.426,1.395,9.384,5.041c2.527,4.596,2.673,10.13,0.391,14.853
		c-1.823,4.086-6.325,6.117-11.145,5.371c-3.048-0.26-5.756-2.047-7.194-4.747v13.176H57.163z M58.962,342.393
		c0.159,1.615,0.22,2.765,0.403,3.891c0.71,4.429,3.328,7.059,7.438,7.536c3.98,0.654,7.868-1.595,9.286-5.371
		c1.598-3.81,1.482-8.124-0.318-11.842c-1.508-3.372-5.066-5.338-8.723-4.82c-3.426,0.248-6.318,2.64-7.206,5.958
		C59.459,339.275,59.165,340.828,58.962,342.393z"/>
	<path fill="#FFFFFF" d="M115.74,346.895c-0.563,4.825-4.612,8.487-9.469,8.564c-7.536,0.379-11.072-4.625-11.635-10.399
		c-0.391-3.136,0.119-6.318,1.468-9.176c1.929-4.022,6.239-6.333,10.656-5.713c4.197,0.356,7.695,3.357,8.686,7.451
		c0.383,1.818,0.665,3.656,0.844,5.505H96.484c-0.367,5.236,2.447,9.445,6.435,10.46c4.967,1.223,9.212-0.93,10.754-5.652
		C114.016,346.724,114.639,346.553,115.74,346.895z M96.484,341.451h17.703c-0.11-5.579-3.584-9.616-8.294-9.677
		C100.558,331.688,96.716,335.579,96.484,341.451z"/>
	<path fill="#FFFFFF" d="M119.386,347.018h1.737c0.131,2.606,1.708,4.92,4.086,5.995c2.967,1.335,6.381,1.245,9.273-0.245
		c1.594-0.719,2.571-2.354,2.447-4.099c0.092-1.687-0.947-3.23-2.545-3.78c-1.908-0.709-3.939-1.101-5.885-1.725
		c-2.024-0.576-4.003-1.3-5.921-2.165c-3.132-1.529-3.328-7.487,0.22-9.372c3.691-2.083,8.187-2.152,11.941-0.184
		c2.291,1.267,3.558,3.82,3.181,6.411h-1.493c0-0.073-0.134-0.134-0.134-0.208c-0.184-4.759-4.172-6.227-8.454-5.811
		c-1.278,0.158-2.52,0.534-3.67,1.113c-1.417,0.648-2.27,2.119-2.129,3.67c0.004,1.551,0.984,2.933,2.447,3.45
		c1.884,0.685,3.854,1.125,5.787,1.664c1.554,0.428,3.168,0.709,4.674,1.224c2.174,0.712,3.683,2.693,3.792,4.979
		c0.372,2.509-0.905,4.974-3.168,6.117c-4.086,2.312-10.815,1.701-13.812-1.223C120.225,351.286,119.371,349.193,119.386,347.018z"
		/>
	<path fill="#FFFFFF" d="M160.762,337.854h-1.627c0-0.22-0.085-0.416-0.11-0.599c-0.055-2.514-1.861-4.646-4.331-5.114
		c-2.262-0.649-4.674-0.533-6.863,0.331c-1.777,0.509-3.007,2.127-3.022,3.976c-0.062,1.822,1.164,3.438,2.937,3.866
		c2.447,0.759,4.955,1.224,7.438,1.909c0.805,0.193,1.598,0.434,2.374,0.722c3.181,1.138,4.837,4.64,3.699,7.82
		c-0.575,1.608-1.796,2.902-3.368,3.57c-3.491,1.585-7.489,1.625-11.011,0.11c-2.934-1.265-4.769-4.223-4.6-7.414h0.685h0.905
		c1,4.823,5.72,7.922,10.543,6.923c1.081-0.224,2.111-0.646,3.037-1.246c1.514-0.787,2.431-2.382,2.349-4.086
		c0.076-1.688-0.978-3.222-2.581-3.756c-1.909-0.709-3.939-1.089-5.885-1.713c-2.036-0.567-4.027-1.283-5.958-2.141
		c-3.059-1.505-3.303-7.414,0.184-9.298c3.741-2.172,8.348-2.224,12.136-0.134C159.868,332.877,161.072,335.338,160.762,337.854z"/>
	<path fill="#FFFFFF" d="M54.19,354.859c-1.326,0.502-2.817-0.065-3.475-1.321c-1.994-2.985-4.196-5.835-6.313-8.747l-0.917-1.224
		c-2.52,3.377-5.041,6.619-7.34,9.983c-0.62,1.2-2.033,1.754-3.303,1.297l9.457-12.687l-8.796-11.463
		c1.305-0.471,2.762,0.04,3.487,1.223c2.043,2.985,4.306,5.836,6.558,8.858c2.263-2.998,4.502-5.86,6.594-8.821
		c0.624-1.181,2.033-1.708,3.278-1.224l-3.413,4.527c-1.529,2.019-3.034,4.049-4.625,6.019c-0.503,0.451-0.546,1.224-0.095,1.728
		c0.03,0.034,0.062,0.065,0.095,0.095C48.306,346.981,51.205,350.871,54.19,354.859z"/>
	<path fill="#FFFFFF" d="M94.343,330.575v1.713c-4.888-0.321-9.11,3.382-9.431,8.27c-0.02,0.297-0.024,0.596-0.014,0.894
		c0,4.029,0,8.058,0,12.087c0,0.429,0,0.856,0,1.371h-1.75v-24.236h1.713v4.967C86.978,332.019,90.245,330.673,94.343,330.575z"/>
	<path fill="#FFFFFF" d="M10.184,342.001c0.257-1.223,0.416-2.557,0.771-3.805c2.116-7.524,10.741-10.656,16.675-5.995
		c3.475,2.728,4.343,6.594,4.172,10.949H12.227c-0.318,7.781,5.297,12.479,12.479,10.081c2.367-0.846,4.147-2.829,4.734-5.273
		c0.379-1.223,0.991-1.431,2.153-1.077c-0.388,3.018-2.137,5.691-4.747,7.255c-4.366,2.387-9.772,1.696-13.396-1.713
		c-1.748-1.965-2.805-4.449-3.01-7.071c0-0.416-0.159-0.832-0.245-1.223C10.188,343.404,10.184,342.695,10.184,342.001z
		 M12.251,341.476h17.703c-0.11-5.64-3.67-9.641-8.417-9.677c-5.286-0.074-9.066,3.841-9.298,9.653L12.251,341.476z"/>
</g>
</svg>
