<?xml version="1.0" encoding="utf-8"?>
<!-- Generator: Adobe Illustrator 16.0.0, SVG Export Plug-In . SVG Version: 6.00 Build 0)  -->
<!DOCTYPE svg PUBLIC "-//W3C//DTD SVG 1.1//EN" "http://www.w3.org/Graphics/SVG/1.1/DTD/svg11.dtd">
<svg version="1.1" id="Layer_1" xmlns="http://www.w3.org/2000/svg" xmlns:xlink="http://www.w3.org/1999/xlink" x="0px" y="0px"
	 width="105.719px" height="44.158px" viewBox="7.554 271.343 105.719 44.158"
	 enable-background="new 7.554 271.343 105.719 44.158" xml:space="preserve">
<path fill="#31251C" d="M70.912,286.373c-2.318,0-4.043,1.138-4.043,3.877c0,2.064,1.137,3.497,3.919,3.497
	c2.357,0,3.96-1.39,3.96-3.582C74.747,287.681,73.313,286.373,70.912,286.373L70.912,286.373z M66.279,305.715
	c-0.549,0.673-1.096,1.389-1.096,2.233c0,1.685,2.148,2.191,5.099,2.191c2.443,0,5.771-0.171,5.771-2.443
	c0-1.351-1.602-1.434-3.625-1.561L66.279,305.715L66.279,305.715z M78.748,286.5c0.758,0.969,1.56,2.318,1.56,4.256
	c0,4.676-3.666,7.415-8.974,7.415c-1.35,0-2.572-0.168-3.33-0.379l-1.391,2.233l4.128,0.251c7.29,0.465,11.586,0.676,11.586,6.278
	c0,4.847-4.255,7.584-11.586,7.584c-7.626,0-10.533-1.939-10.533-5.266c0-1.897,0.843-2.906,2.318-4.299
	c-1.392-0.587-1.854-1.64-1.854-2.778c0-0.927,0.463-1.77,1.222-2.571c0.758-0.799,1.601-1.601,2.611-2.527
	c-2.064-1.011-3.623-3.202-3.623-6.321c0-4.845,3.202-8.172,9.648-8.172c1.812,0,2.909,0.167,3.876,0.422h8.217v3.58L78.748,286.5
	L78.748,286.5z M90.038,278.845c-2.402,0-3.793-1.392-3.793-3.794c0-2.399,1.391-3.707,3.793-3.707c2.444,0,3.833,1.307,3.833,3.707
	C93.873,277.453,92.482,278.845,90.038,278.845z M84.601,304.165v-3.327l2.15-0.295c0.589-0.084,0.673-0.211,0.673-0.844v-12.387
	c0-0.462-0.125-0.758-0.548-0.884l-2.276-0.801l0.463-3.411h8.724V299.7c0,0.676,0.041,0.759,0.674,0.844l2.149,0.295v3.327
	L84.601,304.165L84.601,304.165z M113.273,302.531c-1.813,0.883-4.466,1.685-6.87,1.685c-5.013,0-6.909-2.021-6.909-6.784v-11.039
	c0-0.251,0-0.421-0.338-0.421h-2.948v-3.75c3.709-0.423,5.183-2.276,5.646-6.869h4.004v5.984c0,0.294,0,0.422,0.337,0.422h5.94
	v4.213h-6.278v10.069c0,2.485,0.59,3.454,2.865,3.454c1.182,0,2.402-0.294,3.413-0.673L113.273,302.531z"/>
<path fill="#F34F29" d="M50.844,291.474L31.579,272.21c-1.108-1.109-2.908-1.109-4.018,0l-4,4.001l5.074,5.074
	c1.181-0.398,2.532-0.131,3.472,0.81c0.945,0.946,1.21,2.309,0.802,3.493l4.891,4.89c1.182-0.407,2.548-0.144,3.493,0.802
	c1.321,1.32,1.321,3.46,0,4.781c-1.322,1.321-3.461,1.321-4.782,0c-0.993-0.994-1.239-2.453-0.736-3.677l-4.561-4.561l-0.001,12.003
	c0.323,0.159,0.626,0.371,0.894,0.639c1.321,1.32,1.321,3.459,0,4.782c-1.321,1.32-3.461,1.32-4.781,0
	c-1.321-1.323-1.321-3.462,0-4.782c0.327-0.326,0.704-0.573,1.107-0.738v-12.114c-0.403-0.164-0.78-0.41-1.107-0.737
	c-1.001-1-1.242-2.468-0.729-3.697l-5.001-5.003l-13.21,13.209c-1.11,1.11-1.11,2.91,0,4.02l19.265,19.264
	c1.109,1.109,2.908,1.109,4.02,0l19.174-19.176C51.954,294.384,51.954,292.583,50.844,291.474L50.844,291.474z"/>
<path fill="none" d="M7.554,271.343h105.719V315.5H7.554V271.343z"/>
</svg>
