<?xml version="1.0" encoding="utf-8"?>
<!-- Generator: Adobe Illustrator 16.0.0, SVG Export Plug-In . SVG Version: 6.00 Build 0)  -->
<!DOCTYPE svg PUBLIC "-//W3C//DTD SVG 1.1//EN" "http://www.w3.org/Graphics/SVG/1.1/DTD/svg11.dtd">
<svg version="1.1" id="Layer_1" xmlns="http://www.w3.org/2000/svg" xmlns:xlink="http://www.w3.org/1999/xlink" x="0px" y="0px"
	 width="120.097px" height="50.164px" viewBox="7.554 271.343 120.097 50.164"
	 enable-background="new 7.554 271.343 120.097 50.164" xml:space="preserve">
<path fill="#31251C" d="M79.528,288.417c-2.633,0-4.594,1.293-4.594,4.405c0,2.345,1.292,3.972,4.452,3.972
	c2.678,0,4.499-1.579,4.499-4.069C83.885,289.902,82.256,288.417,79.528,288.417L79.528,288.417z M74.265,310.389
	c-0.624,0.765-1.245,1.578-1.245,2.537c0,1.914,2.44,2.489,5.792,2.489c2.775,0,6.557-0.194,6.557-2.775
	c0-1.534-1.82-1.628-4.118-1.773L74.265,310.389L74.265,310.389z M88.43,288.561c0.861,1.102,1.772,2.633,1.772,4.835
	c0,5.312-4.165,8.423-10.194,8.423c-1.534,0-2.922-0.191-3.783-0.43l-1.58,2.537l4.69,0.286c8.281,0.528,13.162,0.768,13.162,7.131
	c0,5.506-4.833,8.615-13.162,8.615c-8.664,0-11.966-2.202-11.966-5.982c0-2.155,0.958-3.301,2.633-4.883
	c-1.581-0.667-2.105-1.863-2.105-3.156c0-1.054,0.526-2.011,1.388-2.921c0.862-0.908,1.819-1.819,2.967-2.871
	c-2.345-1.149-4.116-3.638-4.116-7.181c0-5.503,3.638-9.283,10.96-9.283c2.059,0,3.304,0.189,4.404,0.479h9.334v4.067L88.43,288.561
	L88.43,288.561z M101.256,279.865c-2.729,0-4.309-1.581-4.309-4.31c0-2.725,1.58-4.21,4.309-4.21c2.776,0,4.355,1.484,4.355,4.21
	C105.612,278.284,104.032,279.865,101.256,279.865z M95.08,308.629v-3.78l2.443-0.335c0.669-0.096,0.765-0.24,0.765-0.959v-14.071
	c0-0.525-0.143-0.862-0.623-1.004l-2.585-0.91l0.526-3.875h9.91v19.862c0,0.768,0.046,0.862,0.766,0.959l2.442,0.335v3.78
	L95.08,308.629L95.08,308.629z M127.65,306.772c-2.06,1.003-5.073,1.915-7.804,1.915c-5.695,0-7.848-2.295-7.848-7.707v-12.54
	c0-0.286,0-0.478-0.384-0.478h-3.35v-4.26c4.214-0.48,5.888-2.586,6.414-7.803h4.548v6.798c0,0.334,0,0.479,0.383,0.479h6.748v4.786
	h-7.131v11.438c0,2.823,0.67,3.924,3.254,3.924c1.342,0,2.729-0.334,3.877-0.765L127.65,306.772z"/>
<path fill="#F34F29" d="M56.731,294.212l-21.885-21.884c-1.259-1.26-3.304-1.26-4.564,0l-4.544,4.545l5.764,5.764
	c1.341-0.452,2.876-0.149,3.944,0.919c1.074,1.075,1.375,2.624,0.911,3.969l5.556,5.555c1.343-0.462,2.895-0.164,3.968,0.911
	c1.501,1.5,1.501,3.931,0,5.432c-1.501,1.5-3.932,1.5-5.433,0c-1.128-1.129-1.407-2.787-0.836-4.177l-5.181-5.181L34.43,303.7
	c0.366,0.181,0.711,0.421,1.016,0.726c1.501,1.5,1.501,3.93,0,5.433c-1.5,1.5-3.933,1.5-5.431,0c-1.501-1.503-1.501-3.933,0-5.433
	c0.371-0.371,0.799-0.65,1.257-0.838v-13.762c-0.458-0.187-0.886-0.465-1.257-0.838c-1.137-1.136-1.411-2.803-0.828-4.199
	l-5.682-5.684L8.499,294.111c-1.261,1.261-1.261,3.306,0,4.567l21.885,21.884c1.26,1.26,3.304,1.26,4.566,0l21.782-21.784
	C57.993,297.518,57.993,295.472,56.731,294.212L56.731,294.212z"/>
<path fill="none" d="M7.554,271.343H127.65v50.162H7.554V271.343z"/>
</svg>
