<?xml version="1.0" encoding="utf-8"?>
<!-- Generator: Adobe Illustrator 16.0.0, SVG Export Plug-In . SVG Version: 6.00 Build 0)  -->
<!DOCTYPE svg PUBLIC "-//W3C//DTD SVG 1.1//EN" "http://www.w3.org/Graphics/SVG/1.1/DTD/svg11.dtd">
<svg version="1.1" id="Layer_1" xmlns="http://www.w3.org/2000/svg" xmlns:xlink="http://www.w3.org/1999/xlink" x="0px" y="0px"
	 width="50.103px" height="49.766px" viewBox="1.568 97.229 50.103 49.766" enable-background="new 1.568 97.229 50.103 49.766"
	 xml:space="preserve">
<g>
	<path fill="#181616" d="M26.62,97.229c-9.243,0-16.739,7.494-16.739,16.739c0,7.396,4.796,13.67,11.447,15.883
		c0.836,0.155,1.144-0.363,1.144-0.806c0-0.399-0.016-1.717-0.023-3.116c-4.657,1.012-5.64-1.975-5.64-1.975
		c-0.761-1.935-1.858-2.45-1.858-2.45c-1.519-1.039,0.114-1.018,0.114-1.018c1.682,0.118,2.567,1.726,2.567,1.726
		c1.493,2.559,3.916,1.819,4.871,1.391c0.151-1.082,0.584-1.821,1.063-2.239c-3.718-0.423-7.626-1.859-7.626-8.272
		c0-1.828,0.654-3.321,1.725-4.493c-0.174-0.422-0.747-2.125,0.162-4.43c0,0,1.405-0.45,4.603,1.716
		c1.336-0.371,2.768-0.557,4.19-0.563c1.422,0.007,2.855,0.193,4.193,0.563c3.194-2.166,4.598-1.716,4.598-1.716
		c0.912,2.305,0.339,4.008,0.165,4.43c1.073,1.172,1.723,2.666,1.723,4.493c0,6.429-3.916,7.845-7.644,8.259
		c0.601,0.519,1.136,1.538,1.136,3.1c0,2.24-0.019,4.042-0.019,4.593c0,0.444,0.301,0.967,1.15,0.803
		c6.647-2.216,11.437-8.488,11.437-15.882C43.359,104.724,35.865,97.229,26.62,97.229z"/>
	<path fill="#181616" d="M16.221,121.263c-0.038,0.083-0.168,0.108-0.288,0.051c-0.122-0.055-0.189-0.168-0.15-0.252
		c0.035-0.085,0.167-0.109,0.288-0.052C16.194,121.065,16.263,121.179,16.221,121.263L16.221,121.263z M16.899,122.02
		c-0.08,0.074-0.236,0.04-0.342-0.078c-0.109-0.117-0.13-0.273-0.049-0.348c0.082-0.074,0.233-0.039,0.342,0.078
		C16.96,121.79,16.982,121.944,16.899,122.02L16.899,122.02z M17.559,122.983c-0.102,0.071-0.27,0.004-0.374-0.145
		c-0.103-0.148-0.103-0.327,0.002-0.398c0.104-0.072,0.269-0.007,0.374,0.14C17.664,122.732,17.664,122.911,17.559,122.983
		L17.559,122.983z M18.463,123.915c-0.092,0.101-0.287,0.074-0.43-0.064c-0.146-0.135-0.187-0.327-0.095-0.428
		c0.093-0.101,0.29-0.073,0.434,0.064C18.517,123.622,18.561,123.813,18.463,123.915L18.463,123.915z M19.711,124.455
		c-0.041,0.131-0.229,0.191-0.418,0.135c-0.19-0.057-0.313-0.211-0.276-0.343c0.04-0.132,0.229-0.194,0.42-0.134
		C19.625,124.169,19.75,124.321,19.711,124.455L19.711,124.455z M21.08,124.556c0.005,0.138-0.156,0.252-0.355,0.255
		c-0.2,0.004-0.362-0.107-0.364-0.243c0-0.14,0.157-0.253,0.357-0.256C20.917,124.308,21.08,124.418,21.08,124.556L21.08,124.556z
		 M22.355,124.339c0.023,0.134-0.114,0.273-0.312,0.31c-0.194,0.036-0.374-0.047-0.399-0.181c-0.024-0.138,0.117-0.275,0.311-0.312
		C22.153,124.121,22.33,124.202,22.355,124.339L22.355,124.339z"/>
</g>
<g>
	<path fill="#100E0F" d="M11.218,139.246h-4.21c-0.108,0-0.196,0.088-0.196,0.197v2.058c0,0.109,0.088,0.197,0.196,0.197H8.65v2.558
		c0,0-0.369,0.126-1.389,0.126c-1.203,0-2.883-0.439-2.883-4.134c0-3.696,1.75-4.183,3.393-4.183c1.422,0,2.034,0.25,2.424,0.371
		c0.122,0.037,0.236-0.085,0.236-0.193l0.47-1.989c0.001-0.06-0.027-0.118-0.076-0.153c-0.159-0.113-1.124-0.653-3.564-0.653
		c-2.811,0-5.694,1.195-5.694,6.944c0,5.748,3.301,6.604,6.083,6.604c2.303,0,3.701-0.984,3.701-0.984
		c0.057-0.031,0.063-0.112,0.063-0.149v-6.419C11.415,139.333,11.327,139.245,11.218,139.246L11.218,139.246z M32.721,133.937H30.35
		c-0.108,0-0.196,0.089-0.196,0.198l0,0l0,4.582h-3.695v-4.582c0-0.108-0.087-0.197-0.196-0.198l0,0h-2.371
		c-0.108,0-0.196,0.089-0.196,0.198l0,0v12.405c0,0.109,0.088,0.198,0.196,0.198h2.371c0.109-0.001,0.196-0.089,0.196-0.198l0,0
		v-5.306h3.695l-0.006,5.306c0,0.109,0.088,0.198,0.197,0.198h2.376c0.108-0.001,0.196-0.089,0.195-0.198l0,0v-12.405
		C32.916,134.025,32.83,133.937,32.721,133.937L32.721,133.937z M14.163,134.219c-0.843,0-1.528,0.69-1.528,1.543
		c0,0.853,0.685,1.544,1.528,1.544c0.845,0,1.529-0.692,1.529-1.544C15.692,134.909,15.007,134.219,14.163,134.219z M15.326,138
		h-2.363c-0.109,0-0.206,0.112-0.206,0.22v8.204c0,0.241,0.15,0.312,0.345,0.312h2.128c0.234,0,0.292-0.115,0.292-0.316v-2.497
		v-5.726C15.523,138.089,15.435,138,15.326,138L15.326,138L15.326,138z M41.926,138.018h-2.353c-0.109,0-0.196,0.089-0.195,0.198
		l0,0v6.083c0,0-0.598,0.437-1.446,0.437c-0.848,0-1.073-0.384-1.073-1.215v-5.304c0-0.109-0.086-0.198-0.195-0.198c0,0,0,0,0,0
		h-2.387c-0.109,0-0.196,0.089-0.196,0.198v5.706c0,2.467,1.375,3.07,3.266,3.07c1.552,0,2.803-0.857,2.803-0.857
		s0.059,0.452,0.086,0.505c0.027,0.054,0.097,0.107,0.173,0.107l1.519-0.006c0.109,0,0.197-0.089,0.197-0.199l0,0l-0.001-8.328
		C42.123,138.106,42.035,138.019,41.926,138.018L41.926,138.018z M48.355,137.739c-1.336,0-2.245,0.596-2.245,0.596v-4.201
		c0-0.109-0.087-0.197-0.196-0.198l0,0h-2.376c-0.109,0-0.197,0.088-0.197,0.197c0,0,0,0.001,0,0.001v12.405
		c-0.001,0.108,0.087,0.197,0.195,0.198c0,0,0.001,0,0.001,0h1.649c0.075,0,0.131-0.038,0.172-0.105
		c0.041-0.067,0.1-0.572,0.1-0.572s0.972,0.92,2.812,0.92c2.16,0,3.399-1.095,3.399-4.919
		C51.671,138.239,49.692,137.739,48.355,137.739L48.355,137.739z M47.427,144.729c-0.815-0.025-1.369-0.395-1.369-0.395v-3.929
		c0,0,0.546-0.334,1.216-0.395c0.847-0.076,1.663,0.18,1.663,2.201C48.937,144.342,48.569,144.763,47.427,144.729L47.427,144.729z
		 M22.369,144.682c-0.104,0-0.369,0.042-0.642,0.042c-0.873,0-1.169-0.406-1.169-0.932v-3.488h1.778
		c0.109,0,0.197-0.088,0.197-0.197c0,0,0-0.001,0-0.001v-1.911c0-0.108-0.087-0.197-0.196-0.197c0,0,0,0-0.001,0h-1.778
		l-0.003-2.349c0-0.089-0.045-0.134-0.148-0.134h-2.424c-0.094,0-0.145,0.042-0.145,0.132v2.428c0,0-1.214,0.293-1.296,0.316
		c-0.084,0.025-0.142,0.102-0.142,0.189v1.525c0,0.109,0.087,0.197,0.196,0.198l0,0h1.242v3.67c0,2.727,1.912,2.994,3.203,2.994
		c0.589,0,1.294-0.189,1.411-0.232c0.071-0.026,0.111-0.099,0.111-0.178l0.001-1.678C22.563,144.771,22.476,144.684,22.369,144.682
		L22.369,144.682z"/>
</g>
</svg>
