<?xml version="1.0" encoding="utf-8"?>
<!-- Generator: Adobe Illustrator 16.0.0, SVG Export Plug-In . SVG Version: 6.00 Build 0)  -->
<!DOCTYPE svg PUBLIC "-//W3C//DTD SVG 1.1//EN" "http://www.w3.org/Graphics/SVG/1.1/DTD/svg11.dtd">
<svg version="1.1" id="Layer_1" xmlns="http://www.w3.org/2000/svg" xmlns:xlink="http://www.w3.org/1999/xlink" x="0px" y="0px"
	 width="47.478px" height="47.094px" viewBox="9.562 10.311 47.478 47.094" enable-background="new 9.562 10.311 47.478 47.094"
	 xml:space="preserve">
<g>
	<path fill="#6762A6" d="M22.312,48.522c-1.532,0-2.795,0.191-3.714,0.536c-0.344,1.225-0.498,2.527-0.498,3.982
		c0,2.68,0.459,4.327,3.522,4.327c1.417,0,2.604-0.421,3.561-0.881l-0.307-1.378c-0.919,0.345-2.106,0.651-3.14,0.651
		c-1.34,0-1.761-0.344-1.837-2.642h5.743v-0.842C25.643,49.939,24.801,48.522,22.312,48.522z M19.9,52.044
		c0.038-1.148,0.115-1.455,0.191-1.799c0.727-0.153,1.569-0.153,2.144-0.153c1.263,0,1.493,0.804,1.493,1.953L19.9,52.044
		L19.9,52.044z M14.119,48.522c-1.034,0-1.876,0.268-3.024,0.574v-3.943H9.562v11.869h1.532v-6.356
		c1.148-0.383,1.914-0.574,2.68-0.574c0.383,0,0.766,0.191,0.766,0.651v6.471l0.153-0.153h1.761v-6.049
		C16.454,49.556,15.765,48.522,14.119,48.522L14.119,48.522z M55.508,48.599v6.662c-1.149,0.383-2.145,0.574-2.948,0.574
		c-0.383,0-0.881-0.191-0.881-0.651v-6.585h-1.531v6.394c0,1.417,0.498,2.412,2.144,2.412c1.034,0,2.833-0.153,4.748-1.34v-7.466
		H55.508z M48.539,48.599h-2.067c-0.498,1.148-1.225,2.68-2.144,3.446h-0.689v-6.892h-1.915v11.869h1.915v-3.829h0.804
		c1.072,1.148,1.761,2.68,2.297,3.829h2.144c-0.804-1.532-1.723-3.216-2.948-4.748C46.931,51.241,47.85,50.13,48.539,48.599z
		 M27.175,57.022h1.532v-6.356c0.766-0.306,1.914-0.421,2.68-0.459v-1.531c-1.148,0.077-2.68,0.345-4.211,1.187L27.175,57.022
		L27.175,57.022z M36.134,48.522c-2.336,0-3.944,1.225-3.944,4.479c0,3.063,1.225,4.403,3.944,4.403
		c2.335,0,3.943-1.225,3.943-4.479C40.078,49.862,38.853,48.522,36.134,48.522z M36.134,55.874c-1.532,0-2.183-0.536-2.183-2.872
		c0-2.144,0.766-2.948,2.183-2.948c1.531,0,2.182,0.536,2.182,2.872C38.278,55.069,37.513,55.874,36.134,55.874z M46.702,13.489
		c0-1.761-1.417-3.178-3.178-3.178H23.078c-1.761,0-3.178,1.417-3.178,3.178v26.955c0,1.761,1.417,3.178,3.178,3.178h20.445
		c1.761,0,3.178-1.417,3.178-3.178L46.702,13.489L46.702,13.489z M21.049,13.68c0-1.263,0.957-2.221,2.182-2.221h20.101
		c1.264,0,2.221,0.996,2.221,2.221v26.572c0,1.264-0.957,2.259-2.182,2.259h-20.14c-1.263,0-2.182-0.995-2.182-2.259V13.68
		L21.049,13.68z M41.686,14.906h-4.097c0,0-1.302,3.062-2.718,4.594h3.982C40.997,16.82,41.686,14.906,41.686,14.906L41.686,14.906z
		 M26.026,38.988l3.752-3.791l-3.752-3.752V38.988z M36.747,25.779v13.209l-0.038,0.039h3.484v-13.21
		c0-7.236-10.337-3.139-10.337-3.139v-7.849l-3.752,0.038c0,0,0,12.252,0.039,12.214C37.589,22.64,36.747,25.779,36.747,25.779
		L36.747,25.779z"/>
</g>
</svg>
