<?xml version="1.0" encoding="utf-8"?>
<!-- Generator: Adobe Illustrator 16.0.0, SVG Export Plug-In . SVG Version: 6.00 Build 0)  -->
<!DOCTYPE svg PUBLIC "-//W3C//DTD SVG 1.1//EN" "http://www.w3.org/Graphics/SVG/1.1/DTD/svg11.dtd">
<svg version="1.1" id="Layer_1" xmlns="http://www.w3.org/2000/svg" xmlns:xlink="http://www.w3.org/1999/xlink" x="0px" y="0px"
	 width="612px" height="792px" viewBox="0 0 612 792" enable-background="new 0 0 612 792" xml:space="preserve">
<path fill="#E44D26" d="M15.679,63.883l-4.423-49.607h48.6l-4.428,49.6l-19.902,5.517L15.679,63.883z"/>
<path fill="#F16529" d="M35.556,65.176l16.082-4.459l3.784-42.385H35.556V65.176z"/>
<path fill="#EBEBEB" d="M35.556,36.731h-8.051L26.949,30.5h8.607v-6.083H20.299l0.146,1.632l1.495,16.767h13.616V36.731z
	 M35.556,52.532l-0.027,0.008l-6.775-1.831l-0.433-4.852h-6.108l0.852,9.553l12.463,3.459l0.028-0.007V52.532z"/>
<path fill="#FFFFFF" d="M35.535,36.731v6.084h7.492l-0.706,7.891l-6.786,1.832v6.33l12.473-3.457l0.091-1.028l1.43-16.018
	l0.148-1.634h-1.639H35.535z M35.535,24.417V30.5h14.696l0.122-1.367l0.278-3.085l0.145-1.632H35.535z"/>
</svg>
