<?xml version="1.0" encoding="utf-8"?>
<!-- Generator: Adobe Illustrator 16.0.0, SVG Export Plug-In . SVG Version: 6.00 Build 0)  -->
<!DOCTYPE svg PUBLIC "-//W3C//DTD SVG 1.1//EN" "http://www.w3.org/Graphics/SVG/1.1/DTD/svg11.dtd">
<svg version="1.1" id="Layer_1" xmlns="http://www.w3.org/2000/svg" xmlns:xlink="http://www.w3.org/1999/xlink" x="0px" y="0px"
	 width="612px" height="792px" viewBox="0 0 612 792" enable-background="new 0 0 612 792" xml:space="preserve">
<path fill="#F0DB4F" d="M6.732,11.732H56.5V61.5H6.732V11.732z"/>
<path fill="#323330" d="M52.427,49.63c-0.365-2.27-1.845-4.177-6.23-5.956c-1.523-0.7-3.222-1.201-3.728-2.356
	c-0.18-0.672-0.204-1.05-0.09-1.457c0.326-1.32,1.902-1.731,3.15-1.353c0.805,0.269,1.566,0.889,2.025,1.878
	c2.148-1.391,2.144-1.382,3.643-2.337c-0.549-0.851-0.842-1.244-1.202-1.608c-1.292-1.443-3.052-2.186-5.866-2.129l-1.466,0.189
	c-1.405,0.355-2.744,1.092-3.529,2.081c-2.355,2.673-1.684,7.352,1.183,9.277c2.824,2.12,6.973,2.602,7.503,4.584
	c0.516,2.427-1.783,3.212-4.068,2.933c-1.684-0.35-2.621-1.206-3.633-2.763c-1.864,1.079-1.864,1.079-3.78,2.181
	c0.455,0.994,0.932,1.443,1.694,2.304c3.605,3.656,12.626,3.477,14.244-2.058C52.341,52.852,52.777,51.584,52.427,49.63
	L52.427,49.63z M33.787,34.605h-4.655L29.113,46.64c0,2.56,0.132,4.906-0.284,5.625c-0.681,1.415-2.445,1.239-3.25,0.965
	c-0.818-0.402-1.235-0.974-1.717-1.783c-0.132-0.232-0.232-0.412-0.265-0.425l-3.785,2.317c0.629,1.292,1.556,2.413,2.744,3.141
	c1.774,1.065,4.158,1.391,6.652,0.819c1.623-0.473,3.023-1.452,3.756-2.942c1.06-1.954,0.833-4.319,0.823-6.935
	C33.811,43.154,33.787,38.887,33.787,34.605z"/>
</svg>
