<?xml version="1.0" encoding="utf-8"?>
<!-- Generator: Adobe Illustrator 16.0.0, SVG Export Plug-In . SVG Version: 6.00 Build 0)  -->
<!DOCTYPE svg PUBLIC "-//W3C//DTD SVG 1.1//EN" "http://www.w3.org/Graphics/SVG/1.1/DTD/svg11.dtd">
<svg version="1.1" id="Layer_1" xmlns="http://www.w3.org/2000/svg" xmlns:xlink="http://www.w3.org/1999/xlink" x="0px" y="0px"
	 width="612px" height="792px" viewBox="0 0 612 792" enable-background="new 0 0 612 792" xml:space="preserve">
<path fill="#0868AC" d="M15.688,20.151c-2.902,4.171-2.541,9.597-0.324,14.029l0.163,0.315l0.104,0.2l0.065,0.115l0.116,0.207
	c0.068,0.121,0.139,0.241,0.211,0.362l0.121,0.199c0.081,0.129,0.162,0.256,0.246,0.384l0.105,0.162
	c0.115,0.172,0.233,0.344,0.355,0.514l0.01,0.013l0.06,0.081c0.105,0.146,0.214,0.289,0.324,0.432l0.122,0.155
	c0.099,0.124,0.198,0.246,0.3,0.369l0.114,0.137c0.136,0.16,0.276,0.32,0.417,0.477l0.008,0.009l0.016,0.018
	c0.139,0.151,0.28,0.299,0.424,0.447l0.136,0.137c0.111,0.112,0.225,0.222,0.339,0.332l0.139,0.132
	c0.153,0.144,0.307,0.285,0.464,0.422l0.007,0.006l0.081,0.069c0.139,0.12,0.279,0.238,0.421,0.356l0.175,0.139
	c0.116,0.093,0.233,0.185,0.351,0.275l0.188,0.142c0.13,0.096,0.262,0.19,0.394,0.283l0.144,0.102l0.04,0.028
	c0.125,0.087,0.255,0.17,0.383,0.253l0.166,0.11c0.197,0.125,0.397,0.248,0.6,0.367l0.166,0.094c0.148,0.085,0.298,0.17,0.45,0.252
	l0.25,0.129l0.322,0.167l0.074,0.036l0.132,0.063c0.168,0.081,0.339,0.16,0.51,0.237l0.108,0.048
	c0.197,0.086,0.395,0.168,0.595,0.248l0.146,0.057c0.185,0.072,0.373,0.142,0.562,0.208l0.071,0.024
	c0.207,0.072,0.416,0.139,0.626,0.205l0.151,0.045c0.214,0.065,0.426,0.142,0.646,0.183c14.035,2.559,18.111-8.434,18.111-8.434
	c-3.424,4.46-9.501,5.637-15.259,4.327c-0.218-0.049-0.43-0.118-0.643-0.18l-0.16-0.049c-0.208-0.063-0.414-0.13-0.619-0.201
	l-0.085-0.03c-0.184-0.065-0.365-0.133-0.545-0.203l-0.153-0.06c-0.198-0.078-0.395-0.16-0.589-0.245l-0.118-0.053
	c-0.167-0.075-0.333-0.151-0.497-0.231l-0.144-0.069c-0.129-0.063-0.256-0.129-0.384-0.195l-0.256-0.135
	c-0.156-0.083-0.309-0.17-0.461-0.258l-0.155-0.086c-0.203-0.12-0.402-0.243-0.6-0.368l-0.162-0.108
	c-0.144-0.092-0.286-0.187-0.427-0.284l-0.138-0.097c-0.136-0.096-0.271-0.193-0.404-0.292l-0.179-0.135
	c-0.122-0.094-0.244-0.188-0.364-0.285l-0.163-0.13c-0.153-0.125-0.304-0.252-0.453-0.382l-0.05-0.042
	c-0.162-0.142-0.32-0.288-0.477-0.434l-0.134-0.129c-0.116-0.11-0.23-0.222-0.343-0.336l-0.134-0.134
	c-0.143-0.146-0.283-0.294-0.42-0.444l-0.021-0.022c-0.146-0.159-0.288-0.321-0.426-0.485l-0.112-0.132
	c-0.104-0.125-0.207-0.252-0.307-0.379l-0.113-0.14c-0.121-0.157-0.239-0.313-0.354-0.472c-3.196-4.361-4.345-10.375-1.79-15.314
	 M24.697,16.637c-2.099,3.02-1.985,7.063-0.347,10.256c0.274,0.536,0.583,1.055,0.928,1.549c0.314,0.451,0.663,0.987,1.081,1.35
	c0.151,0.167,0.31,0.329,0.471,0.489l0.124,0.123c0.157,0.152,0.316,0.302,0.481,0.447l0.02,0.017l0.005,0.005
	c0.183,0.16,0.371,0.313,0.562,0.465l0.127,0.1c0.192,0.146,0.387,0.291,0.587,0.429l0.017,0.013l0.269,0.176l0.127,0.084
	c0.144,0.092,0.288,0.181,0.436,0.267l0.062,0.037c0.127,0.073,0.256,0.145,0.385,0.215l0.137,0.071l0.269,0.14l0.041,0.019
	c0.185,0.091,0.372,0.179,0.562,0.262l0.124,0.051c0.152,0.064,0.306,0.127,0.461,0.187l0.197,0.073
	c0.141,0.052,0.281,0.1,0.423,0.147l0.191,0.061c0.202,0.062,0.401,0.142,0.611,0.177c10.836,1.795,13.337-6.548,13.337-6.548
	c-2.255,3.248-6.622,4.797-11.282,3.588c-0.207-0.055-0.412-0.114-0.614-0.177l-0.185-0.06c-0.144-0.046-0.287-0.096-0.429-0.148
	l-0.194-0.072c-0.155-0.06-0.309-0.122-0.462-0.187l-0.125-0.053c-0.191-0.083-0.38-0.171-0.565-0.263l-0.283-0.144l-0.164-0.084
	c-0.121-0.065-0.241-0.134-0.359-0.203l-0.085-0.048c-0.147-0.086-0.292-0.174-0.434-0.266l-0.131-0.087l-0.281-0.187
	c-0.2-0.138-0.395-0.282-0.586-0.428l-0.132-0.104c-2.04-1.61-3.657-3.812-4.425-6.307c-0.806-2.588-0.632-5.494,0.764-7.852
	 M32.273,14.012c-1.237,1.82-1.359,4.082-0.5,6.093c0.905,2.134,2.76,3.809,4.925,4.603l0.27,0.093l0.118,0.038
	c0.127,0.04,0.254,0.087,0.386,0.111c5.983,1.156,7.606-3.07,8.038-3.692c-1.421,2.046-3.811,2.538-6.742,1.827
	c-0.231-0.056-0.486-0.14-0.709-0.219c-0.286-0.103-0.568-0.218-0.842-0.35c-0.521-0.25-1.017-0.553-1.477-0.9
	c-2.623-1.991-4.252-5.787-2.541-8.879"/>
<path fill="#131B28" d="M30.926,50.102h-1.668c-0.093,0-0.185,0.074-0.204,0.165l-0.592,2.74l-0.592,2.739
	c-0.019,0.091-0.111,0.165-0.204,0.165h-1.181c-1.168,0-1.033-0.808-0.794-1.915l0.007-0.034l0.026-0.14l0.005-0.026l0.053-0.284
	l0.057-0.305l0.061-0.31l0.269-1.315l0.27-1.315c0.019-0.091-0.042-0.166-0.134-0.166h-1.712c-0.092,0-0.184,0.074-0.203,0.165
	l-0.368,1.747l-0.368,1.747l0,0.002l-0.034,0.163c-0.424,1.936-0.312,3.782,1.993,3.84l0.067,0.001h3.617
	c0.092,0,0.185-0.074,0.204-0.165l0.78-3.667l0.78-3.667C31.079,50.176,31.019,50.103,30.926,50.102z M13.062,50.083H11.23
	c-0.093,0-0.185,0.075-0.206,0.165l-0.174,0.767l-0.174,0.767c-0.02,0.09,0.039,0.164,0.132,0.164h1.846
	c0.093,0,0.185-0.074,0.205-0.165l0.167-0.766l0.168-0.766C13.213,50.157,13.154,50.083,13.062,50.083z M12.53,52.469h-1.846
	c-0.092,0-0.185,0.074-0.206,0.164l-0.259,1.149L9.96,54.93l-0.072,0.33l-0.249,1.172L9.39,57.604
	c-0.02,0.09-0.059,0.236-0.089,0.324c0,0-0.345,1.026-0.925,1.015l-0.073-0.001l-0.502-0.009l0,0
	c-0.093-0.001-0.185,0.071-0.207,0.161l-0.191,0.805l-0.191,0.804c-0.022,0.09,0.037,0.165,0.128,0.166
	c0.329,0.004,1.065,0.012,1.511,0.012c1.448,0,2.212-0.803,2.701-3.112l0.573-2.65l0.537-2.486
	C12.683,52.543,12.623,52.469,12.53,52.469z M46.525,51.847l-0.077-0.316l-0.075-0.324l-0.039-0.164
	c-0.15-0.583-0.59-0.919-1.546-0.919L43.3,50.124l-1.371-0.002h-1.542c-0.092,0-0.184,0.074-0.203,0.165l-0.068,0.322l-0.081,0.38
	l-0.022,0.107l-0.694,3.253l-0.659,3.087c-0.02,0.091-0.026,0.202-0.015,0.247c0.011,0.045,0.189,0.083,0.281,0.083h1.391
	c0.093,0,0.21-0.016,0.261-0.037c0.05-0.021,0.125-0.203,0.144-0.292l0.247-1.224l0.248-1.224l0-0.002l0.033-0.163l0.3-1.405
	l0.265-1.241c0.02-0.09,0.111-0.164,0.203-0.165l4.377-0.002C46.487,52.012,46.546,51.938,46.525,51.847L46.525,51.847z
	 M52.16,48.989l-0.337,0.001h-1.401c-0.093,0-0.212,0.062-0.263,0.139l-3.099,4.539c-0.052,0.077-0.112,0.066-0.132-0.024l-0.228-1
	c-0.021-0.091-0.113-0.165-0.206-0.165h-1.992c-0.093,0-0.147,0.073-0.122,0.162l0.893,3.127c0.025,0.089,0.027,0.235,0.004,0.325
	l-0.389,1.513c-0.023,0.09,0.034,0.163,0.126,0.163h1.969c0.092,0,0.187-0.073,0.21-0.163l0.389-1.513
	c0.023-0.09,0.087-0.224,0.143-0.298l5.03-6.675c0.056-0.074,0.025-0.135-0.067-0.134L52.16,48.989z M36.336,52.905v-0.001
	c-0.011,0.1-0.104,0.174-0.197,0.174h-2.525c-0.087,0-0.132-0.059-0.119-0.132l0.002-0.006l-0.001,0l0.001-0.008l0.011-0.043
	c0.241-0.641,0.732-1.062,1.656-1.062C36.204,51.826,36.407,52.333,36.336,52.905L36.336,52.905z M35.595,49.99
	c-3.241,0-4.01,1.967-4.441,3.953c-0.431,2.024-0.394,3.917,2.961,3.917h0.406l0.101,0h0.024l0.402-0.001h0.007
	c0.886-0.003,1.774-0.01,2.134-0.013c0.092-0.001,0.182-0.076,0.201-0.166l0.136-0.664l0.026-0.129l0.162-0.792
	c0.019-0.09-0.042-0.165-0.135-0.165h-3.016c-1.199,0-1.556-0.318-1.424-1.255h4.82l0,0h0.003c0.077-0.001,0.147-0.054,0.176-0.125
	l0.011-0.042l0,0C38.866,51.809,38.661,49.991,35.595,49.99L35.595,49.99z M20.275,52.895l-0.046,0.162v0l-0.364,1.29l-0.364,1.29
	c-0.025,0.089-0.122,0.162-0.214,0.162H17.36c-1.461,0-1.817-1.143-1.461-2.829c0.356-1.725,1.053-2.796,2.492-2.905
	C20.356,49.917,20.75,51.299,20.275,52.895L20.275,52.895z M21.596,55.699c0,0,0.909-2.206,1.115-3.479
	c0.281-1.705-0.572-4.179-3.87-4.179c-3.279,0-4.703,2.361-5.246,4.928c-0.543,2.585,0.168,4.853,3.429,4.834l2.572-0.009
	l2.403-0.009c0.092-0.001,0.187-0.074,0.211-0.164l0.419-1.597c0.023-0.09-0.033-0.164-0.126-0.164l-0.401-0.002L21.7,55.856
	c-0.079,0-0.124-0.052-0.114-0.119L21.596,55.699z M37.829,54.223c0,0.061-0.049,0.111-0.111,0.111c-0.061,0-0.11-0.05-0.11-0.111
	s0.049-0.11,0.11-0.11C37.779,54.112,37.829,54.162,37.829,54.223z"/>
</svg>
