<?xml version="1.0" encoding="utf-8"?>
<!-- Generator: Adobe Illustrator 16.0.0, SVG Export Plug-In . SVG Version: 6.00 Build 0)  -->
<!DOCTYPE svg PUBLIC "-//W3C//DTD SVG 1.1//EN" "http://www.w3.org/Graphics/SVG/1.1/DTD/svg11.dtd">
<svg version="1.1" id="Layer_1" xmlns="http://www.w3.org/2000/svg" xmlns:xlink="http://www.w3.org/1999/xlink" x="0px" y="0px"
	 width="50.14px" height="50.959px" viewBox="4.819 15.198 50.14 50.959" enable-background="new 4.819 15.198 50.14 50.959"
	 xml:space="preserve">
<path fill="#94795D" d="M39.627,55.81c0.071-0.136,0.139-0.256,0.196-0.381c0.036-0.08,0.092-0.096,0.172-0.093
	c0.474,0.013,0.948,0.028,1.423,0.033c0.403,0.004,0.807-0.003,1.21-0.008c0.455-0.005,0.91-0.029,1.364-0.016
	c0.605,0.018,1.195,0.136,1.742,0.405c0.654,0.322,1.148,0.812,1.485,1.458c0.215,0.413,0.34,0.85,0.39,1.315
	c0.072,0.673,0.024,1.331-0.189,1.975c-0.265,0.798-0.767,1.409-1.465,1.867c-0.537,0.352-1.126,0.56-1.758,0.679
	c-0.668,0.126-1.338,0.085-2.009,0.087c-0.735,0.003-1.47-0.013-2.205-0.021c-0.128-0.001-0.147-0.025-0.113-0.148l0.031-0.113
	c0.072-0.225,0.11-0.235,0.339-0.273c0.158-0.025,0.322-0.085,0.455-0.173c0.077-0.051,0.109-0.184,0.139-0.287
	c0.026-0.089,0.027-0.188,0.028-0.282c0.01-1.434,0.021-2.868,0.027-4.301c0.001-0.362-0.007-0.725-0.027-1.087
	c-0.014-0.253-0.149-0.427-0.451-0.486c-0.234-0.046-0.47-0.083-0.706-0.124L39.627,55.81L39.627,55.81z M46.357,59.282
	c-0.032-0.286-0.047-0.573-0.098-0.855c-0.123-0.675-0.418-1.263-0.937-1.724c-0.84-0.745-1.85-0.86-2.91-0.771
	c-0.241,0.02-0.293,0.103-0.297,0.35c-0.006,0.352-0.012,0.704-0.012,1.055c-0.001,1.116-0.001,2.231,0,3.346
	c0,0.317,0.004,0.635,0.013,0.951c0.01,0.324,0.128,0.599,0.445,0.724c0.5,0.198,1.027,0.221,1.552,0.141
	c0.839-0.128,1.425-0.617,1.819-1.35C46.244,60.568,46.332,59.934,46.357,59.282L46.357,59.282z M48.396,63.08
	c-0.01-0.174,0.061-0.317,0.149-0.449c0.024-0.036,0.106-0.034,0.163-0.045l0.48-0.095c0.169-0.036,0.258-0.15,0.282-0.316
	c0.016-0.11,0.031-0.221,0.032-0.332c0.011-0.878,0.021-1.756,0.025-2.634c0.004-0.879,0.001-1.758,0.001-2.638l-0.004-0.168
	c-0.017-0.282-0.154-0.429-0.434-0.47l-0.608-0.093c-0.075-0.01-0.102-0.046-0.075-0.113c0.047-0.113,0.092-0.231,0.158-0.333
	c0.024-0.038,0.108-0.052,0.164-0.051c0.291,0.004,0.581,0.026,0.872,0.026l2.529-0.015c0.487,0,0.958,0.084,1.395,0.318
	c0.481,0.256,0.75,0.652,0.827,1.192c0.081,0.567-0.092,1.046-0.506,1.425c-0.17,0.157-0.391,0.259-0.588,0.386l-0.064,0.04
	c0.183,0.067,0.358,0.125,0.528,0.195c0.498,0.204,0.893,0.522,1.103,1.031c0.165,0.401,0.165,0.82,0.067,1.236
	c-0.152,0.651-0.582,1.084-1.14,1.412c-0.524,0.308-1.091,0.487-1.694,0.518c-0.557,0.028-1.116,0.018-1.674,0.023l-0.323,0.002
	c-0.538-0.012-1.076-0.026-1.614-0.04L48.396,63.08L48.396,63.08z M50.714,60.53h0.005c0,0.275-0.004,0.551,0.001,0.827
	c0.003,0.178-0.003,0.361,0.036,0.533c0.058,0.257,0.175,0.488,0.463,0.562c0.389,0.1,0.786,0.12,1.18,0.052
	c0.493-0.086,0.886-0.333,1.102-0.802c0.16-0.349,0.184-0.718,0.129-1.096c-0.073-0.497-0.337-0.858-0.776-1.095
	c-0.288-0.155-0.595-0.25-0.923-0.263c-0.367-0.014-0.734-0.015-1.101-0.026c-0.103-0.003-0.117,0.049-0.117,0.134
	C50.715,59.747,50.714,60.138,50.714,60.53L50.714,60.53z M51.495,58.657c0.2-0.01,0.427-0.013,0.653-0.036
	c0.432-0.043,0.737-0.26,0.896-0.673c0.081-0.21,0.077-0.426,0.08-0.644c0.006-0.568-0.326-1.034-0.865-1.227
	c-0.417-0.148-0.846-0.151-1.278-0.139c-0.175,0.004-0.253,0.081-0.256,0.257l-0.026,2.298c-0.001,0.091,0.038,0.13,0.127,0.133
	L51.495,58.657L51.495,58.657z"/>
<path fill="#50382B" d="M7.508,62.638l-0.031,0.396c-0.285,0-0.547-0.002-0.81,0.001c-0.495,0.005-0.989,0.013-1.484,0.02
	l-0.047,0.003c-0.071-0.009-0.2-0.009-0.203-0.029c-0.021-0.118-0.015-0.241-0.009-0.363c0-0.014,0.048-0.031,0.076-0.038
	l0.385-0.085c0.24-0.062,0.325-0.166,0.336-0.414c0.013-0.279,0.026-0.559,0.027-0.838c0.004-0.688,0-1.374,0.002-2.062
	c0-0.161-0.055-0.281-0.205-0.346c-0.178-0.079-0.357-0.155-0.538-0.229c-0.085-0.034-0.196-0.053-0.187-0.168
	c0.01-0.117,0.118-0.147,0.219-0.17c0.419-0.096,0.839-0.189,1.258-0.292c0.135-0.033,0.264-0.089,0.425-0.145
	c0.008,0.087,0.024,0.17,0.022,0.253l-0.025,0.394c0,0.044,0.022,0.104,0.056,0.128c0.02,0.016,0.087-0.013,0.121-0.039
	c0.357-0.272,0.736-0.507,1.167-0.644c0.669-0.212,1.243-0.015,1.645,0.561c0.142,0.203,0.142,0.203,0.338,0.061
	c0.337-0.245,0.689-0.46,1.084-0.603c0.866-0.313,1.698,0.084,1.999,0.956c0.11,0.317,0.152,0.644,0.151,0.978l-0.008,2.218
	c0,0.183,0.06,0.287,0.234,0.344c0.195,0.064,0.398,0.108,0.618,0.166l-0.051,0.381c-0.25,0-0.481-0.002-0.711,0
	c-0.563,0.005-1.125,0.008-1.688,0.021c-0.098,0.002-0.123-0.022-0.128-0.114c-0.016-0.293-0.019-0.293,0.258-0.359l0.093-0.024
	c0.27-0.073,0.36-0.156,0.362-0.43c0.006-0.786,0.022-1.575-0.018-2.359c-0.041-0.814-0.687-1.247-1.476-1.039
	c-0.257,0.068-0.491,0.187-0.708,0.341c-0.073,0.052-0.087,0.113-0.081,0.204c0.022,0.347,0.036,0.694,0.039,1.041
	c0.005,0.607-0.002,1.215,0,1.823c0.001,0.247,0.085,0.34,0.329,0.397l0.361,0.083l0.067,0.015c0.005,0.115,0.01,0.231,0.004,0.346
	c-0.003,0.073-0.059,0.079-0.122,0.078c-0.351-0.009-0.703-0.021-1.054-0.02c-0.425,0.003-0.852,0.015-1.28,0.023h-0.1
	c0-0.123-0.006-0.24,0.004-0.357c0.002-0.028,0.052-0.067,0.085-0.076l0.421-0.089c0.179-0.044,0.264-0.136,0.274-0.317
	c0.048-0.842,0.082-1.684,0.003-2.525c-0.015-0.163-0.068-0.329-0.136-0.479C8.655,58.74,8.17,58.541,7.61,58.685
	c-0.266,0.068-0.506,0.189-0.733,0.343C6.771,59.1,6.72,59.196,6.72,59.318c0,0.839,0.003,1.679,0.005,2.518L6.73,62.16
	c0.005,0.226,0.101,0.345,0.325,0.394C7.199,62.585,7.345,62.608,7.508,62.638L7.508,62.638z"/>
<path fill="#4F382B" d="M32.82,57.964c0.065,0.315,0.064,0.6-0.168,0.814c-0.23,0.214-0.522,0.142-0.806,0.094
	c0.026,0.15,0.056,0.277,0.07,0.406c0.104,0.958-0.309,1.669-1.198,2.076c-0.336,0.153-0.692,0.21-1.056,0.24
	c-0.181,0.014-0.339,0.152-0.356,0.301c-0.018,0.151,0.077,0.306,0.266,0.351c0.223,0.053,0.456,0.068,0.685,0.094
	c0.492,0.056,0.989,0.082,1.474,0.17c0.734,0.132,1.145,0.773,1.015,1.511c-0.115,0.657-0.496,1.134-1.025,1.5
	c-0.893,0.619-1.873,0.8-2.916,0.484c-0.597-0.181-1.018-0.573-1.163-1.208c-0.073-0.318,0.004-0.605,0.244-0.821
	c0.284-0.255,0.593-0.483,0.891-0.724l0.096-0.097l-0.11-0.078c-0.304-0.144-0.546-0.341-0.641-0.684
	c-0.032-0.116,0.001-0.192,0.1-0.251c0.167-0.101,0.334-0.204,0.5-0.308c0.078-0.049,0.155-0.099,0.228-0.155
	c0.099-0.075,0.09-0.131-0.028-0.175c-0.274-0.102-0.519-0.249-0.708-0.475c-0.316-0.377-0.406-0.826-0.379-1.301
	c0.041-0.741,0.443-1.229,1.097-1.543c0.777-0.373,1.558-0.396,2.35-0.057c0.293,0.125,0.602,0.152,0.917,0.13
	C32.431,58.245,32.636,58.157,32.82,57.964L32.82,57.964z M29.955,63.273c-0.583-0.005-0.767,0.067-1.109,0.416
	c-0.384,0.391-0.382,0.934,0.001,1.326c0.291,0.298,0.653,0.437,1.056,0.479c0.471,0.048,0.935,0.029,1.363-0.207
	c0.456-0.252,0.683-0.721,0.581-1.193c-0.085-0.39-0.373-0.568-0.722-0.671C30.728,63.307,30.316,63.284,29.955,63.273
	L29.955,63.273z M28.809,59.544c0.021,0.162,0.03,0.326,0.066,0.485c0.093,0.411,0.272,0.772,0.681,0.955
	c0.48,0.216,1.093,0.124,1.304-0.551c0.144-0.462,0.126-0.92-0.047-1.371c-0.078-0.201-0.202-0.371-0.381-0.496
	c-0.417-0.291-1.169-0.33-1.476,0.313C28.856,59.089,28.817,59.312,28.809,59.544L28.809,59.544z"/>
<path fill="#4F372B" d="M22.918,57.861c0.016,0.072,0.046,0.153,0.047,0.234c0.001,0.155-0.016,0.312-0.024,0.466v0.135l0.131-0.101
	c0.36-0.296,0.747-0.549,1.198-0.685c0.813-0.245,1.625,0.2,1.89,1.028c0.101,0.315,0.14,0.639,0.144,0.968
	c0.008,0.729,0.013,1.462,0.021,2.193c0.002,0.262,0.033,0.309,0.281,0.385c0.141,0.043,0.286,0.073,0.431,0.096
	c0.08,0.013,0.115,0.044,0.11,0.122l0.001,0.072c-0.003,0.303-0.024,0.316-0.317,0.315c-0.703-0.001-1.405,0.003-2.107,0.009
	c-0.209,0.002-0.209,0.008-0.23-0.199L24.49,62.78c0.013-0.179,0.017-0.177,0.193-0.203c0.118-0.018,0.235-0.045,0.35-0.075
	c0.119-0.031,0.176-0.118,0.191-0.235c0.008-0.059,0.019-0.119,0.018-0.178c-0.01-0.799,0.003-1.599-0.041-2.396
	c-0.035-0.645-0.528-1.03-1.175-0.986c-0.318,0.022-0.605,0.128-0.867,0.311c-0.173,0.121-0.208,0.296-0.207,0.484
	c0.003,0.747,0.01,1.494,0.018,2.241c0.002,0.164,0.006,0.327,0.022,0.49c0.016,0.177,0.079,0.249,0.253,0.288
	c0.167,0.037,0.336,0.058,0.515,0.088l0.015,0.137c0.006,0.32-0.028,0.344-0.339,0.343c-0.727-0.003-1.453,0.001-2.179,0.009
	c-0.114,0.002-0.163-0.034-0.16-0.146l-0.001-0.048c-0.019-0.289-0.011-0.299,0.262-0.346l0.129-0.026
	c0.296-0.067,0.372-0.146,0.376-0.446c0.014-0.951,0.019-1.901,0.028-2.852c0.001-0.137-0.05-0.243-0.178-0.299
	c-0.178-0.079-0.358-0.153-0.539-0.228c-0.1-0.041-0.213-0.067-0.217-0.205c-0.002-0.097,0.101-0.183,0.243-0.212
	c0.285-0.058,0.573-0.106,0.854-0.177C22.335,58.047,22.611,57.953,22.918,57.861L22.918,57.861z"/>
<path fill="#4F382B" d="M38.625,60.344c-0.013,0.888-0.244,1.606-0.872,2.146c-0.795,0.684-2.037,0.916-3.051,0.405
	c-0.433-0.218-0.751-0.553-0.958-0.987c-0.318-0.667-0.397-1.37-0.231-2.089c0.164-0.711,0.595-1.227,1.24-1.561
	c0.663-0.343,1.361-0.477,2.098-0.297c0.931,0.228,1.601,0.987,1.734,1.954C38.607,60.084,38.617,60.256,38.625,60.344
	L38.625,60.344z M37.545,60.826l-0.036-0.004c0-0.083,0.004-0.167-0.001-0.251c-0.031-0.521-0.148-1.019-0.45-1.455
	c-0.287-0.414-0.677-0.658-1.186-0.693c-0.569-0.04-1.047,0.278-1.215,0.859c-0.252,0.873-0.167,1.723,0.276,2.522
	c0.193,0.348,0.479,0.605,0.862,0.741c0.75,0.264,1.417-0.078,1.612-0.847C37.48,61.413,37.501,61.116,37.545,60.826L37.545,60.826z
	"/>
<path fill="#4F372B" d="M20.184,60.413c-0.016,0.637-0.166,1.226-0.559,1.738c-0.422,0.548-1.001,0.841-1.66,0.965
	c-0.779,0.146-1.511,0.013-2.137-0.51c-0.297-0.249-0.5-0.567-0.634-0.93c-0.22-0.595-0.274-1.204-0.139-1.825
	c0.145-0.665,0.52-1.172,1.101-1.513c0.672-0.393,1.398-0.568,2.173-0.392c0.997,0.228,1.572,0.877,1.784,1.86
	C20.155,60.006,20.161,60.211,20.184,60.413L20.184,60.413z M19.093,60.833l-0.029-0.004v-0.12c-0.016-0.584-0.13-1.141-0.479-1.627
	c-0.258-0.36-0.604-0.586-1.048-0.65c-0.723-0.103-1.195,0.326-1.352,0.908c-0.204,0.761-0.14,1.512,0.176,2.234
	c0.197,0.449,0.508,0.8,0.987,0.97c0.746,0.265,1.422-0.086,1.611-0.852C19.028,61.413,19.049,61.121,19.093,60.833z"/>
<path fill="#439934" d="M37.577,27.928c0.514,1.485,0.883,3.001,1.005,4.572c0.15,1.949,0.082,3.885-0.329,5.802L38.2,38.456
	c-0.129,0-0.261-0.016-0.387,0.004c-1.064,0.167-2.128,0.341-3.192,0.513c-1.1,0.178-2.201,0.35-3.298,0.54
	c-0.389,0.067-0.87-0.013-1.027,0.525l-0.075,0.025l0.053-3.214l-0.054-7.756l0.513-0.088c0.837-0.137,1.675-0.276,2.514-0.41
	c1.001-0.159,2.002-0.313,3.004-0.468C36.692,28.058,37.134,27.994,37.577,27.928L37.577,27.928z"/>
<path fill="#45A538" d="M29.163,49.434c-0.541-0.465-1.1-0.909-1.618-1.398c-2.788-2.629-4.827-5.724-5.832-9.456
	c-0.277-1.027-0.461-2.07-0.521-3.131c-0.042-0.743-0.102-1.492-0.049-2.23c0.14-1.965,0.424-3.911,1-5.804l0.032-0.044
	c0.056,0.074,0.136,0.141,0.165,0.225c0.562,1.656,1.121,3.314,1.676,4.974c1.746,5.213,3.489,10.427,5.237,15.639
	c0.034,0.102,0.123,0.185,0.186,0.277L29.163,49.434L29.163,49.434z"/>
<path fill="#46A037" d="M37.577,27.928c-0.442,0.065-0.885,0.129-1.327,0.197c-1.001,0.155-2.003,0.31-3.004,0.468
	c-0.838,0.133-1.676,0.272-2.514,0.41l-0.513,0.088l-0.004-0.334c-0.017-0.274-0.045-0.549-0.049-0.824l-0.057-5.256
	c-0.014-1.097-0.034-2.193-0.056-3.29c-0.014-0.681-0.029-1.362-0.059-2.043c-0.017-0.365-0.076-0.729-0.099-1.095
	c-0.014-0.21,0.004-0.422,0.009-0.633c0.261,0.506,0.517,1.016,0.786,1.518c0.424,0.794,1.1,1.38,1.709,2.018
	C34.804,21.679,36.512,24.613,37.577,27.928z"/>
<path fill="#409433" d="M30.221,40.062l0.075-0.025c0.157-0.538,0.638-0.458,1.027-0.525c1.098-0.19,2.199-0.361,3.298-0.54
	c1.064-0.172,2.127-0.345,3.192-0.513c0.126-0.02,0.258-0.003,0.387-0.004c-0.199,0.71-0.355,1.436-0.608,2.126
	c-0.287,0.783-0.634,1.548-1.001,2.297c-0.55,1.12-1.236,2.165-2.032,3.123c-0.614,0.738-1.298,1.42-1.983,2.094
	c-0.379,0.372-0.826,0.676-1.242,1.011l-0.108-0.074L30.838,48.7l-0.401-0.881c-0.277-1.031-0.421-2.08-0.446-3.147l0.007-0.179
	l0.055-0.776c0.018-0.265,0.042-0.53,0.054-0.795C30.146,41.97,30.183,41.016,30.221,40.062L30.221,40.062z"/>
<path fill="#4FAA41" d="M30.221,40.062c-0.038,0.954-0.074,1.908-0.114,2.862c-0.012,0.265-0.035,0.53-0.054,0.794l-0.245,0.093
	c-0.543-1.6-1.087-3.183-1.619-4.77c-0.879-2.625-1.748-5.255-2.626-7.881c-0.709-2.119-1.424-4.237-2.143-6.354
	c-0.034-0.099-0.13-0.177-0.197-0.265l1.566-2.879c0.054,0.093,0.125,0.181,0.159,0.281c0.725,2.144,1.447,4.288,2.164,6.434
	c0.933,2.793,1.859,5.586,2.792,8.379c0.037,0.112,0.098,0.214,0.157,0.34l0.214-0.25C30.256,37.92,30.238,38.991,30.221,40.062
	L30.221,40.062z"/>
<path fill="#4AA73C" d="M23.222,24.542c0.067,0.088,0.164,0.166,0.197,0.265c0.719,2.116,1.434,4.234,2.143,6.354
	c0.878,2.626,1.747,5.256,2.626,7.881c0.532,1.586,1.076,3.169,1.619,4.77l0.245-0.093l-0.055,0.776l-0.05,0.179
	c-0.085,0.85-0.156,1.701-0.26,2.548c-0.052,0.425-0.163,0.842-0.247,1.263c-0.063-0.092-0.152-0.175-0.186-0.277
	c-1.749-5.212-3.492-10.426-5.237-15.639c-0.556-1.659-1.114-3.317-1.676-4.974c-0.029-0.084-0.109-0.15-0.165-0.225L23.222,24.542
	L23.222,24.542z"/>
<path fill="#57AE47" d="M30.273,36.848l-0.214,0.25c-0.059-0.125-0.12-0.228-0.157-0.34c-0.932-2.793-1.858-5.586-2.792-8.379
	c-0.717-2.146-1.439-4.29-2.164-6.434c-0.034-0.101-0.104-0.188-0.159-0.281l1.937-2.547c0.061,0.082,0.148,0.154,0.18,0.246
	c0.538,1.574,1.07,3.149,1.6,4.726c0.495,1.473,0.982,2.948,1.483,4.418c0.034,0.099,0.15,0.168,0.228,0.251l0.004,0.334
	L30.273,36.848z"/>
<path fill="#60B24F" d="M30.215,28.757c-0.078-0.083-0.194-0.152-0.228-0.251c-0.5-1.47-0.988-2.945-1.483-4.418
	c-0.53-1.577-1.062-3.152-1.6-4.726c-0.031-0.092-0.119-0.164-0.18-0.246c0.63-0.617,1.24-1.255,1.895-1.844
	c0.583-0.522,1.05-1.083,1.072-1.909l0.046-0.165l0.166,0.418c-0.004,0.211-0.023,0.423-0.009,0.633
	c0.024,0.366,0.083,0.729,0.099,1.095c0.03,0.681,0.045,1.362,0.059,2.043c0.022,1.096,0.042,2.192,0.056,3.289l0.057,5.256
	C30.169,28.208,30.198,28.483,30.215,28.757L30.215,28.757z"/>
<path fill="#A9AA88" d="M29.44,48.484c0.084-0.42,0.195-0.837,0.247-1.262c0.104-0.848,0.175-1.699,0.26-2.549l0.021-0.003
	l0.021,0.004c0.024,1.067,0.169,2.116,0.446,3.147c-0.057,0.074-0.136,0.14-0.166,0.224c-0.232,0.656-0.452,1.317-0.686,1.972
	c-0.032,0.089-0.122,0.16-0.184,0.238l-0.239-0.821L29.44,48.484L29.44,48.484z"/>
<path fill="#B6B598" d="M29.401,50.255c0.062-0.079,0.152-0.148,0.184-0.238c0.233-0.655,0.453-1.316,0.686-1.972
	c0.03-0.083,0.109-0.149,0.166-0.224l0.401,0.881c-0.079,0.112-0.188,0.214-0.232,0.339l-0.769,2.257
	c-0.032,0.091-0.139,0.155-0.212,0.231L29.401,50.255z"/>
<path fill="#C2C1A7" d="M29.624,51.529c0.072-0.077,0.18-0.14,0.212-0.231l0.769-2.258c0.043-0.125,0.153-0.227,0.232-0.339
	l0.389,0.331c-0.188,0.186-0.292,0.4-0.229,0.671l-0.118,0.386c-0.053,0.066-0.131,0.124-0.158,0.2
	c-0.269,0.769-0.524,1.542-0.794,2.31c-0.035,0.098-0.129,0.174-0.196,0.26L29.624,51.529L29.624,51.529z"/>
<path fill="#CECDB7" d="M29.73,52.859c0.067-0.086,0.162-0.163,0.196-0.26c0.271-0.769,0.526-1.542,0.794-2.31
	c0.026-0.076,0.104-0.133,0.158-0.2l-0.163,1.773c-0.043,0.05-0.106,0.094-0.127,0.152l-0.542,1.553
	c-0.038,0.106-0.111,0.2-0.168,0.3c-0.051-0.066-0.141-0.13-0.146-0.199C29.718,53.4,29.729,53.129,29.73,52.859L29.73,52.859z"/>
<path fill="#DBDAC7" d="M29.879,53.868c0.057-0.1,0.13-0.194,0.168-0.3l0.542-1.553c0.021-0.059,0.084-0.102,0.127-0.152
	l0.004,1.164l-0.39,1L29.879,53.868z"/>
<path fill="#EBE9DC" d="M30.331,54.027l0.39-1l0.081,1.182L30.331,54.027z"/>
<path fill="#CECDB7" d="M30.997,49.704c-0.062-0.271,0.042-0.485,0.229-0.671l0.108,0.074L30.997,49.704L30.997,49.704z"/>
<path fill="#4FAA41" d="M29.99,44.674l-0.021-0.004l-0.021,0.003l0.05-0.179L29.99,44.674z"/>
</svg>
