<?xml version="1.0" encoding="utf-8"?>
<!-- Generator: Adobe Illustrator 16.0.0, SVG Export Plug-In . SVG Version: 6.00 Build 0)  -->
<!DOCTYPE svg PUBLIC "-//W3C//DTD SVG 1.1//EN" "http://www.w3.org/Graphics/SVG/1.1/DTD/svg11.dtd">
<svg version="1.1" id="Layer_1" xmlns="http://www.w3.org/2000/svg" xmlns:xlink="http://www.w3.org/1999/xlink" x="0px" y="0px"
	 width="121.163px" height="34.221px" viewBox="9.87 7.734 121.163 34.221" enable-background="new 9.87 7.734 121.163 34.221"
	 xml:space="preserve">
<path fill="#83CD29" d="M121.326,41.775c-0.293,0-0.584-0.077-0.841-0.227l-2.679-1.585c-0.4-0.224-0.205-0.303-0.072-0.349
	c0.534-0.187,0.642-0.229,1.21-0.551c0.06-0.034,0.138-0.021,0.2,0.015l2.057,1.223c0.075,0.041,0.181,0.041,0.249,0l8.024-4.631
	c0.075-0.042,0.123-0.129,0.123-0.218v-9.26c0-0.09-0.048-0.175-0.125-0.221l-8.021-4.626c-0.074-0.042-0.172-0.042-0.247,0
	l-8.019,4.628c-0.077,0.045-0.126,0.132-0.126,0.22v9.26c0,0.089,0.049,0.173,0.126,0.215l2.198,1.27
	c1.192,0.596,1.923-0.106,1.923-0.812v-9.143c0-0.129,0.104-0.23,0.232-0.23h1.018c0.126,0,0.231,0.102,0.231,0.23v9.143
	c0,1.591-0.866,2.504-2.375,2.504c-0.464,0-0.829,0-1.848-0.501l-2.104-1.211c-0.521-0.301-0.841-0.863-0.841-1.464v-9.259
	c0-0.602,0.32-1.163,0.841-1.462l8.023-4.637c0.508-0.286,1.182-0.286,1.685,0l8.023,4.637c0.52,0.301,0.842,0.862,0.842,1.462
	v9.259c0,0.602-0.323,1.161-0.842,1.464l-8.023,4.632C121.914,41.699,121.624,41.775,121.326,41.775 M123.805,35.396
	c-3.513,0-4.248-1.612-4.248-2.964c0-0.127,0.104-0.231,0.233-0.231h1.037c0.116,0,0.212,0.083,0.23,0.196
	c0.156,1.056,0.624,1.589,2.747,1.589c1.689,0,2.409-0.382,2.409-1.28c0-0.518-0.204-0.9-2.831-1.158
	c-2.196-0.217-3.553-0.702-3.553-2.46c0-1.618,1.365-2.584,3.651-2.584c2.57,0,3.842,0.893,4.003,2.807
	c0.006,0.065-0.017,0.128-0.06,0.178c-0.045,0.046-0.105,0.074-0.17,0.074h-1.042c-0.108,0-0.204-0.076-0.226-0.181
	c-0.251-1.112-0.857-1.467-2.506-1.467c-1.845,0-2.06,0.644-2.06,1.125c0,0.583,0.253,0.753,2.745,1.083
	c2.465,0.327,3.637,0.787,3.637,2.521C127.804,34.394,126.347,35.396,123.805,35.396"/>
<path fill="#404137" d="M104.805,29.322c0.316-0.185,0.512-0.522,0.512-0.89v-2.379c0-0.366-0.194-0.704-0.512-0.888l-8.455-4.909
	c-0.318-0.185-0.71-0.186-1.03-0.002l-8.508,4.912c-0.317,0.184-0.513,0.523-0.513,0.89v9.822c0,0.369,0.198,0.711,0.52,0.894
	l8.454,4.816c0.312,0.179,0.693,0.18,1.008,0.006l5.113-2.842c0.163-0.091,0.264-0.261,0.265-0.445c0-0.186-0.098-0.358-0.259-0.45
	l-8.56-4.913c-0.16-0.092-0.258-0.262-0.258-0.445v-3.08c0-0.184,0.098-0.353,0.256-0.443l2.666-1.537
	c0.158-0.092,0.354-0.092,0.512,0l2.666,1.537c0.16,0.092,0.257,0.261,0.257,0.443v2.422c0,0.185,0.098,0.355,0.257,0.446
	c0.16,0.092,0.355,0.092,0.516-0.001L104.805,29.322"/>
<path fill="#83CD29" d="M95.709,28.862c0.062-0.035,0.136-0.035,0.197,0l1.633,0.943c0.061,0.035,0.098,0.101,0.098,0.171v1.885
	c0,0.071-0.038,0.135-0.098,0.17l-1.633,0.942c-0.061,0.036-0.136,0.036-0.197,0l-1.631-0.942c-0.062-0.035-0.099-0.1-0.099-0.17
	v-1.885c0-0.07,0.037-0.136,0.099-0.171L95.709,28.862"/>
<path fill="#404137" d="M73.57,32.784c0,0.091-0.048,0.176-0.128,0.222l-2.921,1.685c-0.08,0.046-0.178,0.046-0.257,0l-2.921-1.685
	c-0.08-0.046-0.128-0.131-0.128-0.222v-3.375c0-0.091,0.049-0.177,0.128-0.224l2.921-1.686c0.08-0.047,0.178-0.047,0.258,0
	l2.923,1.686c0.079,0.047,0.127,0.133,0.127,0.224L73.57,32.784L73.57,32.784z M74.36,7.799c-0.159-0.088-0.353-0.086-0.51,0.006
	c-0.157,0.093-0.254,0.261-0.254,0.443v13.055c0,0.127-0.069,0.247-0.179,0.312c-0.111,0.063-0.249,0.063-0.36,0l-2.131-1.229
	c-0.317-0.183-0.708-0.183-1.026,0l-8.509,4.911c-0.318,0.184-0.515,0.524-0.515,0.891v9.825c0,0.367,0.196,0.705,0.514,0.89
	l8.509,4.914c0.317,0.184,0.709,0.184,1.028,0l8.511-4.914c0.317-0.185,0.514-0.523,0.514-0.89V11.522
	c0-0.372-0.202-0.715-0.527-0.897L74.36,7.799"/>
<path fill="#83CD29" d="M44.412,20.202c0.317-0.184,0.709-0.184,1.027,0l8.51,4.91c0.317,0.184,0.514,0.523,0.514,0.89v9.828
	c0,0.367-0.196,0.707-0.514,0.891l-8.509,4.914c-0.317,0.183-0.709,0.183-1.028,0l-8.506-4.914
	c-0.317-0.184-0.514-0.523-0.514-0.891v-9.828c0-0.366,0.196-0.706,0.514-0.89L44.412,20.202"/>
<path fill="#404137" d="M28.938,25.92c0-0.37-0.194-0.71-0.514-0.893l-8.506-4.896c-0.146-0.084-0.307-0.128-0.469-0.134h-0.088
	c-0.162,0.006-0.323,0.05-0.469,0.134l-8.508,4.896C10.068,25.21,9.87,25.55,9.87,25.92l0.018,13.182
	c0,0.184,0.096,0.355,0.257,0.444c0.158,0.095,0.353,0.095,0.51,0l5.055-2.896c0.319-0.19,0.515-0.524,0.515-0.892V29.6
	c0-0.368,0.194-0.706,0.512-0.89l2.153-1.239c0.16-0.094,0.335-0.139,0.513-0.139c0.176,0,0.356,0.044,0.513,0.139l2.151,1.239
	c0.318,0.184,0.514,0.522,0.514,0.89v6.158c0,0.367,0.197,0.704,0.515,0.892l5.054,2.896c0.158,0.095,0.356,0.095,0.514,0
	c0.156-0.09,0.254-0.261,0.254-0.444L28.938,25.92"/>
</svg>
