<?xml version="1.0" encoding="utf-8"?>
<!-- Generator: Adobe Illustrator 16.0.0, SVG Export Plug-In . SVG Version: 6.00 Build 0)  -->
<!DOCTYPE svg PUBLIC "-//W3C//DTD SVG 1.1//EN" "http://www.w3.org/Graphics/SVG/1.1/DTD/svg11.dtd">
<svg version="1.1" id="Layer_1" xmlns="http://www.w3.org/2000/svg" xmlns:xlink="http://www.w3.org/1999/xlink" x="0px" y="0px"
	 width="50.965px" height="50.761px" viewBox="13.555 109.575 50.965 50.761" enable-background="new 13.555 109.575 50.965 50.761"
	 xml:space="preserve">
<path d="M48.198,139.563c0.263-2.192,0.185-2.514,1.817-2.159l0.415,0.037c1.255,0.057,2.898-0.202,3.863-0.65
	c2.077-0.964,3.309-2.573,1.261-2.15c-4.672,0.963-4.994-0.618-4.994-0.618c4.934-7.32,6.997-16.612,5.216-18.887
	c-4.855-6.204-13.26-3.271-13.401-3.194l-0.045,0.009c-0.923-0.192-1.956-0.306-3.117-0.325c-2.114-0.035-3.719,0.554-4.936,1.477
	c0,0-14.994-6.177-14.296,7.769c0.148,2.966,4.252,22.448,9.147,16.564c1.789-2.152,3.518-3.971,3.518-3.971
	c0.859,0.57,1.887,0.861,2.965,0.757l0.083-0.071c-0.026,0.267-0.015,0.528,0.034,0.837c-1.261,1.409-0.891,1.657-3.412,2.175
	c-2.55,0.526-1.052,1.462-0.074,1.706c1.187,0.297,3.93,0.718,5.784-1.878l-0.074,0.296c0.495,0.396,0.461,2.844,0.531,4.593
	c0.07,1.75,0.188,3.382,0.544,4.345c0.356,0.962,0.777,3.441,4.091,2.731C45.888,148.362,48.005,147.508,48.198,139.563"/>
<path d="M42.04,150.685c-1.466,0-2.42-0.566-3-1.114c-0.875-0.825-1.222-1.889-1.429-2.524l-0.089-0.266
	c-0.417-1.126-0.559-2.749-0.643-4.838c-0.012-0.313-0.021-0.637-0.031-0.98c-0.007-0.25-0.016-0.564-0.028-0.894
	c-0.521,0.25-1.078,0.426-1.665,0.527c-1.033,0.176-2.144,0.119-3.302-0.17c-0.817-0.204-1.666-0.627-2.15-1.282
	c-1.41,1.235-2.755,1.067-3.488,0.823c-1.292-0.431-2.45-1.642-3.538-3.704c-0.774-1.468-1.524-3.381-2.228-5.685
	c-1.225-4.013-2.003-8.241-2.072-9.628c-0.217-4.344,0.952-7.45,3.475-9.232c3.981-2.812,10.011-1.159,12.21-0.408
	c1.477-0.89,3.214-1.324,5.178-1.292c1.055,0.017,2.059,0.11,2.992,0.275c0.973-0.306,2.895-0.745,5.095-0.718
	c4.054,0.048,7.413,1.628,9.714,4.569c1.642,2.098,0.83,6.503,0.2,8.943c-0.886,3.431-2.439,7.081-4.348,10.258
	c0.518,0.003,1.269-0.059,2.336-0.279c2.105-0.435,2.721,0.694,2.888,1.199c0.67,2.028-2.24,3.56-3.148,3.981
	c-1.164,0.541-3.06,0.869-4.613,0.798l-0.068-0.004l-0.408-0.036l-0.041,0.34l-0.039,0.333c-0.104,4.026-0.68,6.576-1.863,8.261
	c-1.24,1.766-2.964,2.261-4.483,2.587C42.938,150.637,42.467,150.685,42.04,150.685L42.04,150.685z M38.956,136.031
	c0.946,0.757,1.029,2.181,1.103,4.844c0.009,0.332,0.018,0.646,0.03,0.94c0.036,0.889,0.119,2.971,0.445,3.851
	c0.046,0.125,0.087,0.251,0.131,0.384c0.363,1.113,0.545,1.671,2.117,1.334c1.319-0.282,1.997-0.536,2.528-1.292
	c0.772-1.099,1.203-3.308,1.282-6.569l1.605,0.039l-1.594-0.191l0.046-0.398c0.153-1.312,0.263-2.26,1.14-2.886
	c0.703-0.503,1.505-0.454,2.144-0.339c-0.701-0.529-0.896-1.152-0.947-1.407l-0.134-0.659l0.376-0.558
	c2.167-3.215,3.953-7.166,4.902-10.84c0.975-3.775,0.677-5.78,0.38-6.16c-3.936-5.029-10.761-2.953-11.473-2.717l-0.121,0.065
	l-0.604,0.113l-0.31-0.064c-0.853-0.177-1.8-0.275-2.816-0.292c-1.596-0.026-2.883,0.351-3.939,1.151l-0.732,0.556l-0.85-0.351
	c-1.816-0.742-7.15-2.235-9.965-0.242c-1.562,1.107-2.274,3.275-2.116,6.445c0.052,1.046,0.764,5.008,1.936,8.851
	c1.621,5.31,3.094,7.074,3.709,7.279c0.107,0.037,0.386-0.18,0.663-0.513c1.802-2.167,3.516-3.975,3.588-4.051l0.929-0.978
	l1.124,0.747c0.453,0.301,0.952,0.471,1.465,0.503l2.68-2.286l-0.388,3.962c-0.009,0.089-0.013,0.21,0.022,0.435l0.117,0.751
	l-0.505,0.565l-0.058,0.065l1.472,0.68L38.956,136.031z"/>
<path fill="#336791" d="M55.554,134.641c-4.673,0.963-4.994-0.618-4.994-0.618c4.934-7.321,6.996-16.613,5.216-18.888
	c-4.855-6.204-13.26-3.27-13.401-3.194l-0.045,0.008c-0.923-0.191-1.956-0.306-3.117-0.324c-2.114-0.035-3.718,0.554-4.935,1.477
	c0,0-14.994-6.177-14.297,7.769c0.148,2.966,4.252,22.448,9.147,16.564c1.789-2.152,3.518-3.971,3.518-3.971
	c0.858,0.57,1.886,0.861,2.964,0.757l0.084-0.071c-0.026,0.267-0.014,0.528,0.033,0.837c-1.261,1.409-0.891,1.657-3.411,2.175
	c-2.551,0.526-1.052,1.462-0.074,1.706c1.186,0.297,3.93,0.718,5.784-1.878l-0.074,0.296c0.494,0.396,0.841,2.574,0.783,4.549
	c-0.059,1.975-0.097,3.331,0.292,4.39c0.389,1.059,0.777,3.441,4.091,2.731c2.769-0.593,4.204-2.131,4.404-4.696
	c0.142-1.824,0.462-1.554,0.482-3.185l0.257-0.772c0.296-2.472,0.047-3.27,1.753-2.898l0.415,0.036
	c1.255,0.058,2.898-0.202,3.863-0.65C56.37,135.827,57.602,134.218,55.554,134.641L55.554,134.641z"/>
<path fill="#FFFFFF" d="M42.208,149.695c-2.763,0-3.637-2.187-3.996-3.082c-0.524-1.311-0.637-6.398-0.521-10.571
	c0.008-0.296,0.253-0.53,0.55-0.521c0.295,0.008,0.528,0.254,0.521,0.55c-0.135,4.812,0.057,9.173,0.444,10.143
	c0.605,1.513,1.523,2.837,4.119,2.281c2.464-0.529,3.387-1.463,3.798-3.845c0.316-1.829,0.939-7.03,1.016-8.057
	c0.022-0.295,0.278-0.517,0.574-0.494c0.295,0.022,0.516,0.279,0.494,0.574c-0.08,1.068-0.701,6.26-1.028,8.159
	c-0.485,2.814-1.74,4.091-4.629,4.71C43.059,149.648,42.613,149.695,42.208,149.695L42.208,149.695z M27.23,139.011
	c-0.264,0-0.503-0.048-0.71-0.117c-1.794-0.599-3.503-3.521-5.08-8.686c-1.2-3.932-1.96-8.036-2.027-9.369
	c-0.198-3.954,0.821-6.751,3.027-8.314c4.364-3.093,11.707-0.147,12.017-0.021c0.274,0.112,0.405,0.424,0.293,0.698
	c-0.111,0.273-0.424,0.405-0.698,0.293v0c-0.071-0.029-7.112-2.85-10.995-0.096c-1.887,1.338-2.753,3.823-2.575,7.386
	c0.056,1.124,0.767,5.129,1.981,9.11c1.408,4.611,3.009,7.521,4.395,7.982c0.217,0.073,0.879,0.293,1.825-0.844
	c1.78-2.141,3.415-3.85,3.432-3.867c0.204-0.214,0.543-0.221,0.757-0.017c0.213,0.205,0.221,0.544,0.016,0.757
	c-0.016,0.017-1.626,1.7-3.381,3.811C28.676,138.718,27.879,139.011,27.23,139.011L27.23,139.011z M50.527,134.5
	c-0.103,0-0.207-0.029-0.299-0.091c-0.245-0.165-0.31-0.498-0.145-0.744c4.987-7.401,6.738-16.342,5.238-18.258
	c-1.887-2.411-4.552-3.671-7.921-3.743c-2.494-0.054-4.477,0.583-4.8,0.694l-0.082,0.033c-0.326,0.103-0.576-0.076-0.67-0.285
	c-0.111-0.247-0.02-0.54,0.212-0.68l0.144-0.059l-0.007,0.002l0.008-0.002c0.55-0.201,2.563-0.806,5.057-0.777
	c3.727,0.04,6.806,1.477,8.903,4.157c0.992,1.268,0.995,4.19,0.006,8.016c-1.007,3.9-2.903,8.093-5.2,11.502
	C50.868,134.417,50.699,134.5,50.527,134.5L50.527,134.5z M50.782,137.925c-0.852,0-1.615-0.12-2.072-0.394
	c-0.47-0.281-0.559-0.664-0.571-0.867c-0.128-2.251,1.114-2.644,1.748-2.822c-0.088-0.133-0.214-0.291-0.344-0.453
	c-0.37-0.461-0.875-1.094-1.265-2.04c-0.061-0.147-0.252-0.491-0.474-0.889c-1.201-2.154-3.7-6.635-2.095-8.93
	c0.743-1.062,2.222-1.48,4.402-1.247c-0.641-1.954-3.695-8.065-10.94-8.184c-2.179-0.037-3.967,0.634-5.31,1.989
	c-3.006,3.037-2.897,8.531-2.896,8.586c0.008,0.295-0.226,0.542-0.521,0.549c-0.295,0.009-0.542-0.226-0.549-0.521
	c-0.007-0.244-0.119-6.009,3.206-9.368c1.556-1.571,3.604-2.347,6.088-2.307c4.636,0.076,7.62,2.433,9.306,4.396
	c1.838,2.14,2.74,4.5,2.814,5.288c0.056,0.585-0.365,0.703-0.45,0.72l-0.193,0.004c-2.14-0.342-3.512-0.105-4.079,0.706
	c-1.221,1.745,1.143,5.984,2.152,7.795c0.258,0.461,0.444,0.795,0.529,1.001c0.332,0.804,0.764,1.344,1.112,1.778
	c0.305,0.382,0.57,0.713,0.665,1.102c0.044,0.077,0.668,1,4.37,0.235c0.928-0.191,1.484-0.027,1.654,0.486
	c0.334,1.012-1.542,2.192-2.582,2.675C53.554,137.652,52.068,137.925,50.782,137.925L50.782,137.925z M49.206,136.577
	c0.117,0.119,0.705,0.323,1.922,0.271c1.082-0.046,2.223-0.282,2.907-0.599c0.876-0.407,1.46-0.861,1.763-1.172l-0.168,0.031
	c-2.367,0.489-4.041,0.424-4.976-0.194c-0.067-0.043-0.126-0.089-0.181-0.134c-0.101,0.04-0.195,0.066-0.262,0.085
	C49.681,135.013,49.133,135.166,49.206,136.577L49.206,136.577z M33.917,139.567c-0.587,0-1.207-0.08-1.838-0.238
	c-0.654-0.164-1.758-0.657-1.741-1.466c0.019-0.909,1.34-1.181,1.837-1.284c1.796-0.37,1.914-0.519,2.475-1.231
	c0.164-0.208,0.368-0.466,0.645-0.777c0.413-0.461,0.863-0.695,1.34-0.695c0.332,0,0.604,0.113,0.784,0.187
	c0.573,0.237,1.052,0.812,1.248,1.499c0.178,0.62,0.093,1.216-0.238,1.68C37.342,138.764,35.783,139.567,33.917,139.567
	L33.917,139.567z M31.494,137.909c0.162,0.125,0.485,0.291,0.845,0.382c0.547,0.137,1.078,0.206,1.579,0.206
	c1.526,0,2.75-0.632,3.64-1.877c0.186-0.26,0.13-0.589,0.081-0.763c-0.104-0.363-0.363-0.693-0.629-0.804
	c-0.145-0.06-0.264-0.106-0.374-0.106c-0.059,0-0.239,0-0.542,0.339c-0.256,0.286-0.439,0.519-0.603,0.725
	c-0.699,0.888-1.02,1.189-3.1,1.618C31.884,137.733,31.624,137.839,31.494,137.909L31.494,137.909z M35.611,135.439
	c-0.26,0-0.488-0.189-0.529-0.454c-0.014-0.089-0.022-0.178-0.026-0.268c-1.364-0.026-2.68-0.611-3.679-1.653
	c-1.263-1.318-1.837-3.144-1.577-5.008c0.283-2.026,0.177-3.814,0.12-4.774c-0.016-0.268-0.027-0.46-0.026-0.594
	c0-0.169,0.004-0.619,1.506-1.38c0.534-0.271,1.605-0.743,2.775-0.865c1.939-0.2,3.217,0.664,3.6,2.432
	c1.032,4.774,0.082,6.886-0.613,8.428c-0.129,0.287-0.251,0.558-0.349,0.82l-0.086,0.232c-0.367,0.983-0.684,1.833-0.586,2.468
	c0.045,0.292-0.156,0.565-0.448,0.61L35.611,135.439L35.611,135.439z M30.969,122.835l0.021,0.383
	c0.059,0.998,0.169,2.855-0.129,4.986c-0.215,1.538,0.255,3.04,1.29,4.12c0.817,0.853,1.894,1.324,3,1.324h0.023
	c0.124-0.522,0.33-1.073,0.551-1.666l0.086-0.23c0.11-0.297,0.24-0.584,0.376-0.888c0.668-1.485,1.5-3.333,0.542-7.763
	c-0.19-0.877-0.65-1.385-1.406-1.552C33.769,121.205,31.455,122.373,30.969,122.835L30.969,122.835z M34.2,122.608
	c-0.027,0.189,0.347,0.694,0.833,0.762c0.486,0.068,0.902-0.327,0.929-0.516c0.026-0.189-0.347-0.398-0.834-0.466
	C34.642,122.32,34.226,122.418,34.2,122.608z M35.146,123.557l-0.137-0.009c-0.302-0.042-0.607-0.233-0.816-0.51
	c-0.073-0.097-0.193-0.286-0.169-0.455c0.034-0.247,0.335-0.395,0.806-0.395c0.105,0,0.214,0.008,0.325,0.023
	c0.257,0.036,0.495,0.11,0.671,0.208c0.306,0.171,0.328,0.361,0.314,0.459C36.102,123.151,35.667,123.557,35.146,123.557z
	 M34.377,122.64c0.016,0.117,0.304,0.502,0.681,0.554l0.087,0.006c0.348,0,0.607-0.274,0.638-0.363
	c-0.032-0.061-0.255-0.213-0.679-0.271c-0.094-0.013-0.187-0.02-0.275-0.02C34.557,122.545,34.412,122.606,34.377,122.64
	L34.377,122.64z M49.01,122.222c0.026,0.19-0.347,0.695-0.833,0.763s-0.903-0.327-0.93-0.517c-0.026-0.189,0.348-0.398,0.834-0.465
	C48.567,121.934,48.983,122.033,49.01,122.222z M48.064,123.081c-0.469,0-0.873-0.365-0.906-0.601
	c-0.038-0.284,0.429-0.5,0.91-0.566c0.106-0.015,0.211-0.022,0.312-0.022c0.415,0,0.69,0.122,0.718,0.318
	c0.018,0.127-0.08,0.324-0.248,0.5c-0.111,0.117-0.344,0.319-0.662,0.363L48.064,123.081L48.064,123.081z M48.38,122.07
	c-0.093,0-0.19,0.007-0.288,0.021c-0.484,0.067-0.772,0.262-0.758,0.366c0.016,0.114,0.325,0.447,0.729,0.447l0.1-0.007
	c0.264-0.037,0.462-0.209,0.557-0.309c0.148-0.156,0.208-0.303,0.2-0.354C48.912,122.168,48.733,122.07,48.38,122.07z
	 M49.711,133.091c-0.103,0-0.206-0.029-0.297-0.091c-0.246-0.165-0.312-0.497-0.147-0.743c1.14-1.703,0.931-3.439,0.729-5.119
	c-0.086-0.716-0.175-1.455-0.151-2.166c0.023-0.73,0.116-1.333,0.206-1.916c0.106-0.69,0.207-1.343,0.165-2.117
	c-0.016-0.295,0.21-0.547,0.506-0.563c0.296-0.016,0.547,0.21,0.564,0.506c0.047,0.885-0.066,1.624-0.176,2.338
	c-0.085,0.551-0.173,1.121-0.194,1.787c-0.021,0.629,0.06,1.296,0.145,2.003c0.215,1.786,0.458,3.81-0.903,5.842
	C50.053,133.007,49.883,133.091,49.711,133.091L49.711,133.091z"/>
<path fill="none" stroke="#FFFFFF" stroke-width="3" stroke-linecap="round" stroke-linejoin="round" d="M18.175,115.04"/>
<path d="M13.555,150.858c0.456-0.076,1.051-0.141,1.81-0.141c0.931,0,1.614,0.217,2.047,0.607c0.401,0.346,0.639,0.877,0.639,1.527
	c0,0.661-0.195,1.181-0.563,1.56c-0.499,0.531-1.311,0.802-2.231,0.802c-0.282,0-0.542-0.011-0.758-0.065v2.925h-0.943V150.858
	L13.555,150.858z M14.498,154.378c0.206,0.054,0.466,0.076,0.78,0.076c1.137,0,1.831-0.553,1.831-1.56
	c0-0.964-0.682-1.43-1.722-1.43c-0.412,0-0.726,0.032-0.888,0.076V154.378L14.498,154.378z M23.759,155.407
	c0,1.939-1.343,2.784-2.611,2.784c-1.419,0-2.513-1.04-2.513-2.697c0-1.755,1.148-2.784,2.6-2.784
	C22.741,152.709,23.759,153.804,23.759,155.407z M19.6,155.461c0,1.148,0.661,2.015,1.592,2.015c0.91,0,1.592-0.856,1.592-2.037
	c0-0.888-0.444-2.015-1.571-2.015S19.6,154.465,19.6,155.461L19.6,155.461z M24.831,157.097c0.281,0.185,0.78,0.379,1.256,0.379
	c0.693,0,1.018-0.347,1.018-0.78c0-0.455-0.27-0.704-0.975-0.964c-0.942-0.335-1.387-0.855-1.387-1.484
	c0-0.845,0.683-1.538,1.809-1.538c0.531,0,0.997,0.152,1.29,0.325l-0.238,0.693c-0.206-0.13-0.585-0.303-1.073-0.303
	c-0.563,0-0.877,0.325-0.877,0.715c0,0.434,0.315,0.628,0.997,0.889c0.91,0.346,1.376,0.801,1.376,1.581
	c0,0.921-0.715,1.571-1.961,1.571c-0.574,0-1.104-0.141-1.473-0.357L24.831,157.097L24.831,157.097z M30.399,151.323v1.505h1.364
	v0.726h-1.364v2.827c0,0.65,0.184,1.018,0.715,1.018c0.249,0,0.434-0.033,0.553-0.065l0.043,0.715
	c-0.184,0.076-0.477,0.13-0.844,0.13c-0.444,0-0.802-0.141-1.029-0.401c-0.271-0.282-0.369-0.747-0.369-1.365v-2.859h-0.812v-0.726
	h0.812v-1.256L30.399,151.323L30.399,151.323z M37.288,152.829c-0.022,0.379-0.043,0.802-0.043,1.44v3.044
	c0,1.203-0.238,1.939-0.747,2.395c-0.509,0.477-1.246,0.628-1.907,0.628c-0.628,0-1.321-0.151-1.744-0.433l0.238-0.726
	c0.347,0.216,0.888,0.412,1.538,0.412c0.975,0,1.69-0.509,1.69-1.831v-0.585h-0.022c-0.292,0.487-0.855,0.877-1.668,0.877
	c-1.3,0-2.231-1.105-2.231-2.557c0-1.777,1.159-2.784,2.361-2.784c0.91,0,1.409,0.477,1.636,0.91h0.021l0.043-0.791H37.288
	L37.288,152.829z M36.302,154.898c0-0.163-0.011-0.303-0.054-0.433c-0.173-0.553-0.639-1.007-1.332-1.007
	c-0.91,0-1.56,0.769-1.56,1.982c0,1.029,0.52,1.885,1.549,1.885c0.585,0,1.116-0.368,1.321-0.975
	c0.054-0.163,0.076-0.347,0.076-0.509L36.302,154.898L36.302,154.898z M38.761,154.465c0-0.617-0.011-1.148-0.043-1.636h0.834
	l0.032,1.029h0.043c0.238-0.704,0.812-1.148,1.452-1.148c0.108,0,0.184,0.011,0.27,0.033v0.899
	c-0.097-0.021-0.195-0.033-0.324-0.033c-0.672,0-1.149,0.509-1.278,1.224c-0.021,0.13-0.043,0.282-0.043,0.444v2.794h-0.942V154.465
	L38.761,154.465z M42.726,155.624c0.022,1.289,0.845,1.819,1.798,1.819c0.683,0,1.094-0.119,1.452-0.271l0.163,0.683
	c-0.336,0.151-0.91,0.325-1.744,0.325c-1.614,0-2.578-1.062-2.578-2.643s0.932-2.828,2.459-2.828c1.711,0,2.167,1.506,2.167,2.47
	c0,0.195-0.022,0.347-0.033,0.444L42.726,155.624L42.726,155.624z M45.521,154.941c0.01-0.606-0.25-1.549-1.322-1.549
	c-0.964,0-1.386,0.888-1.462,1.549H45.521z"/>
<path fill="#336791" d="M47.524,156.924c0.422,0.26,1.04,0.477,1.69,0.477c0.964,0,1.527-0.509,1.527-1.246
	c0-0.683-0.39-1.073-1.375-1.452c-1.192-0.422-1.928-1.04-1.928-2.069c0-1.138,0.942-1.982,2.361-1.982
	c0.748,0,1.289,0.173,1.614,0.357l-0.26,0.769c-0.238-0.13-0.726-0.347-1.387-0.347c-0.997,0-1.375,0.596-1.375,1.094
	c0,0.682,0.444,1.018,1.452,1.408c1.234,0.477,1.863,1.072,1.863,2.145c0,1.126-0.834,2.102-2.556,2.102
	c-0.704,0-1.473-0.206-1.864-0.466L47.524,156.924L47.524,156.924z M59.017,159.144c-0.986-0.26-1.95-0.552-2.795-0.845
	c-0.152-0.054-0.303-0.108-0.444-0.108c-1.733-0.065-3.217-1.343-3.217-3.694c0-2.339,1.43-3.845,3.401-3.845
	c1.982,0,3.271,1.538,3.271,3.694c0,1.874-0.867,3.076-2.08,3.499v0.043c0.726,0.184,1.516,0.357,2.134,0.466L59.017,159.144z
	 M58.237,154.389c0-1.462-0.758-2.968-2.307-2.968c-1.592,0-2.372,1.473-2.361,3.055c-0.011,1.549,0.845,2.946,2.318,2.946
	C57.393,157.422,58.237,156.057,58.237,154.389z M60.457,150.771H61.4v6.51h3.12v0.791h-4.062V150.771z"/>
</svg>
