<?xml version="1.0" encoding="utf-8"?>
<!-- Generator: Adobe Illustrator 16.0.0, SVG Export Plug-In . SVG Version: 6.00 Build 0)  -->
<!DOCTYPE svg PUBLIC "-//W3C//DTD SVG 1.1//EN" "http://www.w3.org/Graphics/SVG/1.1/DTD/svg11.dtd">
<svg version="1.1" id="Layer_1" xmlns="http://www.w3.org/2000/svg" xmlns:xlink="http://www.w3.org/1999/xlink" x="0px" y="0px"
	 width="612px" height="792px" viewBox="0 0 612 792" enable-background="new 0 0 612 792" xml:space="preserve">
<g>
	<circle fill="#61DAFB" cx="38.986" cy="28.854" r="4.321"/>
	<path fill="#61DAFB" d="M38.986,44.744c3.392,3.298,6.737,5.25,9.431,5.25c0.883,0,1.719-0.186,2.416-0.604
		c2.416-1.394,3.299-4.878,2.462-9.849c-0.14-0.883-0.325-1.766-0.558-2.695c0.929-0.278,1.766-0.558,2.602-0.836
		c4.692-1.812,7.294-4.321,7.294-7.062c0-2.788-2.602-5.296-7.294-7.062c-0.836-0.325-1.672-0.604-2.602-0.836
		c0.232-0.929,0.418-1.812,0.558-2.695c0.79-5.064-0.093-8.595-2.509-9.989c-0.697-0.418-1.533-0.604-2.416-0.604
		c-2.648,0-6.04,1.951-9.431,5.25c-3.345-3.299-6.69-5.25-9.385-5.25c-0.883,0-1.719,0.186-2.416,0.604
		c-2.416,1.394-3.299,4.878-2.462,9.85c0.139,0.882,0.325,1.765,0.558,2.694c-0.929,0.279-1.766,0.558-2.602,0.836
		c-4.692,1.812-7.294,4.321-7.294,7.062c0,2.787,2.602,5.296,7.294,7.062c0.836,0.325,1.673,0.604,2.602,0.836
		c-0.232,0.929-0.418,1.812-0.558,2.695c-0.79,4.971,0.093,8.502,2.462,9.849c0.697,0.418,1.533,0.604,2.416,0.604
		C32.25,49.947,35.595,47.996,38.986,44.744L38.986,44.744z M36.385,38.471c0.836,0.047,1.719,0.047,2.602,0.047
		s1.766,0,2.602-0.047c-0.836,1.115-1.719,2.137-2.602,3.113C38.104,40.608,37.221,39.586,36.385,38.471z M30.624,33.686
		c0.465,0.79,0.883,1.533,1.394,2.276c-1.44-0.186-2.788-0.418-4.089-0.697c0.418-1.254,0.883-2.555,1.44-3.856
		C29.741,32.153,30.159,32.943,30.624,33.686L30.624,33.686z M27.929,22.489c1.301-0.279,2.648-0.511,4.089-0.697
		c-0.465,0.743-0.929,1.487-1.394,2.276c-0.464,0.79-0.883,1.533-1.254,2.323C28.765,25.044,28.301,23.744,27.929,22.489z
		 M30.484,28.854c0.604-1.254,1.254-2.509,1.998-3.763c0.697-1.208,1.487-2.416,2.276-3.624c1.394-0.093,2.788-0.14,4.228-0.14
		c1.487,0,2.88,0.047,4.228,0.14c0.836,1.208,1.58,2.416,2.276,3.624c0.743,1.254,1.394,2.509,1.998,3.763
		c-0.604,1.254-1.254,2.509-1.998,3.763c-0.697,1.208-1.487,2.416-2.276,3.624c-1.394,0.093-2.788,0.14-4.228,0.14
		c-1.487,0-2.88-0.046-4.228-0.14c-0.836-1.208-1.58-2.416-2.276-3.624C31.739,31.363,31.088,30.109,30.484,28.854L30.484,28.854z
		 M48.65,26.346l-1.254-2.323c-0.465-0.79-0.883-1.533-1.394-2.276c1.44,0.186,2.787,0.418,4.088,0.697
		C49.672,23.744,49.208,25.044,48.65,26.346L48.65,26.346z M48.65,31.363c0.558,1.301,1.022,2.602,1.44,3.856
		c-1.301,0.279-2.648,0.511-4.088,0.697c0.464-0.743,0.929-1.487,1.394-2.276C47.813,32.943,48.231,32.153,48.65,31.363
		L48.65,31.363z M49.718,47.485c-0.372,0.232-0.836,0.325-1.347,0.325c-2.276,0-5.11-1.858-7.898-4.646
		c1.347-1.44,2.648-3.066,3.949-4.878c2.184-0.186,4.274-0.511,6.226-0.976c0.232,0.836,0.372,1.672,0.511,2.509
		C51.809,43.768,51.298,46.602,49.718,47.485z M52.134,23c5.204,1.487,8.316,3.763,8.316,5.854c0,1.812-2.137,3.624-5.9,5.064
		c-0.744,0.279-1.58,0.558-2.416,0.79c-0.604-1.905-1.347-3.856-2.276-5.854C50.787,26.856,51.577,24.905,52.134,23L52.134,23z
		 M48.417,9.899c0.511,0,0.929,0.093,1.347,0.325c1.533,0.883,2.091,3.67,1.44,7.666c-0.139,0.79-0.325,1.626-0.511,2.509
		c-1.951-0.418-4.042-0.744-6.225-0.976c-1.254-1.812-2.602-3.438-3.949-4.878C43.307,11.804,46.141,9.899,48.417,9.899z
		 M41.588,19.237c-0.836-0.046-1.719-0.046-2.602-0.046s-1.766,0-2.602,0.046c0.836-1.115,1.719-2.137,2.602-3.113
		C39.869,17.1,40.752,18.168,41.588,19.237z M28.254,10.224c0.372-0.232,0.836-0.325,1.348-0.325c2.276,0,5.11,1.858,7.898,4.646
		c-1.347,1.44-2.648,3.066-3.949,4.878c-2.184,0.186-4.274,0.511-6.226,0.976c-0.232-0.836-0.372-1.673-0.511-2.509
		C26.164,13.941,26.674,11.153,28.254,10.224L28.254,10.224z M25.838,34.708c-5.204-1.486-8.316-3.763-8.316-5.854
		c0-1.812,2.137-3.624,5.9-5.064c0.743-0.279,1.58-0.557,2.416-0.79c0.604,1.905,1.347,3.856,2.276,5.854
		C27.186,30.852,26.396,32.85,25.838,34.708z M26.814,39.819c0.139-0.79,0.325-1.626,0.511-2.509
		c1.951,0.418,4.042,0.743,6.226,0.976c1.254,1.812,2.602,3.438,3.949,4.878c-2.788,2.741-5.622,4.646-7.898,4.646
		c-0.511,0-0.929-0.093-1.348-0.325C26.674,46.602,26.164,43.768,26.814,39.819z M24.863,58.96c1.022-1.254,1.068-2.648,0.511-4.042
		c-0.558-1.394-1.719-2.044-3.159-2.09c-1.719-0.047-3.484,0-5.204,0h-0.325V64.86h1.394v-4.553h2.184
		c0.279,0,0.511,0.093,0.65,0.325l2.788,4.321c0.046,0.093,0.186,0.232,0.279,0.232h1.812c-1.115-1.719-2.184-3.345-3.299-5.018
		C23.469,60.029,24.305,59.704,24.863,58.96z M18.08,58.867v-4.6h0.511c1.069,0,2.184-0.046,3.252,0.046
		c1.254,0.047,2.137,1.022,2.137,2.277s-1.022,2.23-2.277,2.276C20.588,58.914,19.473,58.867,18.08,58.867z M36.059,59.471
		c-0.743-3.252-3.716-4.088-5.993-3.066c-1.765,0.79-2.555,2.323-2.602,4.228c-0.046,1.44,0.372,2.741,1.487,3.716
		c1.254,1.115,2.788,1.255,4.367,0.976c0.883-0.186,1.672-0.604,2.276-1.254c-0.232-0.325-0.465-0.65-0.697-0.929
		c-1.301,1.115-2.741,1.487-4.321,0.743c-1.022-0.511-1.533-1.765-1.626-2.695h7.201v-0.604
		C36.199,60.168,36.152,59.796,36.059,59.471L36.059,59.471z M29.044,60.214c-0.139-1.394,1.254-2.88,2.788-2.88
		c1.766-0.046,2.88,1.022,2.927,2.88H29.044z M43.307,56.172c-0.697-0.139-1.44-0.186-2.137-0.139
		c-1.115,0.093-2.091,0.604-2.88,1.44c0.232,0.325,0.418,0.65,0.697,1.022c0.093-0.093,0.186-0.186,0.279-0.232
		c0.743-0.697,1.626-1.068,2.694-0.976c0.836,0.046,1.626,0.325,1.858,1.162c0.186,0.65,0.14,1.347,0.186,2.044
		c-0.139,0-0.186-0.046-0.232-0.093c-1.115-0.929-2.369-1.115-3.717-0.79c-1.254,0.325-2.044,1.301-2.137,2.555
		c-0.093,1.44,0.558,2.509,1.812,3.02c0.79,0.325,1.673,0.325,2.509,0.14c0.65-0.14,0.929-0.511,1.858-1.022v0.604h1.301
		c0-1.858,0.046-4.135,0-6.272C45.398,57.288,44.608,56.451,43.307,56.172L43.307,56.172z M43.958,62.026
		c-0.046,0.139,0,0.279,0,0.418c0,0.976-0.232,1.301-1.162,1.672c-0.65,0.232-1.347,0.325-2.044,0.093
		c-0.79-0.232-1.348-0.929-1.348-1.719c-0.046-0.79,0.465-1.579,1.254-1.812c1.069-0.372,2.044-0.14,2.927,0.511
		C43.865,61.422,44.05,61.655,43.958,62.026z M51.205,57.427c1.208-0.372,2.323-0.139,3.159,0.883l0.14,0.093
		c0.325-0.279,0.604-0.558,0.976-0.883c-0.14-0.14-0.186-0.232-0.279-0.372c-1.347-1.44-3.996-1.626-5.622-0.464
		c-2.276,1.672-2.23,4.925-1.115,6.644c1.069,1.626,2.602,2.184,4.414,1.952c1.069-0.14,1.952-0.65,2.648-1.533
		c-0.325-0.279-0.65-0.558-0.976-0.883c-0.093,0.093-0.14,0.139-0.186,0.232c-1.254,1.394-3.345,1.254-4.46-0.232
		c-0.65-0.883-0.79-1.905-0.604-2.927C49.393,58.774,49.997,57.845,51.205,57.427L51.205,57.427z M60.869,63.746
		c-0.093,0.046-0.139,0.093-0.139,0.093c-0.372,0.279-0.744,0.325-1.162,0.186c-0.418-0.186-0.464-0.557-0.511-0.929v-5.296
		c0-0.093,0,0.093,0.047-0.372h1.765v-1.394H59.01V53.71h-1.394v2.508h-1.208c-0.093,0-0.232,0.093-0.232,0.186
		c-0.046,0.325,0,0.558,0,1.022h1.487v5.947c0,0.744,0.186,1.394,0.836,1.766c0.697,0.418,2.044,0.325,2.648-0.186
		c0.093-0.047,0.14-0.232,0.14-0.279C61.147,64.396,61.008,64.071,60.869,63.746z"/>
</g>
</svg>
