<?xml version="1.0" encoding="utf-8"?>
<!-- Generator: Adobe Illustrator 16.0.0, SVG Export Plug-In . SVG Version: 6.00 Build 0)  -->
<!DOCTYPE svg PUBLIC "-//W3C//DTD SVG 1.1//EN" "http://www.w3.org/Graphics/SVG/1.1/DTD/svg11.dtd">
<svg version="1.1" id="Layer_1" xmlns="http://www.w3.org/2000/svg" xmlns:xlink="http://www.w3.org/1999/xlink" x="0px" y="0px"
	 width="53.5px" height="53.5px" viewBox="12.688 15.243 53.5 53.5" enable-background="new 12.688 15.243 53.5 53.5"
	 xml:space="preserve">
<path fill="none" d="M12.688,15.243h53.5v53.5h-53.5V15.243z"/>
<path fill="#764ABC" d="M49.758,52.07c-3.762,7.691-10.349,12.865-19.064,14.566c-1.336,0.327-2.708,0.487-4.083,0.477
	c-5.016,0-9.613-2.09-11.845-5.513c-2.997-4.56-4.017-14.228,5.864-21.379c0.201,1.091,0.61,2.587,0.882,3.473
	c-1.939,1.441-3.527,3.303-4.644,5.446c-1.839,3.611-1.634,7.218,0.543,10.554c1.504,2.249,3.887,3.615,6.951,4.033
	c3.827,0.484,7.709-0.247,11.097-2.09c5.312-2.792,8.853-6.127,11.168-10.688c-0.655-0.677-1.042-1.567-1.091-2.508
	c-0.073-2.101,1.569-3.864,3.67-3.941h0.142c2.112-0.011,3.833,1.693,3.843,3.805c0.01,1.965-1.471,3.618-3.425,3.823L49.758,52.07z
	 M61.741,43.627c5.104,5.785,5.241,12.593,3.269,16.543c-1.839,3.607-6.688,7.218-13.208,7.218
	c-3.044-0.062-6.039-0.782-8.777-2.111c0.957-0.681,2.315-1.772,3.063-2.454c2.112,0.915,4.386,1.401,6.688,1.43
	c4.222,0,7.419-1.973,9.325-5.58c1.225-2.382,1.296-5.174,0.138-8.033c-1.421-3.597-3.949-6.649-7.218-8.715
	c-4.29-2.892-9.347-4.433-14.521-4.426h-1.225c-0.583,1.346-1.879,2.244-3.344,2.315h-0.129c-2.107-0.026-3.795-1.755-3.769-3.862
	c0.025-2.022,1.623-3.674,3.644-3.766h0.138c1.41,0.001,2.7,0.79,3.344,2.044h1.091C48.943,34.231,56.575,37.567,61.741,43.627
	L61.741,43.627z M27.154,53.241c-0.071-0.694,0.097-1.392,0.477-1.977c-3.812-6.604-5.852-14.976-2.721-23.69
	c2.245-6.55,7.896-10.976,14.023-10.976c6.537,0,13.346,5.722,14.161,16.748c-1.02-0.339-2.508-0.836-3.402-1.02
	c-0.222-3.607-3.269-12.593-10.487-12.459c-2.587,0.071-6.399,1.295-8.359,3.812c-2.425,3.004-3.835,6.698-4.029,10.554
	c-0.459,5.286,0.781,10.582,3.54,15.114c0.152-0.056,0.315-0.079,0.477-0.067h0.134c2.105-0.038,3.843,1.638,3.881,3.743
	s-1.638,3.843-3.743,3.881h-0.138c-2.049-0.007-3.729-1.627-3.812-3.674v0.011H27.154z"/>
</svg>
