<?xml version="1.0" encoding="utf-8"?>
<!-- Generator: Adobe Illustrator 16.0.0, SVG Export Plug-In . SVG Version: 6.00 Build 0)  -->
<!DOCTYPE svg PUBLIC "-//W3C//DTD SVG 1.1//EN" "http://www.w3.org/Graphics/SVG/1.1/DTD/svg11.dtd">
<svg version="1.1" id="Layer_1" xmlns="http://www.w3.org/2000/svg" xmlns:xlink="http://www.w3.org/1999/xlink" x="0px" y="0px"
	 width="60.123px" height="44.972px" viewBox="10.525 7.768 60.123 44.972" enable-background="new 10.525 7.768 60.123 44.972"
	 xml:space="preserve">
<path fill="#CB6699" d="M10.525,26.523c0,0.336,0.099,0.559,0.155,0.775c0.362,1.404,1.14,2.61,2.063,3.709
	c1.315,1.567,2.925,2.828,4.575,4.015c1.431,1.028,2.891,2.034,4.328,3.055c0.247,0.175,0.48,0.377,0.748,0.592
	c-0.23,0.125-0.422,0.234-0.621,0.335c-1.896,0.961-3.72,2.04-5.401,3.345c-1.013,0.788-1.993,1.624-2.685,2.717
	c-1.113,1.759-1.507,3.632-0.678,5.632c0.243,0.584,0.612,1.089,1.134,1.462c0.169,0.121,0.358,0.241,0.556,0.288
	c0.507,0.119,1.023,0.197,1.536,0.292l1.452-0.001c1.606-0.143,3.068-0.693,4.39-1.605c2.065-1.425,3.456-3.336,4.054-5.788
	c0.435-1.782,0.453-3.567-0.06-5.341c-0.047-0.165-0.107-0.326-0.169-0.486s-0.136-0.314-0.222-0.513l3.293-1.894l0.049,0.042
	c-0.06,0.196-0.124,0.391-0.178,0.589c-0.391,1.429-0.651,2.883-0.558,4.366c0.1,1.58,0.541,3.06,1.466,4.38
	c0.748,1.068,2.53,1.107,3.325,0.036c0.282-0.381,0.556-0.779,0.761-1.204c0.537-1.109,1.034-2.237,1.547-3.357l0.089-0.205
	c-0.037,0.531-0.08,0.997-0.1,1.463c-0.031,0.729,0.012,1.453,0.261,2.146c0.213,0.593,0.575,1.036,1.254,1.114
	c0.465,0.053,0.835-0.159,1.176-0.429c0.533-0.421,0.967-0.941,1.289-1.532c0.911-1.672,1.845-3.333,2.67-5.047
	c0.893-1.854,1.673-3.762,2.502-5.647l0.137-0.334c0.196,0.77,0.333,1.523,0.583,2.237c0.292,0.828,0.654,1.637,1.048,2.422
	c0.186,0.371,0.165,0.612-0.094,0.923c-1.08,1.303-2.142,2.621-3.205,3.938c-0.235,0.291-0.469,0.586-0.665,0.904
	c-0.119,0.193-0.197,0.428-0.23,0.653c-0.064,0.43,0.202,0.845,0.662,0.944c0.42,0.091,0.868,0.124,1.297,0.093
	c1.483-0.109,2.83-0.63,4.021-1.512c1.542-1.143,2.038-2.702,1.664-4.55c-0.101-0.501-0.28-0.989-0.454-1.472
	c-0.078-0.218-0.083-0.371,0.059-0.574c1.233-1.761,2.287-3.629,3.267-5.54c0.039-0.075,0.078-0.15,0.146-0.231
	c0.317,1.652,0.795,3.245,1.651,4.689c-0.437,0.421-0.869,0.803-1.26,1.224c-0.861,0.926-1.609,1.932-1.999,3.158
	c-0.167,0.528-0.296,1.066-0.222,1.63c0.116,0.877,0.834,1.447,1.697,1.247c1.846-0.427,3.439-1.297,4.603-2.837
	c0.784-1.037,0.855-2.194,0.527-3.406c-0.09-0.33-0.197-0.654-0.312-1.032c0.456-0.141,0.899-0.311,1.359-0.416
	c2.384-0.544,4.743-0.449,7.041,0.412c1.341,0.502,2.425,1.344,3.068,2.667c0.785,1.618,0.351,3.154-1.174,4.176
	c-0.142,0.096-0.305,0.171-0.423,0.29c-0.072,0.073-0.116,0.22-0.098,0.321c0.01,0.059,0.166,0.133,0.255,0.132
	c0.501-0.004,0.908-0.267,1.298-0.537c0.978-0.676,1.691-1.587,1.845-2.786l0.03-0.09l-0.037-0.781
	c-0.015-0.045,0.011-0.089,0.008-0.124c-0.208-1.746-1.141-3.099-2.497-4.161c-1.571-1.228-3.426-1.734-5.387-1.814
	c-1.599-0.065-3.17,0.172-4.676,0.72c-0.43,0.156-0.855,0.34-1.287,0.514c-0.058-0.104-0.121-0.205-0.172-0.309
	c-0.443-0.908-0.98-1.776-1.099-2.817c-0.084-0.739-0.188-1.478-0.012-2.209c0.169-0.704,0.389-1.395,0.597-2.089
	c0.107-0.357,0.032-0.558-0.309-0.719c-0.119-0.056-0.248-0.104-0.376-0.124c-0.838-0.122-1.665-0.052-2.477,0.184
	c-0.287,0.084-0.496,0.245-0.56,0.562c-0.037,0.183-0.111,0.357-0.163,0.538c-0.212,0.749-0.362,1.511-0.705,2.225
	c-0.859,1.789-1.84,3.51-2.844,5.218c-0.109,0.185-0.223,0.365-0.36,0.589c-0.353-0.737-0.729-1.399-0.842-2.175
	c-0.129-0.877-0.23-1.753-0.012-2.624c0.163-0.649,0.375-1.287,0.57-1.928c0.092-0.304,0.05-0.464-0.226-0.625
	c-0.14-0.081-0.297-0.152-0.454-0.176c-0.869-0.129-1.726-0.062-2.564,0.209c-0.26,0.084-0.396,0.252-0.476,0.521
	c-0.234,0.792-0.433,1.602-0.761,2.354c-1.328,3.046-2.695,6.076-4.06,9.105c-0.285,0.633-0.619,1.243-0.94,1.859
	c-0.081,0.156-0.2,0.294-0.302,0.44c-0.081-0.097-0.113-0.163-0.112-0.229c0.002-0.389-0.044-0.79,0.03-1.167
	c0.225-1.139,0.483-2.271,0.755-3.4c0.225-0.932,0.487-1.855,0.737-2.781c0.083-0.31,0.085-0.6-0.138-0.86
	c-0.374-0.437-1.155-0.532-1.619-0.196l-0.205,0.116l0.04-0.331c0.098-0.708,0.117-1.414-0.077-2.112
	c-0.242-0.87-0.863-1.37-1.765-1.342c-0.42,0.013-0.862,0.084-1.251,0.238c-1.637,0.642-2.896,1.778-3.968,3.146
	c-0.097,0.124-0.226,0.237-0.363,0.313c-1.385,0.768-2.775,1.527-4.165,2.288l-1.546,0.847c-0.415-0.396-0.792-0.806-1.219-1.154
	c-1.306-1.065-2.633-2.104-3.948-3.157c-1.166-0.934-2.295-1.906-3.159-3.142c-0.643-0.919-1.057-1.926-1.097-3.062
	c-0.05-1.449,0.36-2.772,1.098-4.005c0.943-1.576,2.23-2.841,3.645-3.987c1.497-1.212,3.115-2.24,4.793-3.18
	c2.347-1.313,4.761-2.476,7.35-3.244c2.654-0.788,5.347-1.238,8.125-0.924c1.092,0.124,2.152,0.374,3.125,0.907
	c0.746,0.409,1.357,0.943,1.642,1.78c0.281,0.823,0.272,1.656,0.078,2.492c-0.395,1.692-1.322,3.087-2.488,4.334
	c-1.913,2.043-4.246,3.435-6.873,4.354c-1.516,0.53-3.075,0.863-4.676,0.998c-1.307,0.109-2.586-0.006-3.824-0.461
	c-0.819-0.301-1.533-0.762-2.106-1.43c-0.103-0.12-0.234-0.25-0.425-0.138c-0.188,0.11-0.22,0.289-0.158,0.469
	c0.105,0.3,0.202,0.612,0.365,0.88c0.41,0.673,1.009,1.161,1.668,1.58c1.266,0.805,2.68,1.075,4.147,1.138
	c2.226,0.096,4.397-0.236,6.539-0.833c3.057-0.853,5.715-2.358,7.846-4.733c1.775-1.978,3.042-4.21,3.314-6.905
	c0.133-1.316-0.008-2.604-0.625-3.804c-0.668-1.3-1.73-2.267-3-2.934c-1.85-0.97-3.846-1.534-5.906-1.534h-2.064
	c-2.495,0-4.907,0.715-7.252,1.568c-1.775,0.646-3.515,1.408-5.205,2.252c-3.679,1.838-7.105,4.055-9.92,7.103
	c-1.402,1.519-2.589,3.194-3.272,5.167c-0.2,0.577-0.389,1.197-0.532,1.794 M23.898,42.902c-0.16,2.135-1.127,3.867-2.709,5.269
	c-0.89,0.789-1.911,1.35-3.099,1.547c-0.431,0.071-0.872,0.089-1.29-0.09c-0.596-0.255-0.73-0.784-0.741-1.348
	c-0.018-0.898,0.297-1.71,0.729-2.483c0.563-1.008,1.389-1.776,2.27-2.493c1.389-1.131,2.896-2.087,4.438-2.991l0.116-0.048
	C23.851,41.146,23.964,42.017,23.898,42.902z M35.946,33.622c-0.112,0.682-0.253,1.364-0.453,2.025
	c-0.688,2.288-1.573,4.505-2.529,6.692c-0.177,0.404-0.434,0.774-0.658,1.157c-0.034,0.06-0.085,0.111-0.135,0.16
	c-0.277,0.273-0.54,0.259-0.679-0.099c-0.163-0.416-0.263-0.861-0.349-1.301c-0.058-0.295-0.044-0.606-0.062-0.908
	c0.019-2.152,0.675-4.108,1.79-5.929c0.459-0.751,0.959-1.467,1.723-1.941c0.235-0.146,0.498-0.264,0.764-0.338
	C35.764,33.026,36.014,33.214,35.946,33.622L35.946,33.622z M44.166,44.094l2.954-3.449C47.243,41.926,45.066,44.483,44.166,44.094z
	 M53.602,41.773c-0.208,0.12-0.436,0.206-0.65,0.316c-0.196,0.102-0.26-0.001-0.266-0.17c-0.004-0.114,0.013-0.234,0.044-0.345
	c0.399-1.407,1.133-2.608,2.226-3.585l0.077-0.039C55.551,39.404,54.951,41,53.602,41.773L53.602,41.773z"/>
</svg>
