<?xml version="1.0" encoding="utf-8"?>
<!-- Generator: Adobe Illustrator 16.0.0, SVG Export Plug-In . SVG Version: 6.00 Build 0)  -->
<!DOCTYPE svg PUBLIC "-//W3C//DTD SVG 1.1//EN" "http://www.w3.org/Graphics/SVG/1.1/DTD/svg11.dtd">
<svg version="1.1" id="Layer_1" xmlns="http://www.w3.org/2000/svg" xmlns:xlink="http://www.w3.org/1999/xlink" x="0px" y="0px"
	 width="128px" height="128px" viewBox="0 0 128 128" enable-background="new 0 0 128 128" xml:space="preserve">
<path fill="#35495E" d="M7.941,0l19.55,0.062l5.608,9.574l5.607-9.574L58.138,0L33.104,43.188L7.941,0z M57.739,0.25l-9.557,0.008
	L33.096,26.161L18.017,0.257L8.311,0.249L33.1,42.558L57.739,0.25z M47.877,0.247l-8.92,0.066l-5.858,9.817l-5.858-9.817
	l-8.939-0.065l14.797,25.286L47.877,0.247z"/>
<path fill="#35495E" d="M18.44,43.522c-0.168,0-0.334,0.048-0.48,0.144c-0.146,0.096-0.279,0.263-0.279,0.474
	c0,0.028-0.016,0.09,0.039,0.199l-0.014-0.034l2.942,9.544c0.052,0.177,0.177,0.314,0.317,0.392
	c0.141,0.078,0.296,0.107,0.446,0.107c0.32,0,0.67-0.153,0.777-0.496l2.939-9.58v-0.034c0,0.046,0.014,0.018,0.014-0.084
	c0-0.215-0.137-0.374-0.285-0.474c-0.147-0.1-0.321-0.158-0.501-0.158c-0.223,0-0.479,0.135-0.564,0.393l-0.001,0.002l-2.378,7.938
	l-2.388-7.926c-0.035-0.14-0.128-0.257-0.238-0.322c-0.11-0.065-0.23-0.087-0.346-0.087L18.44,43.522z M41.873,44.015
	c-0.466,0-0.858,0.355-0.858,0.801c0,0.445,0.386,0.815,0.858,0.815c0.462,0,0.829-0.376,0.829-0.815S42.329,44.015,41.873,44.015z
	 M34.974,47.07c-1.598,0-2.914,1.278-2.914,2.815v1.577c0,0.861,0.343,1.599,0.925,2.108c0.582,0.509,1.394,0.792,2.326,0.792
	c0.688,0,1.25-0.155,1.651-0.364c0.2-0.105,0.361-0.223,0.48-0.35s0.206-0.267,0.206-0.439c0-0.159-0.062-0.297-0.162-0.421
	c-0.1-0.125-0.255-0.239-0.457-0.239c-0.145,0-0.257,0.06-0.355,0.121c-0.098,0.06-0.19,0.126-0.301,0.19
	c-0.222,0.128-0.515,0.252-1.034,0.252c-0.577,0-1.06-0.166-1.392-0.441c-0.332-0.277-0.524-0.663-0.524-1.166v-0.297h2.958
	c0.315,0,0.664,0.001,0.965-0.191c0.301-0.192,0.483-0.575,0.483-1.158C37.831,48.24,36.482,47.07,34.974,47.07L34.974,47.07z
	 M46.074,47.07c-0.85,0-1.475,0.274-1.875,0.688c-0.401,0.413-0.574,0.95-0.574,1.451c0,0.64,0.258,1.098,0.628,1.392
	c0.37,0.293,0.832,0.441,1.271,0.574c0.439,0.132,0.86,0.25,1.143,0.425c0.283,0.174,0.436,0.365,0.436,0.764
	c0,0.214-0.064,0.386-0.239,0.525c-0.175,0.14-0.484,0.25-0.986,0.25c-0.595,0-0.929-0.147-1.171-0.297
	c-0.121-0.075-0.219-0.152-0.318-0.221c-0.1-0.069-0.212-0.143-0.37-0.143c-0.189,0-0.329,0.116-0.414,0.238
	c-0.085,0.121-0.134,0.259-0.134,0.408c0,0.184,0.089,0.345,0.217,0.487c0.128,0.141,0.3,0.267,0.513,0.376
	c0.424,0.22,1.01,0.375,1.705,0.375c0.754,0,1.375-0.185,1.813-0.542c0.438-0.356,0.678-0.888,0.678-1.5
	c0-0.691-0.252-1.188-0.622-1.516c-0.37-0.329-0.838-0.498-1.283-0.635c-0.446-0.137-0.875-0.243-1.163-0.393
	c-0.288-0.15-0.425-0.291-0.425-0.611c0-0.174,0.07-0.392,0.246-0.563c0.176-0.172,0.462-0.311,0.938-0.311
	c0.38,0,0.664,0.087,0.89,0.18c0.112,0.046,0.21,0.093,0.303,0.134c0.093,0.04,0.178,0.08,0.3,0.08c0.22,0,0.371-0.146,0.461-0.281
	c0.09-0.136,0.144-0.27,0.144-0.421c0-0.191-0.119-0.326-0.251-0.428c-0.132-0.103-0.298-0.184-0.491-0.254
	C47.058,47.161,46.567,47.07,46.074,47.07L46.074,47.07z M25.946,47.155c-0.37,0-0.689,0.232-0.689,0.575v3.76
	c0,1.522,1.294,2.872,2.9,2.872c1.578,0,2.899-1.334,2.899-2.872v-3.774c0-0.172-0.094-0.321-0.219-0.416
	c-0.125-0.095-0.283-0.146-0.456-0.146s-0.333,0.05-0.46,0.144c-0.127,0.092-0.229,0.24-0.229,0.418v3.774
	c0,0.803-0.699,1.578-1.536,1.578c-0.852,0-1.537-0.79-1.537-1.578v-3.76c0-0.178-0.098-0.315-0.219-0.414
	C26.281,47.219,26.123,47.155,25.946,47.155L25.946,47.155z M41.873,47.155c-0.173,0-0.334,0.043-0.461,0.14
	c-0.127,0.096-0.214,0.254-0.214,0.422v6.928c0,0.521-0.036,0.957-0.15,1.223c-0.115,0.265-0.252,0.385-0.639,0.385
	c-0.337,0-0.618,0.293-0.618,0.646c0,0.146,0.047,0.308,0.167,0.433s0.305,0.199,0.521,0.199c0.73,0,1.287-0.324,1.621-0.849
	c0.332-0.525,0.462-1.23,0.462-2.037v-6.928c0-0.179-0.103-0.333-0.232-0.425S42.04,47.155,41.873,47.155L41.873,47.155z
	 M34.96,48.279c0.917,0,1.537,0.768,1.537,1.55c0,0.085-0.009,0.142-0.019,0.168s-0.009,0.023-0.023,0.033
	c-0.027,0.018-0.168,0.053-0.438,0.053h-2.593v-0.311C33.424,48.954,34.107,48.279,34.96,48.279L34.96,48.279z M39.325,52.591
	c-0.496,0-0.872,0.41-0.872,0.886c0,0.456,0.37,0.872,0.872,0.872c0.475,0,0.857-0.403,0.857-0.872
	C40.182,52.989,39.794,52.591,39.325,52.591z"/>
</svg>
