<?xml version="1.0" encoding="utf-8"?>
<!-- Generator: Adobe Illustrator 16.0.0, SVG Export Plug-In . SVG Version: 6.00 Build 0)  -->
<!DOCTYPE svg PUBLIC "-//W3C//DTD SVG 1.1//EN" "http://www.w3.org/Graphics/SVG/1.1/DTD/svg11.dtd">
<svg version="1.1" id="Layer_1" xmlns="http://www.w3.org/2000/svg" xmlns:xlink="http://www.w3.org/1999/xlink" x="0px" y="0px"
	 width="47.865px" height="56.023px" viewBox="9.106 72.477 47.865 56.023" enable-background="new 9.106 72.477 47.865 56.023"
	 xml:space="preserve">
<path fill="#35495E" d="M19.17,115.182c-0.161,0-0.321,0.047-0.459,0.139c-0.14,0.092-0.267,0.25-0.267,0.454
	c0,0.026-0.016,0.087,0.037,0.191l-0.013-0.033l2.794,9.066c0.05,0.171,0.17,0.3,0.305,0.375c0.135,0.074,0.283,0.104,0.426,0.104
	c0.305,0,0.641-0.146,0.744-0.475v-0.002l2.792-9.101v-0.032c0,0.046,0.014,0.019,0.014-0.08c0-0.207-0.132-0.359-0.273-0.455
	s-0.307-0.151-0.48-0.151c-0.213,0-0.458,0.131-0.541,0.377l-0.002,0.002l-2.253,7.522l-2.263-7.508
	c-0.034-0.135-0.124-0.247-0.229-0.31S19.281,115.182,19.17,115.182L19.17,115.182z M41.43,115.649c-0.445,0-0.82,0.341-0.82,0.768
	c0,0.426,0.37,0.778,0.82,0.778c0.442,0,0.793-0.359,0.793-0.778C42.223,115.997,41.865,115.649,41.43,115.649z M34.877,118.553
	c-1.521,0-2.773,1.217-2.773,2.679v1.5c0,0.819,0.327,1.521,0.88,2.006c0.554,0.484,1.328,0.753,2.214,0.753
	c0.655,0,1.189-0.146,1.57-0.346c0.191-0.1,0.344-0.212,0.457-0.333c0.114-0.122,0.197-0.256,0.197-0.422
	c0-0.152-0.058-0.285-0.153-0.404c-0.096-0.119-0.246-0.229-0.439-0.229c-0.14,0-0.247,0.059-0.339,0.116
	c-0.093,0.057-0.181,0.12-0.286,0.18c-0.21,0.121-0.488,0.239-0.98,0.239c-0.547,0-1.003-0.156-1.318-0.418
	c-0.314-0.263-0.497-0.626-0.497-1.103v-0.278h2.806c0.299,0,0.632,0.001,0.92-0.183c0.287-0.184,0.462-0.55,0.462-1.104
	C37.597,119.667,36.313,118.553,34.877,118.553L34.877,118.553z M45.421,118.553c-0.808,0-1.403,0.262-1.785,0.654
	c-0.382,0.394-0.547,0.905-0.547,1.384c0,0.608,0.246,1.045,0.599,1.325s0.791,0.421,1.208,0.547
	c0.418,0.125,0.817,0.237,1.085,0.402c0.269,0.165,0.413,0.345,0.413,0.722c0,0.202-0.061,0.364-0.226,0.495
	c-0.165,0.132-0.458,0.236-0.935,0.236c-0.563,0-0.879-0.14-1.109-0.281c-0.114-0.071-0.206-0.145-0.302-0.211
	c-0.095-0.065-0.203-0.136-0.354-0.136c-0.182,0-0.316,0.111-0.398,0.228c-0.082,0.115-0.129,0.248-0.129,0.392
	c0,0.177,0.086,0.331,0.208,0.466c0.122,0.134,0.287,0.255,0.488,0.359c0.405,0.21,0.962,0.355,1.623,0.355
	c0.718,0,1.309-0.176,1.726-0.516c0.418-0.34,0.645-0.846,0.645-1.428c0-0.658-0.239-1.132-0.591-1.445
	c-0.353-0.312-0.798-0.473-1.221-0.604c-0.423-0.129-0.831-0.23-1.104-0.372c-0.272-0.142-0.401-0.273-0.401-0.576
	c0-0.163,0.065-0.368,0.231-0.531c0.167-0.162,0.438-0.294,0.888-0.294c0.361,0,0.629,0.083,0.843,0.17
	c0.107,0.045,0.2,0.09,0.288,0.129c0.089,0.038,0.171,0.075,0.288,0.075c0.212,0,0.356-0.14,0.443-0.269
	c0.086-0.13,0.136-0.258,0.136-0.404c0-0.183-0.113-0.312-0.24-0.41c-0.125-0.098-0.284-0.175-0.467-0.242
	C46.358,118.64,45.891,118.553,45.421,118.553L45.421,118.553z M26.301,118.634c-0.354,0-0.659,0.221-0.659,0.552v3.571
	c0,1.45,1.232,2.733,2.76,2.733c1.502,0,2.76-1.269,2.76-2.733v-3.584c0-0.166-0.091-0.309-0.21-0.399
	c-0.12-0.092-0.271-0.14-0.436-0.14s-0.317,0.048-0.439,0.138c-0.122,0.088-0.22,0.229-0.22,0.401v3.584
	c0,0.76-0.662,1.495-1.455,1.495c-0.806,0-1.454-0.748-1.454-1.495v-3.571c0-0.171-0.093-0.304-0.209-0.397
	C26.622,118.694,26.47,118.634,26.301,118.634L26.301,118.634z M41.43,118.634c-0.166,0-0.319,0.042-0.44,0.134
	s-0.206,0.244-0.206,0.405v6.581c0,0.493-0.034,0.908-0.143,1.159c-0.108,0.25-0.236,0.361-0.602,0.361
	c-0.323,0-0.592,0.282-0.592,0.62c0,0.14,0.045,0.295,0.16,0.415c0.115,0.12,0.292,0.19,0.499,0.19c0.695,0,1.227-0.309,1.543-0.809
	c0.317-0.502,0.44-1.171,0.44-1.938v-6.581c0-0.172-0.099-0.321-0.222-0.409C41.743,118.676,41.591,118.634,41.43,118.634
	L41.43,118.634z M34.863,119.711c0.869,0,1.455,0.728,1.455,1.468c0,0.081-0.009,0.134-0.017,0.158
	c-0.008,0.022-0.007,0.021-0.02,0.028c-0.024,0.016-0.158,0.051-0.415,0.051h-2.457v-0.291
	C33.409,120.35,34.056,119.711,34.863,119.711L34.863,119.711z M39.01,123.797c-0.474,0-0.834,0.393-0.834,0.847
	c0,0.436,0.354,0.834,0.834,0.834c0.455,0,0.82-0.387,0.82-0.834C39.83,124.179,39.458,123.797,39.01,123.797z"/>
<g transform="matrix(.85771 0 0 .85771 9.1059 -7.6628)">
	<path fill="none" d="M0,93.434l21.735,0.069l6.177,10.668l6.293-10.668l21.601-0.068l-27.831,48.018L0,93.434z M55.36,93.712
		l-10.62,0.01l-16.775,28.797L11.201,93.722l-10.79-0.01l27.559,47.039L55.36,93.712z M44.396,93.709l-9.916,0.073l-6.563,10.746
		l-6.46-10.746l-9.937-0.073l16.45,28.11L44.396,93.709z M11.334,93.635l10.029,0.003l6.555,10.881l6.532-10.88l10.02-0.002
		L27.968,122.26"/>
	<path fill="#35495E" d="M11.334,93.635l10.029,0.003l6.555,10.881l6.532-10.88l10.02-0.002L27.968,122.26L11.334,93.635z"/>
	<path fill="#41B883" d="M0.397,93.711l10.929-0.074l16.633,28.626l16.502-28.625l10.947,0.011l-27.451,47.113L0.397,93.711z"/>
</g>
</svg>
