<?xml version="1.0" encoding="utf-8"?>
<!-- Generator: Adobe Illustrator 16.0.0, SVG Export Plug-In . SVG Version: 6.00 Build 0)  -->
<!DOCTYPE svg PUBLIC "-//W3C//DTD SVG 1.1//EN" "http://www.w3.org/Graphics/SVG/1.1/DTD/svg11.dtd">
<svg version="1.1" id="Layer_1" xmlns="http://www.w3.org/2000/svg" xmlns:xlink="http://www.w3.org/1999/xlink" x="0px" y="0px"
	 width="50px" height="50px" viewBox="-9 -9 50 50" enable-background="new -9 -9 50 50" xml:space="preserve">
<path d="M16.07-8.218C2.317-8.218-8.832,2.933-8.832,16.684c0,11.006,7.134,20.336,17.03,23.628c1.244,0.23,1.698-0.541,1.698-1.196
	c0-0.593-0.024-2.557-0.033-4.639c-6.927,1.504-8.391-2.935-8.391-2.935c-1.134-2.876-2.764-3.643-2.764-3.643
	c-2.266-1.546,0.169-1.514,0.169-1.514c2.501,0.171,3.816,2.563,3.816,2.563c2.22,3.807,5.832,2.705,7.246,2.07
	c0.229-1.608,0.872-2.705,1.582-3.328C5.994,27.066,0.179,24.928,0.179,15.385c0-2.721,0.971-4.938,2.562-6.685
	C2.487,8.068,1.63,5.535,2.99,2.107c0,0,2.087-0.668,6.85,2.554c1.982-0.557,4.116-0.829,6.229-0.837
	c2.115,0.008,4.249,0.287,6.233,0.84c4.753-3.226,6.844-2.555,6.844-2.555c1.359,3.431,0.504,5.962,0.248,6.59
	c1.6,1.746,2.56,3.964,2.56,6.687c0,9.565-5.825,11.674-11.368,12.287c0.895,0.771,1.688,2.286,1.688,4.608
	c0,3.328-0.032,6.014-0.032,6.835c0,0.661,0.454,1.437,1.714,1.193c9.891-3.297,17.019-12.63,17.019-23.627
	C40.973,2.931,29.823-8.218,16.07-8.218z"/>
</svg>
