<?xml version="1.0" encoding="utf-8"?>
<!-- Generator: Adobe Illustrator 16.0.0, SVG Export Plug-In . SVG Version: 6.00 Build 0)  -->
<!DOCTYPE svg PUBLIC "-//W3C//DTD SVG 1.1//EN" "http://www.w3.org/Graphics/SVG/1.1/DTD/svg11.dtd">
<svg version="1.1" id="Layer_1" xmlns="http://www.w3.org/2000/svg" xmlns:xlink="http://www.w3.org/1999/xlink" x="0px" y="0px"
	 width="50px" height="50px" viewBox="0 0 50 50" enable-background="new 0 0 50 50" xml:space="preserve">
<path fill="#FFFFFF" d="M24.999,0.714c-13.753,0-24.902,11.151-24.902,24.901c0,11.006,7.134,20.336,17.03,23.629
	c1.244,0.229,1.698-0.541,1.698-1.196c0-0.593-0.024-2.558-0.033-4.64c-6.927,1.504-8.391-2.935-8.391-2.935
	c-1.134-2.876-2.764-3.644-2.764-3.644c-2.266-1.545,0.169-1.514,0.169-1.514c2.501,0.172,3.816,2.563,3.816,2.563
	c2.22,3.807,5.832,2.704,7.246,2.069c0.229-1.607,0.872-2.705,1.582-3.328c-5.527-0.623-11.342-2.762-11.342-12.305
	c0-2.721,0.971-4.938,2.562-6.685c-0.254-0.632-1.111-3.165,0.249-6.593c0,0,2.087-0.668,6.85,2.554
	c1.982-0.557,4.116-0.829,6.229-0.837c2.115,0.008,4.249,0.287,6.232,0.84c4.754-3.226,6.846-2.555,6.846-2.555
	c1.357,3.431,0.504,5.962,0.248,6.59c1.6,1.746,2.559,3.964,2.559,6.687c0,9.565-5.824,11.675-11.367,12.287
	c0.895,0.771,1.688,2.286,1.688,4.608c0,3.328-0.031,6.014-0.031,6.835c0,0.661,0.453,1.437,1.713,1.192
	c9.893-3.297,17.02-12.629,17.02-23.627C49.902,11.863,38.752,0.714,24.999,0.714z"/>
</svg>
