<?xml version="1.0" encoding="utf-8"?>
<!-- Generator: Adobe Illustrator 16.0.0, SVG Export Plug-In . SVG Version: 6.00 Build 0)  -->
<!DOCTYPE svg PUBLIC "-//W3C//DTD SVG 1.1//EN" "http://www.w3.org/Graphics/SVG/1.1/DTD/svg11.dtd">
<svg version="1.1" id="Layer_1" xmlns="http://www.w3.org/2000/svg" xmlns:xlink="http://www.w3.org/1999/xlink" x="0px" y="0px"
	 width="32px" height="32px" viewBox="24.25 929.25 32 32" enable-background="new 24.25 929.25 32 32" xml:space="preserve">
<path d="M40.25,930.132c-8.698,0-15.75,7.053-15.75,15.75c0,6.96,4.512,12.862,10.771,14.944c0.787,0.145,1.075-0.342,1.075-0.757
	c0-0.375-0.015-1.617-0.022-2.933c-4.38,0.952-5.306-1.856-5.306-1.856c-0.717-1.819-1.749-2.304-1.749-2.304
	c-1.432-0.977,0.108-0.957,0.108-0.957c1.582,0.109,2.414,1.622,2.414,1.622c1.405,2.407,3.688,1.711,4.583,1.308
	c0.143-1.016,0.551-1.711,1-2.104c-3.496-0.397-7.174-1.749-7.174-7.784c0-1.721,0.614-3.124,1.62-4.228
	c-0.161-0.399-0.703-2.002,0.156-4.17c0,0,1.321-0.423,4.332,1.615c1.255-0.351,2.603-0.524,3.941-0.529
	c1.338,0.005,2.686,0.181,3.943,0.531c3.005-2.04,4.328-1.615,4.328-1.615c0.861,2.17,0.319,3.771,0.158,4.168
	c1.009,1.104,1.619,2.507,1.619,4.228c0,6.05-3.684,7.383-7.192,7.772c0.567,0.488,1.069,1.446,1.069,2.915
	c0,2.105-0.021,3.803-0.021,4.322c0,0.419,0.287,0.909,1.084,0.755C51.492,958.74,56,952.838,56,945.882
	C56,937.185,48.948,930.132,40.25,930.132z"/>
</svg>
