<?xml version="1.0" encoding="utf-8"?>
<!-- Generator: Adobe Illustrator 16.0.0, SVG Export Plug-In . SVG Version: 6.00 Build 0)  -->
<!DOCTYPE svg PUBLIC "-//W3C//DTD SVG 1.1//EN" "http://www.w3.org/Graphics/SVG/1.1/DTD/svg11.dtd">
<svg version="1.1" id="Layer_1" xmlns="http://www.w3.org/2000/svg" xmlns:xlink="http://www.w3.org/1999/xlink" x="0px" y="0px"
	 width="32px" height="32px" viewBox="0 0 32 32" enable-background="new 0 0 32 32" xml:space="preserve">
<path d="M16,0.639c-8.698,0-15.75,7.053-15.75,15.75c0,6.96,4.512,12.862,10.771,14.944c0.787,0.145,1.074-0.342,1.074-0.757
	c0-0.375-0.015-1.617-0.021-2.934c-4.381,0.952-5.307-1.855-5.307-1.855c-0.717-1.819-1.748-2.305-1.748-2.305
	c-1.433-0.977,0.107-0.956,0.107-0.956c1.582,0.108,2.414,1.621,2.414,1.621c1.404,2.407,3.688,1.711,4.583,1.309
	c0.144-1.017,0.551-1.711,1-2.104c-3.496-0.396-7.174-1.749-7.174-7.784c0-1.721,0.614-3.123,1.62-4.228
	C7.409,10.94,6.867,9.338,7.727,7.17c0,0,1.32-0.423,4.332,1.615c1.254-0.352,2.603-0.524,3.94-0.529
	c1.338,0.005,2.687,0.181,3.942,0.531c3.006-2.04,4.328-1.615,4.328-1.615c0.861,2.17,0.319,3.771,0.158,4.168
	c1.01,1.104,1.619,2.507,1.619,4.229c0,6.05-3.684,7.383-7.191,7.771c0.566,0.488,1.068,1.446,1.068,2.915
	c0,2.105-0.021,3.803-0.021,4.322c0,0.419,0.287,0.909,1.084,0.755c6.256-2.085,10.764-7.987,10.764-14.943
	C31.75,7.691,24.698,0.639,16,0.639z"/>
</svg>
