<?xml version="1.0" encoding="utf-8"?>
<!-- Generator: Adobe Illustrator 16.0.0, SVG Export Plug-In . SVG Version: 6.00 Build 0)  -->
<!DOCTYPE svg PUBLIC "-//W3C//DTD SVG 1.1//EN" "http://www.w3.org/Graphics/SVG/1.1/DTD/svg11.dtd">
<svg version="1.1" id="Layer_1" xmlns="http://www.w3.org/2000/svg" xmlns:xlink="http://www.w3.org/1999/xlink" x="0px" y="0px"
	 width="50px" height="50px" viewBox="-9 -9 50 50" enable-background="new -9 -9 50 50" xml:space="preserve">
<g>
	<path fill="#007BB5" d="M41.11,37.979c0,1.729-1.403,3.132-3.132,3.132H-5.868C-7.597,41.11-9,39.707-9,37.979V-5.868
		C-9-7.597-7.597-9-5.868-9h43.847c1.729,0,3.132,1.403,3.132,3.132V37.979z"/>
	<g>
		<rect x="1.961" y="8.226" fill="#FFFFFF" width="6.264" height="21.923"/>
		<path fill="#FFFFFF" d="M23.101,8.226c-4.371,0-5.121,1.594-5.479,3.132V8.226h-6.264v21.923h6.264V17.621
			c0-2.031,1.102-3.132,3.132-3.132c1.981,0,3.132,1.077,3.132,3.132v12.527h6.264V19.188C30.148,12.923,29.332,8.226,23.101,8.226z
			"/>
		<circle fill="#FFFFFF" cx="5.094" cy="3.528" r="3.132"/>
	</g>
</g>
</svg>
